<?xml version="1.0" encoding="utf-8"?>
<!-- Generator: Adobe Illustrator 27.6.1, SVG Export Plug-In . SVG Version: 6.00 Build 0)  -->
<svg version="1.1" id="Layer_1" xmlns="http://www.w3.org/2000/svg" xmlns:xlink="http://www.w3.org/1999/xlink" x="0px" y="0px"
	 viewBox="0 0 346.6 292.4" style="enable-background:new 0 0 346.6 292.4;" xml:space="preserve">
<style type="text/css">
	.st0{fill:#FFFFFF;}
	.st1{clip-path:url(#SVGID_00000092414890881197086060000010273981426905399742_);fill:#CCCCCC;fill-opacity:0.4;stroke:#FFFFFF;}
	.st2{clip-path:url(#SVGID_00000075857901300609070830000001348453139189938840_);fill:#CCCCCC;fill-opacity:0.4;stroke:#FFFFFF;}
	.st3{clip-path:url(#SVGID_00000134207825182136546840000007114265331094875064_);fill:#CCCCCC;fill-opacity:0.4;stroke:#FFFFFF;}
	.st4{clip-path:url(#SVGID_00000074432860118000135160000017171279508506837413_);fill:#CCCCCC;fill-opacity:0.4;stroke:#FFFFFF;}
	.st5{clip-path:url(#SVGID_00000130625428519182061550000015040978931157023134_);fill:#CCCCCC;fill-opacity:0.4;stroke:#FFFFFF;}
	.st6{clip-path:url(#SVGID_00000126323405057374360350000001525820537763167404_);fill:#CCCCCC;fill-opacity:0.4;stroke:#FFFFFF;}
	.st7{clip-path:url(#SVGID_00000047755546749939263300000014124856176156411802_);fill:#CCCCCC;fill-opacity:0.4;stroke:#FFFFFF;}
	.st8{clip-path:url(#SVGID_00000062870307841993729800000008620299401660809657_);fill:#CCCCCC;fill-opacity:0.4;stroke:#FFFFFF;}
	.st9{clip-path:url(#SVGID_00000137094052026716655500000015467408187937062548_);fill:#CCCCCC;fill-opacity:0.4;stroke:#FFFFFF;}
	.st10{clip-path:url(#SVGID_00000178184320693812002030000004585167116069504438_);fill:#CCCCCC;fill-opacity:0.4;stroke:#FFFFFF;}
	.st11{clip-path:url(#SVGID_00000080203557704417316390000016359681750825182604_);fill:#CCCCCC;fill-opacity:0.4;stroke:#FFFFFF;}
	.st12{clip-path:url(#SVGID_00000083792275588775937420000010913506327146427267_);fill:#CCCCCC;fill-opacity:0.4;stroke:#FFFFFF;}
	.st13{clip-path:url(#SVGID_00000021102456024082645480000004367077863259886245_);fill:#CCCCCC;fill-opacity:0.4;stroke:#FFFFFF;}
	.st14{clip-path:url(#SVGID_00000048493730822819364830000003584831640207449523_);fill:#CCCCCC;fill-opacity:0.4;stroke:#FFFFFF;}
	.st15{clip-path:url(#SVGID_00000070082352594674662250000014976240720075060656_);fill:#CCCCCC;fill-opacity:0.4;stroke:#FFFFFF;}
	.st16{clip-path:url(#SVGID_00000083075969562045475790000000644569174094649237_);fill:#CCCCCC;fill-opacity:0.4;stroke:#FFFFFF;}
	.st17{clip-path:url(#SVGID_00000057854418921702549280000007954816134359877821_);fill:#CCCCCC;fill-opacity:0.4;stroke:#FFFFFF;}
	.st18{clip-path:url(#SVGID_00000027589716398763757820000014600814258787767169_);fill:#CCCCCC;fill-opacity:0.4;stroke:#FFFFFF;}
	.st19{clip-path:url(#SVGID_00000000190362779865188810000008354698859287487373_);fill:#CCCCCC;fill-opacity:0.4;stroke:#FFFFFF;}
	.st20{clip-path:url(#SVGID_00000000906306784383223860000007796332005666773156_);fill:#CCCCCC;fill-opacity:0.4;stroke:#FFFFFF;}
	.st21{clip-path:url(#SVGID_00000093882562267240602290000000322293490389078170_);fill:#CCCCCC;fill-opacity:0.4;stroke:#FFFFFF;}
	.st22{clip-path:url(#SVGID_00000004510213061816413680000003076062959272741786_);fill:#CCCCCC;fill-opacity:0.4;stroke:#FFFFFF;}
	.st23{clip-path:url(#SVGID_00000140707375414726754350000001446978427152569487_);fill:#CCCCCC;fill-opacity:0.4;stroke:#FFFFFF;}
	.st24{clip-path:url(#SVGID_00000082327235912943865970000005969441494951708338_);fill:#CCCCCC;fill-opacity:0.4;stroke:#FFFFFF;}
	.st25{clip-path:url(#SVGID_00000135678782888191747650000002924758184304141463_);fill:#CCCCCC;fill-opacity:0.4;stroke:#FFFFFF;}
	.st26{stroke:#000000;stroke-width:0.8;stroke-linejoin:round;}
	
		.st27{clip-path:url(#SVGID_00000139260234216570565180000001294490004575194013_);fill:none;stroke:#CCCCCC;stroke-width:1.5;stroke-linecap:square;stroke-linejoin:round;}
	.st28{fill:none;stroke:#000000;stroke-width:0.8;stroke-linecap:square;}
	.st29{stroke:#000000;stroke-width:2.000000e-03;stroke-linecap:square;stroke-miterlimit:10;}
	.st30{opacity:0.8;fill:#FFFFFF;stroke:#CCCCCC;enable-background:new    ;}
	.st31{fill:#3636EB;stroke:#3636EB;}
	.st32{fill:#CCCCCC;fill-opacity:0.4;stroke:#FFFFFF;}
	.st33{clip-path:url(#SVGID_00000049904599760805282390000017607667216581657496_);fill:#3636EB;stroke:#3636EB;}
</style>
<g id="figure_1">
	<g id="patch_1">
		<path class="st0" d="M0,292.4h346.6V0H0V292.4z"/>
	</g>
	<g id="axes_1">
		<g id="patch_2">
			<path class="st0" d="M60.4,247.1h279V25.4h-279V247.1z"/>
		</g>
		<g id="patch_3">
			<g>
				<defs>
					<rect id="SVGID_1_" x="60.4" y="25.4" width="279" height="221.8"/>
				</defs>
				<clipPath id="SVGID_00000175294808600181950730000009227230734137445766_">
					<use xlink:href="#SVGID_1_"  style="overflow:visible;"/>
				</clipPath>
				
					<path style="clip-path:url(#SVGID_00000175294808600181950730000009227230734137445766_);fill:#CCCCCC;fill-opacity:0.4;stroke:#FFFFFF;" d="
					M73.1,247.1h5.1V247h-5.1V247.1z"/>
			</g>
		</g>
		<g id="patch_4">
			<g>
				<defs>
					<rect id="SVGID_00000097494401953597279600000012285342858820582297_" x="60.4" y="25.4" width="279" height="221.8"/>
				</defs>
				<clipPath id="SVGID_00000099637367699614330180000016229680702991204797_">
					<use xlink:href="#SVGID_00000097494401953597279600000012285342858820582297_"  style="overflow:visible;"/>
				</clipPath>
				
					<path style="clip-path:url(#SVGID_00000099637367699614330180000016229680702991204797_);fill:#CCCCCC;fill-opacity:0.4;stroke:#FFFFFF;" d="
					M78.2,247.1h5.1v-0.3h-5.1V247.1z"/>
			</g>
		</g>
		<g id="patch_5">
			<g>
				<defs>
					<rect id="SVGID_00000183230840150358378540000013473112460774888112_" x="60.4" y="25.4" width="279" height="221.8"/>
				</defs>
				<clipPath id="SVGID_00000036961984086467015990000010176707306346135739_">
					<use xlink:href="#SVGID_00000183230840150358378540000013473112460774888112_"  style="overflow:visible;"/>
				</clipPath>
				
					<path style="clip-path:url(#SVGID_00000036961984086467015990000010176707306346135739_);fill:#CCCCCC;fill-opacity:0.4;stroke:#FFFFFF;" d="
					M83.4,247.1h5.1v-0.5h-5.1V247.1z"/>
			</g>
		</g>
		<g id="patch_6">
			<g>
				<defs>
					<rect id="SVGID_00000114771581105592875120000007184497356106675610_" x="60.4" y="25.4" width="279" height="221.8"/>
				</defs>
				<clipPath id="SVGID_00000028323855172966186860000007975450036977095578_">
					<use xlink:href="#SVGID_00000114771581105592875120000007184497356106675610_"  style="overflow:visible;"/>
				</clipPath>
				
					<path style="clip-path:url(#SVGID_00000028323855172966186860000007975450036977095578_);fill:#CCCCCC;fill-opacity:0.4;stroke:#FFFFFF;" d="
					M88.5,247.1h5.1v-1.4h-5.1V247.1z"/>
			</g>
		</g>
		<g id="patch_7">
			<g>
				<defs>
					<rect id="SVGID_00000031202174324053701650000010382407726835133613_" x="60.4" y="25.4" width="279" height="221.8"/>
				</defs>
				<clipPath id="SVGID_00000032609872378580332410000016602766694114330295_">
					<use xlink:href="#SVGID_00000031202174324053701650000010382407726835133613_"  style="overflow:visible;"/>
				</clipPath>
				
					<path style="clip-path:url(#SVGID_00000032609872378580332410000016602766694114330295_);fill:#CCCCCC;fill-opacity:0.4;stroke:#FFFFFF;" d="
					M93.7,247.1h5.1v-7.5h-5.1V247.1z"/>
			</g>
		</g>
		<g id="patch_8">
			<g>
				<defs>
					<rect id="SVGID_00000057118156366479660520000009603095548994708623_" x="60.4" y="25.4" width="279" height="221.8"/>
				</defs>
				<clipPath id="SVGID_00000182506046443310704120000013627977174736743056_">
					<use xlink:href="#SVGID_00000057118156366479660520000009603095548994708623_"  style="overflow:visible;"/>
				</clipPath>
				
					<path style="clip-path:url(#SVGID_00000182506046443310704120000013627977174736743056_);fill:#CCCCCC;fill-opacity:0.4;stroke:#FFFFFF;" d="
					M98.8,247.1h5.1v-16.7h-5.1V247.1z"/>
			</g>
		</g>
		<g id="patch_9">
			<g>
				<defs>
					<rect id="SVGID_00000132784893281205610100000004104627655741065656_" x="60.4" y="25.4" width="279" height="221.8"/>
				</defs>
				<clipPath id="SVGID_00000068661400933894087070000016562349743757094304_">
					<use xlink:href="#SVGID_00000132784893281205610100000004104627655741065656_"  style="overflow:visible;"/>
				</clipPath>
				
					<path style="clip-path:url(#SVGID_00000068661400933894087070000016562349743757094304_);fill:#CCCCCC;fill-opacity:0.4;stroke:#FFFFFF;" d="
					M103.9,247.1h5.1v-39h-5.1V247.1z"/>
			</g>
		</g>
		<g id="patch_10">
			<g>
				<defs>
					<rect id="SVGID_00000127748317101974972450000002095139582924391336_" x="60.4" y="25.4" width="279" height="221.8"/>
				</defs>
				<clipPath id="SVGID_00000068643793476022856340000000246040981173239697_">
					<use xlink:href="#SVGID_00000127748317101974972450000002095139582924391336_"  style="overflow:visible;"/>
				</clipPath>
				
					<path style="clip-path:url(#SVGID_00000068643793476022856340000000246040981173239697_);fill:#CCCCCC;fill-opacity:0.4;stroke:#FFFFFF;" d="
					M109.1,247.1h5.1v-61.1h-5.1V247.1z"/>
			</g>
		</g>
		<g id="patch_11">
			<g>
				<defs>
					<rect id="SVGID_00000158001650480545186120000005534727418585243267_" x="60.4" y="25.4" width="279" height="221.8"/>
				</defs>
				<clipPath id="SVGID_00000032636158996812618220000001202800365858633128_">
					<use xlink:href="#SVGID_00000158001650480545186120000005534727418585243267_"  style="overflow:visible;"/>
				</clipPath>
				
					<path style="clip-path:url(#SVGID_00000032636158996812618220000001202800365858633128_);fill:#CCCCCC;fill-opacity:0.4;stroke:#FFFFFF;" d="
					M114.2,247.1h5.1V145.3h-5.1V247.1z"/>
			</g>
		</g>
		<g id="patch_12">
			<g>
				<defs>
					<rect id="SVGID_00000026163201993256864490000017426348547758040496_" x="60.4" y="25.4" width="279" height="221.8"/>
				</defs>
				<clipPath id="SVGID_00000161619866185971645470000001415043962386811537_">
					<use xlink:href="#SVGID_00000026163201993256864490000017426348547758040496_"  style="overflow:visible;"/>
				</clipPath>
				
					<path style="clip-path:url(#SVGID_00000161619866185971645470000001415043962386811537_);fill:#CCCCCC;fill-opacity:0.4;stroke:#FFFFFF;" d="
					M119.4,247.1h5.1V102.6h-5.1V247.1z"/>
			</g>
		</g>
		<g id="patch_13">
			<g>
				<defs>
					<rect id="SVGID_00000047026314326042230480000006777607138286555293_" x="60.4" y="25.4" width="279" height="221.8"/>
				</defs>
				<clipPath id="SVGID_00000150795413305642006550000011423314320074689214_">
					<use xlink:href="#SVGID_00000047026314326042230480000006777607138286555293_"  style="overflow:visible;"/>
				</clipPath>
				
					<path style="clip-path:url(#SVGID_00000150795413305642006550000011423314320074689214_);fill:#CCCCCC;fill-opacity:0.4;stroke:#FFFFFF;" d="
					M124.5,247.1h5.1V70.5h-5.1V247.1z"/>
			</g>
		</g>
		<g id="patch_14">
			<g>
				<defs>
					<rect id="SVGID_00000039839253276492787640000014141494327797936296_" x="60.4" y="25.4" width="279" height="221.8"/>
				</defs>
				<clipPath id="SVGID_00000001655580201020187280000007174597562397845388_">
					<use xlink:href="#SVGID_00000039839253276492787640000014141494327797936296_"  style="overflow:visible;"/>
				</clipPath>
				
					<path style="clip-path:url(#SVGID_00000001655580201020187280000007174597562397845388_);fill:#CCCCCC;fill-opacity:0.4;stroke:#FFFFFF;" d="
					M129.7,247.1h5.1V35.9h-5.1V247.1z"/>
			</g>
		</g>
		<g id="patch_15">
			<g>
				<defs>
					<rect id="SVGID_00000183935344616747662370000013037559920192294274_" x="60.4" y="25.4" width="279" height="221.8"/>
				</defs>
				<clipPath id="SVGID_00000002347283570738327340000010720326563544235684_">
					<use xlink:href="#SVGID_00000183935344616747662370000013037559920192294274_"  style="overflow:visible;"/>
				</clipPath>
				
					<path style="clip-path:url(#SVGID_00000002347283570738327340000010720326563544235684_);fill:#CCCCCC;fill-opacity:0.4;stroke:#FFFFFF;" d="
					M134.8,247.1h5.1V44.9h-5.1V247.1z"/>
			</g>
		</g>
		<g id="patch_16">
			<g>
				<defs>
					<rect id="SVGID_00000148634429565300155970000015584758619097524407_" x="60.4" y="25.4" width="279" height="221.8"/>
				</defs>
				<clipPath id="SVGID_00000176752309019559341200000008418690618432334513_">
					<use xlink:href="#SVGID_00000148634429565300155970000015584758619097524407_"  style="overflow:visible;"/>
				</clipPath>
				
					<path style="clip-path:url(#SVGID_00000176752309019559341200000008418690618432334513_);fill:#CCCCCC;fill-opacity:0.4;stroke:#FFFFFF;" d="
					M139.9,247.1h5.1V66.4h-5.1V247.1z"/>
			</g>
		</g>
		<g id="patch_17">
			<g>
				<defs>
					<rect id="SVGID_00000049193580228759788310000007902088369671583642_" x="60.4" y="25.4" width="279" height="221.8"/>
				</defs>
				<clipPath id="SVGID_00000086682581071203567740000010918027694133883582_">
					<use xlink:href="#SVGID_00000049193580228759788310000007902088369671583642_"  style="overflow:visible;"/>
				</clipPath>
				
					<path style="clip-path:url(#SVGID_00000086682581071203567740000010918027694133883582_);fill:#CCCCCC;fill-opacity:0.4;stroke:#FFFFFF;" d="
					M145.1,247.1h5.1V103.9h-5.1V247.1z"/>
			</g>
		</g>
		<g id="patch_18">
			<g>
				<defs>
					<rect id="SVGID_00000091698603481656613010000012578936233825827771_" x="60.4" y="25.4" width="279" height="221.8"/>
				</defs>
				<clipPath id="SVGID_00000110440296791217239540000005545958929357269412_">
					<use xlink:href="#SVGID_00000091698603481656613010000012578936233825827771_"  style="overflow:visible;"/>
				</clipPath>
				
					<path style="clip-path:url(#SVGID_00000110440296791217239540000005545958929357269412_);fill:#CCCCCC;fill-opacity:0.4;stroke:#FFFFFF;" d="
					M150.2,247.1h5.1V141.7h-5.1V247.1z"/>
			</g>
		</g>
		<g id="patch_19">
			<g>
				<defs>
					<rect id="SVGID_00000117660950966651099830000007425161849063393722_" x="60.4" y="25.4" width="279" height="221.8"/>
				</defs>
				<clipPath id="SVGID_00000092420513015435879280000003832908539476842409_">
					<use xlink:href="#SVGID_00000117660950966651099830000007425161849063393722_"  style="overflow:visible;"/>
				</clipPath>
				
					<path style="clip-path:url(#SVGID_00000092420513015435879280000003832908539476842409_);fill:#CCCCCC;fill-opacity:0.4;stroke:#FFFFFF;" d="
					M155.4,247.1h5.1v-62.6h-5.1V247.1z"/>
			</g>
		</g>
		<g id="patch_20">
			<g>
				<defs>
					<rect id="SVGID_00000148623418758639488930000010725310284498457483_" x="60.4" y="25.4" width="279" height="221.8"/>
				</defs>
				<clipPath id="SVGID_00000160893445071443154560000004224774255036657595_">
					<use xlink:href="#SVGID_00000148623418758639488930000010725310284498457483_"  style="overflow:visible;"/>
				</clipPath>
				
					<path style="clip-path:url(#SVGID_00000160893445071443154560000004224774255036657595_);fill:#CCCCCC;fill-opacity:0.4;stroke:#FFFFFF;" d="
					M160.5,247.1h5.1v-37.2h-5.1V247.1z"/>
			</g>
		</g>
		<g id="patch_21">
			<g>
				<defs>
					<rect id="SVGID_00000088832114530254848000000010205893203441369778_" x="60.4" y="25.4" width="279" height="221.8"/>
				</defs>
				<clipPath id="SVGID_00000020389522319510017760000016885135101249181595_">
					<use xlink:href="#SVGID_00000088832114530254848000000010205893203441369778_"  style="overflow:visible;"/>
				</clipPath>
				
					<path style="clip-path:url(#SVGID_00000020389522319510017760000016885135101249181595_);fill:#CCCCCC;fill-opacity:0.4;stroke:#FFFFFF;" d="
					M165.7,247.1h5.1v-23.7h-5.1V247.1z"/>
			</g>
		</g>
		<g id="patch_22">
			<g>
				<defs>
					<rect id="SVGID_00000129191417973046084120000008496427578697682094_" x="60.4" y="25.4" width="279" height="221.8"/>
				</defs>
				<clipPath id="SVGID_00000146468700209787135560000007076367084746059438_">
					<use xlink:href="#SVGID_00000129191417973046084120000008496427578697682094_"  style="overflow:visible;"/>
				</clipPath>
				
					<path style="clip-path:url(#SVGID_00000146468700209787135560000007076367084746059438_);fill:#CCCCCC;fill-opacity:0.4;stroke:#FFFFFF;" d="
					M170.8,247.1h5.1V237h-5.1V247.1z"/>
			</g>
		</g>
		<g id="patch_23">
			<g>
				<defs>
					<rect id="SVGID_00000019642113214271336850000008838820415992178075_" x="60.4" y="25.4" width="279" height="221.8"/>
				</defs>
				<clipPath id="SVGID_00000075847400804424928660000015896681209726925444_">
					<use xlink:href="#SVGID_00000019642113214271336850000008838820415992178075_"  style="overflow:visible;"/>
				</clipPath>
				
					<path style="clip-path:url(#SVGID_00000075847400804424928660000015896681209726925444_);fill:#CCCCCC;fill-opacity:0.4;stroke:#FFFFFF;" d="
					M175.9,247.1h5.1v-2.6h-5.1V247.1z"/>
			</g>
		</g>
		<g id="patch_24">
			<g>
				<defs>
					<rect id="SVGID_00000033367106308500617750000017696852960985943199_" x="60.4" y="25.4" width="279" height="221.8"/>
				</defs>
				<clipPath id="SVGID_00000157268854371622907180000002820981874260857489_">
					<use xlink:href="#SVGID_00000033367106308500617750000017696852960985943199_"  style="overflow:visible;"/>
				</clipPath>
				
					<path style="clip-path:url(#SVGID_00000157268854371622907180000002820981874260857489_);fill:#CCCCCC;fill-opacity:0.4;stroke:#FFFFFF;" d="
					M181.1,247.1h5.1V246h-5.1V247.1z"/>
			</g>
		</g>
		<g id="patch_25">
			<g>
				<defs>
					<rect id="SVGID_00000174559839808086389870000001457178535414952628_" x="60.4" y="25.4" width="279" height="221.8"/>
				</defs>
				<clipPath id="SVGID_00000085236656967281710100000006572445053667190917_">
					<use xlink:href="#SVGID_00000174559839808086389870000001457178535414952628_"  style="overflow:visible;"/>
				</clipPath>
				
					<path style="clip-path:url(#SVGID_00000085236656967281710100000006572445053667190917_);fill:#CCCCCC;fill-opacity:0.4;stroke:#FFFFFF;" d="
					M186.2,247.1h5.1v-0.3h-5.1V247.1z"/>
			</g>
		</g>
		<g id="patch_26">
			<g>
				<defs>
					<rect id="SVGID_00000083070150313348624470000017313080799369517454_" x="60.4" y="25.4" width="279" height="221.8"/>
				</defs>
				<clipPath id="SVGID_00000111177984502848250670000008301041652129684618_">
					<use xlink:href="#SVGID_00000083070150313348624470000017313080799369517454_"  style="overflow:visible;"/>
				</clipPath>
				
					<path style="clip-path:url(#SVGID_00000111177984502848250670000008301041652129684618_);fill:#CCCCCC;fill-opacity:0.4;stroke:#FFFFFF;" d="
					M191.4,247.1h5.1v-0.5h-5.1V247.1z"/>
			</g>
		</g>
		<g id="patch_27">
			<g>
				<defs>
					<rect id="SVGID_00000084489179405105273530000003964468968625350812_" x="60.4" y="25.4" width="279" height="221.8"/>
				</defs>
				<clipPath id="SVGID_00000173841991918589301160000003165131261532872324_">
					<use xlink:href="#SVGID_00000084489179405105273530000003964468968625350812_"  style="overflow:visible;"/>
				</clipPath>
				
					<path style="clip-path:url(#SVGID_00000173841991918589301160000003165131261532872324_);fill:#CCCCCC;fill-opacity:0.4;stroke:#FFFFFF;" d="
					M196.5,247.1h5.1V247h-5.1V247.1z"/>
			</g>
		</g>
		<g id="matplotlib.axis_1">
			<g id="xtick_1">
				<g id="line2d_1">
					<g>
						<g>
							<path id="m31c8a4eded" class="st26" d="M109.4,247.1v3.5"/>
						</g>
					</g>
				</g>
				<g id="text_1">
					<g transform="translate(97.996705 263.235625) scale(0.12 -0.12)">
						<g>
							<path id="DejaVuSans-31" d="M12.4,8.3h16.1v55.6L11,60.4v9l17.4,3.5h9.9V8.3h16.1V0h-42V8.3z"/>
						</g>
						<g>
							<path id="DejaVuSans-35" d="M74.4,72.9h38.7v-8.3H83.5V46.7c1.4,0.5,2.9,0.9,4.3,1.1c1.4,0.2,2.9,0.4,4.3,0.4
								c8.1,0,14.6-2.2,19.3-6.7c4.8-4.5,7.1-10.5,7.1-18.1c0-7.8-2.4-13.9-7.3-18.3c-4.9-4.3-11.8-6.5-20.7-6.5
								c-3.1,0-6.2,0.3-9.4,0.8c-3.2,0.5-6.4,1.3-9.8,2.3v9.9c2.9-1.6,6-2.8,9.1-3.6s6.4-1.2,9.9-1.2c5.6,0,10.1,1.5,13.4,4.4
								c3.3,3,4.9,7,4.9,12.1c0,5.1-1.6,9.1-4.9,12c-3.3,3-7.7,4.5-13.4,4.5c-2.6,0-5.3-0.3-7.9-0.9c-2.6-0.6-5.3-1.5-8-2.7V72.9z"
								/>
						</g>
						<g>
							<path id="DejaVuSans-30" d="M159,66.4c-5.1,0-8.9-2.5-11.5-7.5c-2.6-5-3.8-12.5-3.8-22.5c0-10,1.3-17.5,3.8-22.5
								c2.6-5,6.4-7.5,11.5-7.5c5.1,0,8.9,2.5,11.5,7.5c2.6,5,3.8,12.5,3.8,22.5c0,10-1.3,17.5-3.8,22.5
								C168,63.9,164.1,66.4,159,66.4z M159,74.2c8.2,0,14.4-3.2,18.7-9.7c4.3-6.5,6.5-15.8,6.5-28.1c0-12.3-2.2-21.6-6.5-28.1
								c-4.3-6.5-10.6-9.7-18.7-9.7c-8.2,0-14.4,3.2-18.7,9.7c-4.3,6.5-6.5,15.8-6.5,28.1c0,12.3,2.2,21.7,6.5,28.1
								C144.6,71,150.9,74.2,159,74.2z"/>
						</g>
					</g>
				</g>
			</g>
			<g id="xtick_2">
				<g id="line2d_2">
					<g>
						<g>
							<path id="m31c8a4eded_00000015332468004296708070000003881001241457172136_" class="st26" d="M174.4,247.1v3.5"/>
						</g>
					</g>
				</g>
				<g id="text_2">
					<g transform="translate(162.931769 263.235625) scale(0.12 -0.12)">
						<g>
							<path id="DejaVuSans-32" d="M19.2,8.3h34.4V0H7.3v8.3c3.7,3.9,8.8,9.1,15.3,15.6c6.5,6.5,10.5,10.7,12.2,12.6
								c3.2,3.5,5.4,6.5,6.6,9c1.3,2.5,1.9,4.9,1.9,7.2c0,3.9-1.4,7-4.1,9.5c-2.7,2.4-6.3,3.7-10.6,3.7c-3.1,0-6.4-0.5-9.8-1.6
								c-3.4-1.1-7.1-2.7-11-4.9v10c4,1.6,7.7,2.8,11.1,3.6c3.5,0.8,6.6,1.2,9.5,1.2c7.6,0,13.6-1.9,18.1-5.7
								c4.5-3.8,6.7-8.8,6.7-15.1c0-3-0.6-5.8-1.7-8.5c-1.1-2.7-3.2-5.8-6.1-9.5c-0.8-0.9-3.4-3.7-7.8-8.2
								C33.3,22.7,27.1,16.4,19.2,8.3z"/>
						</g>
						<g>
							<path id="DejaVuSans-30_00000078725673974101989850000010340126771795508149_" d="M95.4,66.4c-5.1,0-8.9-2.5-11.5-7.5
								c-2.6-5-3.8-12.5-3.8-22.5c0-10,1.3-17.5,3.8-22.5c2.6-5,6.4-7.5,11.5-7.5c5.1,0,8.9,2.5,11.5,7.5c2.6,5,3.8,12.5,3.8,22.5
								c0,10-1.3,17.5-3.8,22.5C104.4,63.9,100.5,66.4,95.4,66.4z M95.4,74.2c8.2,0,14.4-3.2,18.7-9.7c4.3-6.5,6.5-15.8,6.5-28.1
								c0-12.3-2.2-21.6-6.5-28.1c-4.3-6.5-10.6-9.7-18.7-9.7c-8.2,0-14.4,3.2-18.7,9.7c-4.3,6.5-6.5,15.8-6.5,28.1
								c0,12.3,2.2,21.7,6.5,28.1C81,71,87.2,74.2,95.4,74.2z"/>
						</g>
						<g>
							<path id="DejaVuSans-30_00000116197569713638458310000011861418344575112112_" d="M159,66.4c-5.1,0-8.9-2.5-11.5-7.5
								c-2.6-5-3.8-12.5-3.8-22.5c0-10,1.3-17.5,3.8-22.5c2.6-5,6.4-7.5,11.5-7.5c5.1,0,8.9,2.5,11.5,7.5c2.6,5,3.8,12.5,3.8,22.5
								c0,10-1.3,17.5-3.8,22.5C168,63.9,164.1,66.4,159,66.4z M159,74.2c8.2,0,14.4-3.2,18.7-9.7c4.3-6.5,6.5-15.8,6.5-28.1
								c0-12.3-2.2-21.6-6.5-28.1c-4.3-6.5-10.6-9.7-18.7-9.7c-8.2,0-14.4,3.2-18.7,9.7c-4.3,6.5-6.5,15.8-6.5,28.1
								c0,12.3,2.2,21.7,6.5,28.1C144.6,71,150.9,74.2,159,74.2z"/>
						</g>
					</g>
				</g>
			</g>
			<g id="xtick_3">
				<g id="line2d_3">
					<g>
						<g>
							<path id="m31c8a4eded_00000171696587986836281820000004022690783763564989_" class="st26" d="M239.3,247.1v3.5"/>
						</g>
					</g>
				</g>
				<g id="text_3">
					<g transform="translate(227.866834 263.235625) scale(0.12 -0.12)">
						<g>
							<path id="DejaVuSans-32_00000134962691615172182100000005085071825088655283_" d="M19.2,8.3h34.4V0H7.3v8.3
								c3.7,3.9,8.8,9.1,15.3,15.6c6.5,6.5,10.5,10.7,12.2,12.6c3.2,3.5,5.4,6.5,6.6,9c1.3,2.5,1.9,4.9,1.9,7.2c0,3.9-1.4,7-4.1,9.5
								c-2.7,2.4-6.3,3.7-10.6,3.7c-3.1,0-6.4-0.5-9.8-1.6c-3.4-1.1-7.1-2.7-11-4.9v10c4,1.6,7.7,2.8,11.1,3.6
								c3.5,0.8,6.6,1.2,9.5,1.2c7.6,0,13.6-1.9,18.1-5.7c4.5-3.8,6.7-8.8,6.7-15.1c0-3-0.6-5.8-1.7-8.5c-1.1-2.7-3.2-5.8-6.1-9.5
								c-0.8-0.9-3.4-3.7-7.8-8.2C33.3,22.7,27.1,16.4,19.2,8.3z"/>
						</g>
						<g>
							<path id="DejaVuSans-35_00000101103282075340468140000003472042634086996891_" d="M74.4,72.9h38.7v-8.3H83.5V46.7
								c1.4,0.5,2.9,0.9,4.3,1.1c1.4,0.2,2.9,0.4,4.3,0.4c8.1,0,14.6-2.2,19.3-6.7c4.8-4.5,7.1-10.5,7.1-18.1
								c0-7.8-2.4-13.9-7.3-18.3c-4.9-4.3-11.8-6.5-20.7-6.5c-3.1,0-6.2,0.3-9.4,0.8c-3.2,0.5-6.4,1.3-9.8,2.3v9.9
								c2.9-1.6,6-2.8,9.1-3.6s6.4-1.2,9.9-1.2c5.6,0,10.1,1.5,13.4,4.4c3.3,3,4.9,7,4.9,12.1c0,5.1-1.6,9.1-4.9,12
								c-3.3,3-7.7,4.5-13.4,4.5c-2.6,0-5.3-0.3-7.9-0.9c-2.6-0.6-5.3-1.5-8-2.7V72.9z"/>
						</g>
						<g>
							<path id="DejaVuSans-30_00000070099123001007308070000010644328043920395666_" d="M159,66.4c-5.1,0-8.9-2.5-11.5-7.5
								c-2.6-5-3.8-12.5-3.8-22.5c0-10,1.3-17.5,3.8-22.5c2.6-5,6.4-7.5,11.5-7.5c5.1,0,8.9,2.5,11.5,7.5c2.6,5,3.8,12.5,3.8,22.5
								c0,10-1.3,17.5-3.8,22.5C168,63.9,164.1,66.4,159,66.4z M159,74.2c8.2,0,14.4-3.2,18.7-9.7c4.3-6.5,6.5-15.8,6.5-28.1
								c0-12.3-2.2-21.6-6.5-28.1c-4.3-6.5-10.6-9.7-18.7-9.7c-8.2,0-14.4,3.2-18.7,9.7c-4.3,6.5-6.5,15.8-6.5,28.1
								c0,12.3,2.2,21.7,6.5,28.1C144.6,71,150.9,74.2,159,74.2z"/>
						</g>
					</g>
				</g>
			</g>
			<g id="xtick_4">
				<g id="line2d_4">
					<g>
						<g>
							<path id="m31c8a4eded_00000165930101286370655340000012377818503551337345_" class="st26" d="M304.3,247.1v3.5"/>
						</g>
					</g>
				</g>
				<g id="text_4">
					<g transform="translate(292.801899 263.235625) scale(0.12 -0.12)">
						<g>
							<path id="DejaVuSans-33" d="M40.6,39.3c4.7-1,8.4-3.1,11-6.3c2.7-3.2,4-7.1,4-11.8c0-7.2-2.5-12.8-7.4-16.7
								c-4.9-3.9-12-5.9-21.1-5.9c-3.1,0-6.2,0.3-9.4,0.9S11.1,1,7.6,2.2v9.5c2.7-1.6,5.7-2.8,9-3.6c3.3-0.8,6.7-1.2,10.2-1.2
								c6.2,0,10.9,1.2,14.1,3.7s4.9,6,4.9,10.6c0,4.3-1.5,7.7-4.5,10.1c-3,2.4-7.2,3.6-12.6,3.6h-8.5V43h8.9c4.8,0,8.6,1,11.1,2.9
								s3.9,4.7,3.9,8.4c0,3.7-1.3,6.6-4,8.6c-2.6,2-6.4,3-11.4,3c-2.7,0-5.6-0.3-8.7-0.9c-3.1-0.6-6.5-1.5-10.2-2.7v8.8
								c3.8,1,7.3,1.8,10.5,2.3s6.4,0.8,9.2,0.8c7.5,0,13.4-1.7,17.8-5.1c4.4-3.4,6.5-8,6.5-13.8c0-4-1.2-7.5-3.5-10.2
								S44.8,40.4,40.6,39.3z"/>
						</g>
						<g>
							<path id="DejaVuSans-30_00000069391761859471594870000007949427944926391994_" d="M95.4,66.4c-5.1,0-8.9-2.5-11.5-7.5
								c-2.6-5-3.8-12.5-3.8-22.5c0-10,1.3-17.5,3.8-22.5c2.6-5,6.4-7.5,11.5-7.5c5.1,0,8.9,2.5,11.5,7.5c2.6,5,3.8,12.5,3.8,22.5
								c0,10-1.3,17.5-3.8,22.5C104.4,63.9,100.5,66.4,95.4,66.4z M95.4,74.2c8.2,0,14.4-3.2,18.7-9.7c4.3-6.5,6.5-15.8,6.5-28.1
								c0-12.3-2.2-21.6-6.5-28.1c-4.3-6.5-10.6-9.7-18.7-9.7c-8.2,0-14.4,3.2-18.7,9.7c-4.3,6.5-6.5,15.8-6.5,28.1
								c0,12.3,2.2,21.7,6.5,28.1C81,71,87.2,74.2,95.4,74.2z"/>
						</g>
						<g>
							<path id="DejaVuSans-30_00000093136919414477239360000018102655420530480059_" d="M159,66.4c-5.1,0-8.9-2.5-11.5-7.5
								c-2.6-5-3.8-12.5-3.8-22.5c0-10,1.3-17.5,3.8-22.5c2.6-5,6.4-7.5,11.5-7.5c5.1,0,8.9,2.5,11.5,7.5c2.6,5,3.8,12.5,3.8,22.5
								c0,10-1.3,17.5-3.8,22.5C168,63.9,164.1,66.4,159,66.4z M159,74.2c8.2,0,14.4-3.2,18.7-9.7c4.3-6.5,6.5-15.8,6.5-28.1
								c0-12.3-2.2-21.6-6.5-28.1c-4.3-6.5-10.6-9.7-18.7-9.7c-8.2,0-14.4,3.2-18.7,9.7c-4.3,6.5-6.5,15.8-6.5,28.1
								c0,12.3,2.2,21.7,6.5,28.1C144.6,71,150.9,74.2,159,74.2z"/>
						</g>
					</g>
				</g>
			</g>
			<g id="text_5">
				<g transform="translate(91.2975 281.88875) scale(0.16 -0.16)">
					<g>
						<path id="DejaVuSans-53" d="M53.5,70.5v-9.6c-3.7,1.8-7.3,3.1-10.6,4c-3.3,0.9-6.5,1.3-9.6,1.3c-5.4,0-9.5-1-12.4-3.1
							s-4.4-5-4.4-8.9c0-3.2,1-5.7,2.9-7.3c1.9-1.6,5.6-3,11-4l6-1.2c7.4-1.4,12.8-3.9,16.3-7.4s5.2-8.3,5.2-14.2
							c0-7.1-2.4-12.4-7.1-16.1C46.1,0.4,39.1-1.4,30-1.4c-3.4,0-7.1,0.4-11,1.2c-3.9,0.8-7.9,1.9-12.1,3.5v10.2
							c4-2.2,7.9-3.9,11.8-5.1c3.8-1.1,7.6-1.7,11.3-1.7c5.6,0,10,1.1,13,3.3c3.1,2.2,4.6,5.4,4.6,9.5c0,3.6-1.1,6.4-3.3,8.4
							s-5.8,3.5-10.8,4.5l-6,1.2c-7.4,1.5-12.7,3.8-16,6.9c-3.3,3.1-4.9,7.5-4.9,13c0,6.4,2.3,11.5,6.8,15.2s10.8,5.6,18.8,5.6
							c3.4,0,6.9-0.3,10.5-0.9C46.2,72.7,49.8,71.7,53.5,70.5z"/>
					</g>
					<g>
						<path id="DejaVuSans-69" d="M72.9,54.7h9V0h-9V54.7z M72.9,76h9V64.6h-9V76z"/>
					</g>
					<g>
						<path id="DejaVuSans-7a" d="M96.8,54.7h42.7v-8.2L105.7,7.2h33.8V0H95.6v8.2l33.8,39.3H96.8V54.7z"/>
					</g>
					<g>
						<path id="DejaVuSans-65" d="M200,29.6v-4.4h-41.3c0.4-6.2,2.3-10.9,5.6-14.1c3.3-3.2,8-4.9,13.9-4.9c3.4,0,6.8,0.4,10,1.3
							c3.2,0.8,6.5,2.1,9.7,3.8V2.8c-3.2-1.4-6.5-2.4-9.9-3.1c-3.4-0.7-6.8-1.1-10.3-1.1c-8.7,0-15.6,2.5-20.7,7.6
							c-5.1,5.1-7.6,12-7.6,20.6c0,8.9,2.4,16,7.2,21.3c4.8,5.3,11.4,7.9,19.6,7.9c7.4,0,13.2-2.4,17.5-7.1
							C197.8,44.2,200,37.7,200,29.6z M191,32.2c-0.1,4.9-1.4,8.8-4.1,11.8c-2.7,2.9-6.2,4.4-10.7,4.4c-5,0-9-1.4-12-4.2
							c-3-2.8-4.7-6.8-5.2-12L191,32.2z"/>
					</g>
					<g>
						<path id="DejaVuSans-20" d="M205.3,0"/>
					</g>
					<g>
						<path id="DejaVuSans-6f" d="M267.7,48.4c-4.8,0-8.6-1.9-11.4-5.6c-2.8-3.8-4.2-8.9-4.2-15.5s1.4-11.7,4.2-15.5
							c2.8-3.8,6.6-5.6,11.5-5.6c4.8,0,8.6,1.9,11.4,5.7c2.8,3.8,4.2,8.9,4.2,15.4c0,6.5-1.4,11.6-4.2,15.4
							C276.3,46.5,272.5,48.4,267.7,48.4z M267.7,56c7.8,0,13.9-2.5,18.4-7.6c4.5-5.1,6.7-12.1,6.7-21.1c0-8.9-2.2-16-6.7-21.1
							c-4.5-5.1-10.6-7.6-18.4-7.6c-7.8,0-14,2.5-18.4,7.6c-4.4,5.1-6.7,12.1-6.7,21.1c0,9,2.2,16,6.7,21.1
							C253.7,53.5,259.8,56,267.7,56z"/>
					</g>
					<g>
						<path id="DejaVuSans-66" d="M335.4,76v-7.5h-8.6c-3.2,0-5.5-0.7-6.7-2c-1.2-1.3-1.9-3.6-1.9-7v-4.8H333v-7h-14.8V0h-9v47.7
							h-8.6v7h8.6v3.8c0,6.1,1.4,10.5,4.2,13.3c2.8,2.8,7.3,4.2,13.5,4.2H335.4z"/>
					</g>
					<g>
						<path id="DejaVuSans-20_00000140700054566749610000000015442405648183347641_" d="M333.4,0"/>
					</g>
					<g>
						<path id="DejaVuSans-63" d="M414,52.6v-8.4c-2.5,1.4-5.1,2.5-7.6,3.2c-2.6,0.7-5.1,1-7.7,1c-5.8,0-10.4-1.8-13.6-5.5
							c-3.2-3.7-4.8-8.9-4.8-15.5s1.6-11.9,4.8-15.6c3.2-3.7,7.8-5.5,13.6-5.5c2.6,0,5.2,0.3,7.7,1c2.6,0.7,5.1,1.8,7.6,3.2V2.1
							c-2.5-1.2-5.1-2-7.8-2.6c-2.7-0.6-5.5-0.9-8.6-0.9c-8.2,0-14.8,2.6-19.6,7.8c-4.8,5.2-7.3,12.2-7.3,21c0,8.9,2.4,15.9,7.3,21
							c4.9,5.1,11.6,7.7,20.2,7.7c2.8,0,5.5-0.3,8.1-0.9C409,54.6,411.5,53.7,414,52.6z"/>
					</g>
					<g>
						<path id="DejaVuSans-6f_00000085233316959400212400000015508854327389491882_" d="M450.8,48.4c-4.8,0-8.6-1.9-11.4-5.6
							c-2.8-3.8-4.2-8.9-4.2-15.5s1.4-11.7,4.2-15.5c2.8-3.8,6.6-5.6,11.5-5.6c4.8,0,8.6,1.9,11.4,5.7c2.8,3.8,4.2,8.9,4.2,15.4
							c0,6.5-1.4,11.6-4.2,15.4C459.4,46.5,455.6,48.4,450.8,48.4z M450.8,56c7.8,0,13.9-2.5,18.4-7.6c4.5-5.1,6.7-12.1,6.7-21.1
							c0-8.9-2.2-16-6.7-21.1c-4.5-5.1-10.6-7.6-18.4-7.6c-7.8,0-14,2.5-18.4,7.6c-4.4,5.1-6.7,12.1-6.7,21.1c0,9,2.2,16,6.7,21.1
							C436.8,53.5,443,56,450.8,56z"/>
					</g>
					<g>
						<path id="DejaVuSans-6c" d="M490.8,76h9V0h-9V76z"/>
					</g>
					<g>
						<path id="DejaVuSans-6f_00000121966292149778495170000004065315885128811139_" d="M539.8,48.4c-4.8,0-8.6-1.9-11.4-5.6
							c-2.8-3.8-4.2-8.9-4.2-15.5s1.4-11.7,4.2-15.5c2.8-3.8,6.6-5.6,11.5-5.6c4.8,0,8.6,1.9,11.4,5.7c2.8,3.8,4.2,8.9,4.2,15.4
							c0,6.5-1.4,11.6-4.2,15.4C548.4,46.5,544.6,48.4,539.8,48.4z M539.8,56c7.8,0,13.9-2.5,18.4-7.6c4.5-5.1,6.7-12.1,6.7-21.1
							c0-8.9-2.2-16-6.7-21.1c-4.5-5.1-10.6-7.6-18.4-7.6c-7.8,0-14,2.5-18.4,7.6c-4.4,5.1-6.7,12.1-6.7,21.1c0,9,2.2,16,6.7,21.1
							C525.8,53.5,531.9,56,539.8,56z"/>
					</g>
					<g>
						<path id="DejaVuSans-63_00000064320476081885827930000001735607233884976571_" d="M619.1,52.6v-8.4c-2.5,1.4-5.1,2.5-7.6,3.2
							c-2.6,0.7-5.1,1-7.7,1c-5.8,0-10.4-1.8-13.6-5.5c-3.2-3.7-4.8-8.9-4.8-15.5s1.6-11.9,4.8-15.6c3.2-3.7,7.8-5.5,13.6-5.5
							c2.6,0,5.2,0.3,7.7,1c2.6,0.7,5.1,1.8,7.6,3.2V2.1c-2.5-1.2-5.1-2-7.8-2.6c-2.7-0.6-5.5-0.9-8.6-0.9c-8.2,0-14.8,2.6-19.6,7.8
							c-4.8,5.2-7.3,12.2-7.3,21c0,8.9,2.4,15.9,7.3,21c4.9,5.1,11.6,7.7,20.2,7.7c2.8,0,5.5-0.3,8.1-0.9
							C614.1,54.6,616.7,53.7,619.1,52.6z"/>
					</g>
					<g>
						<path id="DejaVuSans-61" d="M659.6,27.5c-7.3,0-12.3-0.8-15.1-2.5c-2.8-1.7-4.2-4.5-4.2-8.5c0-3.2,1.1-5.7,3.2-7.6
							c2.1-1.9,5-2.8,8.6-2.8c5,0,9,1.8,12,5.3c3,3.5,4.5,8.2,4.5,14.1v2H659.6z M677.5,31.2V0h-9v8.3C666.5,5,664,2.5,660.9,1
							s-6.8-2.4-11.2-2.4c-5.6,0-10,1.6-13.4,4.7c-3.3,3.1-5,7.4-5,12.6c0,6.1,2.1,10.8,6.2,13.9c4.1,3.1,10.3,4.7,18.4,4.7h12.6
							v0.9c0,4.1-1.4,7.3-4.1,9.6s-6.5,3.4-11.5,3.4c-3.1,0-6.2-0.4-9.1-1.1c-3-0.8-5.8-1.9-8.5-3.4v8.3c3.3,1.3,6.5,2.2,9.6,2.8
							c3.1,0.6,6.1,1,9,1c7.9,0,13.8-2.1,17.7-6.2C675.6,45.7,677.5,39.5,677.5,31.2z"/>
					</g>
					<g>
						<path id="DejaVuSans-6c_00000031915476782653467020000005961383421981920930_" d="M696,76h9V0h-9V76z"/>
					</g>
					<g>
						<path id="DejaVuSans-69_00000111885132730486171870000001781586353207689383_" d="M723.8,54.7h9V0h-9V54.7z M723.8,76h9V64.6
							h-9V76z"/>
					</g>
					<g>
						<path id="DejaVuSans-7a_00000135663576228581257160000005000195650896002988_" d="M747.7,54.7h42.7v-8.2L756.6,7.2h33.8V0
							h-43.9v8.2l33.8,39.3h-32.6V54.7z"/>
					</g>
					<g>
						<path id="DejaVuSans-65_00000164489044150569089770000008075039131345655212_" d="M850.9,29.6v-4.4h-41.3
							c0.4-6.2,2.3-10.9,5.6-14.1c3.3-3.2,8-4.9,13.9-4.9c3.4,0,6.8,0.4,10,1.3c3.2,0.8,6.5,2.1,9.7,3.8V2.8
							c-3.2-1.4-6.5-2.4-9.9-3.1c-3.4-0.7-6.8-1.1-10.3-1.1c-8.7,0-15.6,2.5-20.7,7.6c-5.1,5.1-7.6,12-7.6,20.6
							c0,8.9,2.4,16,7.2,21.3c4.8,5.3,11.4,7.9,19.6,7.9c7.4,0,13.2-2.4,17.5-7.1C848.7,44.2,850.9,37.7,850.9,29.6z M841.9,32.2
							c-0.1,4.9-1.4,8.8-4.1,11.8c-2.7,2.9-6.2,4.4-10.7,4.4c-5,0-9-1.4-12-4.2c-3-2.8-4.7-6.8-5.2-12L841.9,32.2z"/>
					</g>
					<g>
						<path id="DejaVuSans-64" d="M901.6,46.4V76h9V0h-9v8.2c-1.9-3.2-4.3-5.7-7.2-7.2c-2.9-1.6-6.3-2.4-10.4-2.4
							c-6.6,0-12,2.6-16.1,7.9c-4.1,5.3-6.2,12.2-6.2,20.8s2.1,15.5,6.2,20.8c4.2,5.3,9.5,7.9,16.1,7.9c4,0,7.5-0.8,10.4-2.4
							C897.3,52.1,899.7,49.6,901.6,46.4z M871,27.3c0-6.6,1.4-11.8,4.1-15.5s6.5-5.6,11.2-5.6s8.5,1.9,11.2,5.6
							c2.7,3.8,4.1,8.9,4.1,15.5s-1.4,11.8-4.1,15.5c-2.7,3.8-6.5,5.6-11.2,5.6s-8.5-1.9-11.2-5.6S871,33.9,871,27.3z"/>
					</g>
					<g>
						<path id="DejaVuSans-20_00000128450943102307725520000001895734522865342397_" d="M919.7,0"/>
					</g>
					<g>
						<path id="DejaVuSans-6e" d="M1006.4,33V0h-9v32.7c0,5.2-1,9-3,11.6c-2,2.6-5,3.9-9.1,3.9c-4.9,0-8.7-1.5-11.5-4.6
							c-2.8-3.1-4.2-7.3-4.2-12.6V0h-9v54.7h9v-8.5c2.2,3.3,4.7,5.8,7.6,7.4c2.9,1.6,6.3,2.4,10.1,2.4c6.3,0,11-1.9,14.2-5.8
							C1004.7,46.3,1006.4,40.6,1006.4,33z"/>
					</g>
					<g>
						<path id="DejaVuSans-65_00000083060210943317533550000006549307290514791297_" d="M1071,29.6v-4.4h-41.3
							c0.4-6.2,2.3-10.9,5.6-14.1c3.3-3.2,8-4.9,13.9-4.9c3.4,0,6.8,0.4,10,1.3c3.2,0.8,6.5,2.1,9.7,3.8V2.8
							c-3.2-1.4-6.5-2.4-9.9-3.1c-3.4-0.7-6.8-1.1-10.3-1.1c-8.7,0-15.6,2.5-20.7,7.6c-5.1,5.1-7.6,12-7.6,20.6
							c0,8.9,2.4,16,7.2,21.3c4.8,5.3,11.4,7.9,19.6,7.9c7.4,0,13.2-2.4,17.5-7.1C1068.9,44.2,1071,37.7,1071,29.6z M1062.1,32.2
							c-0.1,4.9-1.4,8.8-4.1,11.8c-2.7,2.9-6.2,4.4-10.7,4.4c-5,0-9-1.4-12-4.2c-3-2.8-4.7-6.8-5.2-12L1062.1,32.2z"/>
					</g>
					<g>
						<path id="DejaVuSans-74" d="M1094.7,70.2V54.7h18.5v-7h-18.5V18c0-4.5,0.6-7.3,1.8-8.6s3.7-1.9,7.5-1.9h9.2V0h-9.2
							c-6.9,0-11.7,1.3-14.4,3.9c-2.6,2.6-4,7.3-4,14.1v29.7h-6.6v7h6.6v15.5H1094.7z"/>
					</g>
					<g>
						<path id="DejaVuSans-77" d="M1119.8,54.7h9L1140,12l11.2,42.7h10.6L1173,12l11.2,42.7h9L1178.9,0h-10.6l-11.8,44.8L1144.7,0
							h-10.6L1119.8,54.7z"/>
					</g>
					<g>
						<path id="DejaVuSans-6f_00000039097754623361806770000000366380594868128953_" d="M1228,48.4c-4.8,0-8.6-1.9-11.4-5.6
							c-2.8-3.8-4.2-8.9-4.2-15.5s1.4-11.7,4.2-15.5c2.8-3.8,6.6-5.6,11.5-5.6c4.8,0,8.6,1.9,11.4,5.7c2.8,3.8,4.2,8.9,4.2,15.4
							c0,6.5-1.4,11.6-4.2,15.4C1236.6,46.5,1232.8,48.4,1228,48.4z M1228,56c7.8,0,13.9-2.5,18.4-7.6c4.5-5.1,6.7-12.1,6.7-21.1
							c0-8.9-2.2-16-6.7-21.1c-4.5-5.1-10.6-7.6-18.4-7.6c-7.8,0-14,2.5-18.4,7.6c-4.4,5.1-6.7,12.1-6.7,21.1c0,9,2.2,16,6.7,21.1
							C1214,53.5,1220.1,56,1228,56z"/>
					</g>
					<g>
						<path id="DejaVuSans-72" d="M1299.7,46.3c-1,0.6-2.1,1-3.3,1.3c-1.2,0.3-2.5,0.4-3.9,0.4c-5.1,0-9-1.7-11.7-5s-4.1-8-4.1-14.2
							V0h-9v54.7h9v-8.5c1.9,3.3,4.4,5.8,7.4,7.4c3,1.6,6.7,2.4,11,2.4c0.6,0,1.3,0,2-0.1c0.8-0.1,1.6-0.2,2.5-0.4L1299.7,46.3z"/>
					</g>
					<g>
						<path id="DejaVuSans-6b" d="M1308.7,76h9V31.1l26.8,23.6h11.5l-29-25.6L1357.3,0h-11.7l-27.8,26.7V0h-9V76z"/>
					</g>
				</g>
			</g>
		</g>
		<g id="matplotlib.axis_2">
			<g id="ytick_1">
				<g id="line2d_5">
					<g>
						<g>
							<path id="m8d10a3f34c" class="st26" d="M60.4,247.1h-3.5"/>
						</g>
					</g>
				</g>
				<g id="text_6">
					<g transform="translate(26.685 251.676563) scale(0.12 -0.12)">
						<g>
							<path id="DejaVuSans-30_00000160156332703338254890000015019052182735829938_" d="M31.8,66.4c-5.1,0-8.9-2.5-11.5-7.5
								c-2.6-5-3.8-12.5-3.8-22.5c0-10,1.3-17.5,3.8-22.5c2.6-5,6.4-7.5,11.5-7.5c5.1,0,8.9,2.5,11.5,7.5c2.6,5,3.8,12.5,3.8,22.5
								c0,10-1.3,17.5-3.8,22.5C40.7,63.9,36.9,66.4,31.8,66.4z M31.8,74.2c8.2,0,14.4-3.2,18.7-9.7c4.3-6.5,6.5-15.8,6.5-28.1
								c0-12.3-2.2-21.6-6.5-28.1C46.2,1.8,40-1.4,31.8-1.4c-8.2,0-14.4,3.2-18.7,9.7c-4.3,6.5-6.5,15.8-6.5,28.1
								c0,12.3,2.2,21.7,6.5,28.1C17.4,71,23.6,74.2,31.8,74.2z"/>
						</g>
						<g>
							<path id="DejaVuSans-2e" d="M74.3,12.4h10.3V0H74.3V12.4z"/>
						</g>
						<g>
							<path id="DejaVuSans-30_00000169518403970482751990000007515221552992894397_" d="M127.2,66.4c-5.1,0-8.9-2.5-11.5-7.5
								c-2.6-5-3.8-12.5-3.8-22.5c0-10,1.3-17.5,3.8-22.5c2.6-5,6.4-7.5,11.5-7.5c5.1,0,8.9,2.5,11.5,7.5c2.6,5,3.8,12.5,3.8,22.5
								c0,10-1.3,17.5-3.8,22.5C136.1,63.9,132.3,66.4,127.2,66.4z M127.2,74.2c8.2,0,14.4-3.2,18.7-9.7c4.3-6.5,6.5-15.8,6.5-28.1
								c0-12.3-2.2-21.6-6.5-28.1c-4.3-6.5-10.6-9.7-18.7-9.7c-8.2,0-14.4,3.2-18.7,9.7c-4.3,6.5-6.5,15.8-6.5,28.1
								c0,12.3,2.2,21.7,6.5,28.1C112.8,71,119,74.2,127.2,74.2z"/>
						</g>
						<g>
							<path id="DejaVuSans-30_00000047739924419147190190000007784939429668577157_" d="M190.8,66.4c-5.1,0-8.9-2.5-11.5-7.5
								c-2.6-5-3.8-12.5-3.8-22.5c0-10,1.3-17.5,3.8-22.5c2.6-5,6.4-7.5,11.5-7.5c5.1,0,8.9,2.5,11.5,7.5c2.6,5,3.8,12.5,3.8,22.5
								c0,10-1.3,17.5-3.8,22.5C199.8,63.9,195.9,66.4,190.8,66.4z M190.8,74.2c8.2,0,14.4-3.2,18.7-9.7c4.3-6.5,6.5-15.8,6.5-28.1
								c0-12.3-2.2-21.6-6.5-28.1c-4.3-6.5-10.6-9.7-18.7-9.7c-8.2,0-14.4,3.2-18.7,9.7c-4.3,6.5-6.5,15.8-6.5,28.1
								c0,12.3,2.2,21.7,6.5,28.1C176.4,71,182.6,74.2,190.8,74.2z"/>
						</g>
					</g>
				</g>
			</g>
			<g id="ytick_2">
				<g id="line2d_6">
					<g>
						<g>
							<path id="m8d10a3f34c_00000071542641151737377850000009153699538814763165_" class="st26" d="M60.4,186.5h-3.5"/>
						</g>
					</g>
				</g>
				<g id="text_7">
					<g transform="translate(26.685 191.071345) scale(0.12 -0.12)">
						<g>
							<path id="DejaVuSans-30_00000134957005228895726320000000940782370173087618_" d="M31.8,66.4c-5.1,0-8.9-2.5-11.5-7.5
								c-2.6-5-3.8-12.5-3.8-22.5c0-10,1.3-17.5,3.8-22.5c2.6-5,6.4-7.5,11.5-7.5c5.1,0,8.9,2.5,11.5,7.5c2.6,5,3.8,12.5,3.8,22.5
								c0,10-1.3,17.5-3.8,22.5C40.7,63.9,36.9,66.4,31.8,66.4z M31.8,74.2c8.2,0,14.4-3.2,18.7-9.7c4.3-6.5,6.5-15.8,6.5-28.1
								c0-12.3-2.2-21.6-6.5-28.1C46.2,1.8,40-1.4,31.8-1.4c-8.2,0-14.4,3.2-18.7,9.7c-4.3,6.5-6.5,15.8-6.5,28.1
								c0,12.3,2.2,21.7,6.5,28.1C17.4,71,23.6,74.2,31.8,74.2z"/>
						</g>
						<g>
							<path id="DejaVuSans-2e_00000095332612227326601490000010929267784998559165_" d="M74.3,12.4h10.3V0H74.3V12.4z"/>
						</g>
						<g>
							<path id="DejaVuSans-30_00000050648376936018158000000016140301610098399373_" d="M127.2,66.4c-5.1,0-8.9-2.5-11.5-7.5
								c-2.6-5-3.8-12.5-3.8-22.5c0-10,1.3-17.5,3.8-22.5c2.6-5,6.4-7.5,11.5-7.5c5.1,0,8.9,2.5,11.5,7.5c2.6,5,3.8,12.5,3.8,22.5
								c0,10-1.3,17.5-3.8,22.5C136.1,63.9,132.3,66.4,127.2,66.4z M127.2,74.2c8.2,0,14.4-3.2,18.7-9.7c4.3-6.5,6.5-15.8,6.5-28.1
								c0-12.3-2.2-21.6-6.5-28.1c-4.3-6.5-10.6-9.7-18.7-9.7c-8.2,0-14.4,3.2-18.7,9.7c-4.3,6.5-6.5,15.8-6.5,28.1
								c0,12.3,2.2,21.7,6.5,28.1C112.8,71,119,74.2,127.2,74.2z"/>
						</g>
						<g>
							<path id="DejaVuSans-31_00000155826599374117111750000013529957663531092880_" d="M171.4,8.3h16.1v55.6L170,60.4v9l17.4,3.5
								h9.9V8.3h16.1V0h-42V8.3z"/>
						</g>
					</g>
				</g>
			</g>
			<g id="ytick_3">
				<g id="line2d_7">
					<g>
						<g>
							<path id="m8d10a3f34c_00000134229055775890250290000009631594706919737516_" class="st26" d="M60.4,125.9h-3.5"/>
						</g>
					</g>
				</g>
				<g id="text_8">
					<g transform="translate(26.685 130.466128) scale(0.12 -0.12)">
						<g>
							<path id="DejaVuSans-30_00000109751963205969343270000007214232418616387738_" d="M31.8,66.4c-5.1,0-8.9-2.5-11.5-7.5
								c-2.6-5-3.8-12.5-3.8-22.5c0-10,1.3-17.5,3.8-22.5c2.6-5,6.4-7.5,11.5-7.5c5.1,0,8.9,2.5,11.5,7.5c2.6,5,3.8,12.5,3.8,22.5
								c0,10-1.3,17.5-3.8,22.5C40.7,63.9,36.9,66.4,31.8,66.4z M31.8,74.2c8.2,0,14.4-3.2,18.7-9.7c4.3-6.5,6.5-15.8,6.5-28.1
								c0-12.3-2.2-21.6-6.5-28.1C46.2,1.8,40-1.4,31.8-1.4c-8.2,0-14.4,3.2-18.7,9.7c-4.3,6.5-6.5,15.8-6.5,28.1
								c0,12.3,2.2,21.7,6.5,28.1C17.4,71,23.6,74.2,31.8,74.2z"/>
						</g>
						<g>
							<path id="DejaVuSans-2e_00000152982685138839300980000006254585041750843032_" d="M74.3,12.4h10.3V0H74.3V12.4z"/>
						</g>
						<g>
							<path id="DejaVuSans-30_00000083055088761663835610000002748087526077523385_" d="M127.2,66.4c-5.1,0-8.9-2.5-11.5-7.5
								c-2.6-5-3.8-12.5-3.8-22.5c0-10,1.3-17.5,3.8-22.5c2.6-5,6.4-7.5,11.5-7.5c5.1,0,8.9,2.5,11.5,7.5c2.6,5,3.8,12.5,3.8,22.5
								c0,10-1.3,17.5-3.8,22.5C136.1,63.9,132.3,66.4,127.2,66.4z M127.2,74.2c8.2,0,14.4-3.2,18.7-9.7c4.3-6.5,6.5-15.8,6.5-28.1
								c0-12.3-2.2-21.6-6.5-28.1c-4.3-6.5-10.6-9.7-18.7-9.7c-8.2,0-14.4,3.2-18.7,9.7c-4.3,6.5-6.5,15.8-6.5,28.1
								c0,12.3,2.2,21.7,6.5,28.1C112.8,71,119,74.2,127.2,74.2z"/>
						</g>
						<g>
							<path id="DejaVuSans-32_00000059305030432803395220000015492889291172992686_" d="M178.2,8.3h34.4V0h-46.3v8.3
								c3.7,3.9,8.8,9.1,15.3,15.6c6.5,6.5,10.5,10.7,12.2,12.6c3.2,3.5,5.4,6.5,6.6,9c1.3,2.5,1.9,4.9,1.9,7.2c0,3.9-1.4,7-4.1,9.5
								c-2.7,2.4-6.3,3.7-10.6,3.7c-3.1,0-6.4-0.5-9.8-1.6c-3.4-1.1-7.1-2.7-11-4.9v10c4,1.6,7.7,2.8,11.1,3.6
								c3.5,0.8,6.6,1.2,9.5,1.2c7.6,0,13.6-1.9,18.1-5.7c4.5-3.8,6.7-8.8,6.7-15.1c0-3-0.6-5.8-1.7-8.5c-1.1-2.7-3.2-5.8-6.1-9.5
								c-0.8-0.9-3.4-3.7-7.8-8.2C192.3,22.7,186.2,16.4,178.2,8.3z"/>
						</g>
					</g>
				</g>
			</g>
			<g id="ytick_4">
				<g id="line2d_8">
					<g>
						<g>
							<path id="m8d10a3f34c_00000074423738982500118300000002404424632201966760_" class="st26" d="M60.4,65.3h-3.5"/>
						</g>
					</g>
				</g>
				<g id="text_9">
					<g transform="translate(26.685 69.86091) scale(0.12 -0.12)">
						<g>
							<path id="DejaVuSans-30_00000183952564329997537870000000183691171396832386_" d="M31.8,66.4c-5.1,0-8.9-2.5-11.5-7.5
								c-2.6-5-3.8-12.5-3.8-22.5c0-10,1.3-17.5,3.8-22.5c2.6-5,6.4-7.5,11.5-7.5c5.1,0,8.9,2.5,11.5,7.5c2.6,5,3.8,12.5,3.8,22.5
								c0,10-1.3,17.5-3.8,22.5C40.7,63.9,36.9,66.4,31.8,66.4z M31.8,74.2c8.2,0,14.4-3.2,18.7-9.7c4.3-6.5,6.5-15.8,6.5-28.1
								c0-12.3-2.2-21.6-6.5-28.1C46.2,1.8,40-1.4,31.8-1.4c-8.2,0-14.4,3.2-18.7,9.7c-4.3,6.5-6.5,15.8-6.5,28.1
								c0,12.3,2.2,21.7,6.5,28.1C17.4,71,23.6,74.2,31.8,74.2z"/>
						</g>
						<g>
							<path id="DejaVuSans-2e_00000134934267256609938940000009749858252176407444_" d="M74.3,12.4h10.3V0H74.3V12.4z"/>
						</g>
						<g>
							<path id="DejaVuSans-30_00000101088398680330431610000017607125886871130284_" d="M127.2,66.4c-5.1,0-8.9-2.5-11.5-7.5
								c-2.6-5-3.8-12.5-3.8-22.5c0-10,1.3-17.5,3.8-22.5c2.6-5,6.4-7.5,11.5-7.5c5.1,0,8.9,2.5,11.5,7.5c2.6,5,3.8,12.5,3.8,22.5
								c0,10-1.3,17.5-3.8,22.5C136.1,63.9,132.3,66.4,127.2,66.4z M127.2,74.2c8.2,0,14.4-3.2,18.7-9.7c4.3-6.5,6.5-15.8,6.5-28.1
								c0-12.3-2.2-21.6-6.5-28.1c-4.3-6.5-10.6-9.7-18.7-9.7c-8.2,0-14.4,3.2-18.7,9.7c-4.3,6.5-6.5,15.8-6.5,28.1
								c0,12.3,2.2,21.7,6.5,28.1C112.8,71,119,74.2,127.2,74.2z"/>
						</g>
						<g>
							<path id="DejaVuSans-33_00000160157336652741855420000016424451874074423446_" d="M199.6,39.3c4.7-1,8.4-3.1,11-6.3
								c2.7-3.2,4-7.1,4-11.8c0-7.2-2.5-12.8-7.4-16.7c-4.9-3.9-12-5.9-21.1-5.9c-3.1,0-6.2,0.3-9.4,0.9s-6.6,1.5-10,2.7v9.5
								c2.7-1.6,5.7-2.8,9-3.6c3.3-0.8,6.7-1.2,10.2-1.2c6.2,0,10.9,1.2,14.1,3.7s4.9,6,4.9,10.6c0,4.3-1.5,7.7-4.5,10.1
								c-3,2.4-7.2,3.6-12.6,3.6h-8.5V43h8.9c4.8,0,8.6,1,11.1,2.9s3.9,4.7,3.9,8.4c0,3.7-1.3,6.6-4,8.6c-2.6,2-6.4,3-11.4,3
								c-2.7,0-5.6-0.3-8.7-0.9c-3.1-0.6-6.5-1.5-10.2-2.7v8.8c3.8,1,7.3,1.8,10.5,2.3s6.4,0.8,9.2,0.8c7.5,0,13.4-1.7,17.8-5.1
								c4.4-3.4,6.5-8,6.5-13.8c0-4-1.2-7.5-3.5-10.2S203.9,40.4,199.6,39.3z"/>
						</g>
					</g>
				</g>
			</g>
			<g id="text_10">
				<g transform="translate(19.3575 166.65125) rotate(-90) scale(0.16 -0.16)">
					<g>
						<path id="DejaVuSans-44" d="M19.7,64.8V8.1h11.9c10.1,0,17.4,2.3,22.1,6.8c4.7,4.6,7,11.8,7,21.6c0,9.8-2.3,16.9-7,21.5
							s-12,6.8-22.1,6.8H19.7z M9.8,72.9h20.3c14.1,0,24.5-2.9,31.1-8.8c6.6-5.9,9.9-15.1,9.9-27.6c0-12.6-3.3-21.8-10-27.7
							c-6.6-5.9-17-8.8-31-8.8H9.8V72.9z"/>
					</g>
					<g>
						<path id="DejaVuSans-65_00000016053526934722093270000008459917462045916056_" d="M133.2,29.6v-4.4H91.9
							c0.4-6.2,2.3-10.9,5.6-14.1c3.3-3.2,8-4.9,13.9-4.9c3.4,0,6.8,0.4,10,1.3c3.2,0.8,6.5,2.1,9.7,3.8V2.8
							c-3.2-1.4-6.5-2.4-9.9-3.1c-3.4-0.7-6.8-1.1-10.3-1.1c-8.7,0-15.6,2.5-20.7,7.6c-5.1,5.1-7.6,12-7.6,20.6
							c0,8.9,2.4,16,7.2,21.3c4.8,5.3,11.4,7.9,19.6,7.9c7.4,0,13.2-2.4,17.5-7.1C131.1,44.2,133.2,37.7,133.2,29.6z M124.2,32.2
							c-0.1,4.9-1.4,8.8-4.1,11.8c-2.7,2.9-6.2,4.4-10.7,4.4c-5,0-9-1.4-12-4.2c-3-2.8-4.7-6.8-5.2-12L124.2,32.2z"/>
					</g>
					<g>
						<path id="DejaVuSans-6e_00000072989302305984499520000011923814711592413870_" d="M193.4,33V0h-9v32.7c0,5.2-1,9-3,11.6
							c-2,2.6-5,3.9-9.1,3.9c-4.9,0-8.7-1.5-11.5-4.6c-2.8-3.1-4.2-7.3-4.2-12.6V0h-9v54.7h9v-8.5c2.2,3.3,4.7,5.8,7.6,7.4
							c2.9,1.6,6.3,2.4,10.1,2.4c6.3,0,11-1.9,14.2-5.8C191.8,46.3,193.4,40.6,193.4,33z"/>
					</g>
					<g>
						<path id="DejaVuSans-73" d="M246.2,53.1v-8.5c-2.5,1.3-5.2,2.3-7.9,2.9c-2.7,0.7-5.6,1-8.5,1c-4.5,0-7.8-0.7-10-2
							c-2.2-1.4-3.3-3.4-3.3-6.2c0-2.1,0.8-3.7,2.4-4.9s4.8-2.3,9.6-3.4l3.1-0.7c6.4-1.4,10.9-3.3,13.6-5.8s4-6,4-10.4
							c0-5.1-2-9.1-6-12.1c-4-3-9.5-4.4-16.6-4.4c-2.9,0-6,0.3-9.2,0.9c-3.2,0.6-6.5,1.4-10,2.6v9.3c3.3-1.7,6.6-3,9.8-3.9
							c3.2-0.9,6.4-1.3,9.6-1.3c4.2,0,7.5,0.7,9.8,2.2c2.3,1.4,3.4,3.5,3.4,6.1c0,2.4-0.8,4.3-2.5,5.6c-1.6,1.3-5.2,2.6-10.8,3.8
							l-3.1,0.7c-5.6,1.2-9.6,3-12.1,5.4c-2.5,2.4-3.7,5.8-3.7,10c0,5.1,1.8,9.1,5.5,11.9c3.6,2.8,8.8,4.2,15.5,4.2
							c3.3,0,6.4-0.2,9.4-0.7C241,54.8,243.7,54.1,246.2,53.1z"/>
					</g>
					<g>
						<path id="DejaVuSans-69_00000073001677442035457250000004314451310932695708_" d="M263.4,54.7h9V0h-9V54.7z M263.4,76h9V64.6
							h-9V76z"/>
					</g>
					<g>
						<path id="DejaVuSans-74_00000160158239453862779240000003325899756651587003_" d="M300.1,70.2V54.7h18.5v-7h-18.5V18
							c0-4.5,0.6-7.3,1.8-8.6s3.7-1.9,7.5-1.9h9.2V0h-9.2c-6.9,0-11.7,1.3-14.4,3.9c-2.6,2.6-4,7.3-4,14.1v29.7h-6.6v7h6.6v15.5
							H300.1z"/>
					</g>
					<g>
						<path id="DejaVuSans-79" d="M353.2-5.1c-2.5-6.5-5-10.8-7.4-12.7c-2.4-2-5.6-3-9.7-3h-7.2v7.5h5.3c2.5,0,4.4,0.6,5.8,1.8
							c1.4,1.2,2.9,3.9,4.5,8.3l1.6,4.1L324,54.7h9.5l17.1-42.8l17.1,42.8h9.5L353.2-5.1z"/>
					</g>
				</g>
			</g>
		</g>
		<g id="line2d_9">
			<g>
				<defs>
					<rect id="SVGID_00000183929685798668552590000009444874129376035741_" x="60.4" y="25.4" width="279" height="221.8"/>
				</defs>
				<clipPath id="SVGID_00000025412064176154171010000005864738183822683798_">
					<use xlink:href="#SVGID_00000183929685798668552590000009444874129376035741_"  style="overflow:visible;"/>
				</clipPath>
				
					<path style="clip-path:url(#SVGID_00000025412064176154171010000005864738183822683798_);fill:none;stroke:#CCCCCC;stroke-width:1.5;stroke-linecap:square;stroke-linejoin:round;" d="
					M73.1,247l6.5-0.1l8.4-0.9l1.3-0.4l1.3-0.6l1.3-0.9l1.3-1.3l1.9-2.4l1.9-2.7l1.9-3.2l1.3-2.6l1.3-3.2l1.3-4.1l1.3-5.2l1.9-9.3
					l2.6-12.8l2.6-12.6l1.3-7.6l1.3-8.9l2.6-20.1l5.8-45.4l1.9-12.2l1.9-12.3l3.9-26.5l1.3-6.9l0.6-2.6l0.6-1.8l0.6-1.1l0.6-0.3
					l0.6,0.3l0.6,0.9l0.6,1.2l1.3,3.2l1.3,4.1l1.3,5.1l1.3,6.2l1.3,7.3l1.9,12.5l3.2,22.8l11.6,85.6l1.3,7.7l1.3,6.4l1.3,5.1
					l1.3,4.2l3.2,9.1l2.6,6.9l2.6,6.3l1.9,4.1l1.3,2.2l1.3,1.8l1.3,1.3l1.3,0.9l1.3,0.6l1.9,0.7l1.9,0.4l2.6,0.3l3.2,0.2l11,0.2l0,0
					"/>
			</g>
		</g>
		<g id="patch_28">
			<path class="st28" d="M60.4,247.1V25.4"/>
		</g>
		<g id="patch_29">
			<path class="st28" d="M339.4,247.1V25.4"/>
		</g>
		<g id="patch_30">
			<path class="st28" d="M60.4,247.1h279"/>
		</g>
		<g id="patch_31">
			<path class="st28" d="M60.4,25.4h279"/>
		</g>
		<g id="text_11">
			<g transform="translate(72.275 19.3575) scale(0.16 -0.16)">
				<g>
					<path id="DejaVuSans-20_00000060745971063715376660000010030834914539170969_" class="st29" d="M0,0"/>
				</g>
				<g>
					<path id="DejaVuSans-28" d="M62.8,75.9c-4.4-7.5-7.6-14.9-9.7-22.2c-2.1-7.3-3.2-14.7-3.2-22.3c0-7.5,1.1-15,3.2-22.3
						c2.1-7.4,5.4-14.8,9.7-22.2H55C50.1-5.5,46.4,2,44,9.4s-3.6,14.7-3.6,22c0,7.3,1.2,14.6,3.6,21.9c2.4,7.4,6.1,14.9,11,22.6
						H62.8z"/>
				</g>
				<g>
					<path id="DejaVuSans-70" d="M88.9,8.2v-29h-9v75.5h9v-8.3c1.9,3.2,4.3,5.7,7.2,7.2c2.9,1.6,6.3,2.4,10.3,2.4
						c6.6,0,12-2.6,16.2-7.9c4.2-5.3,6.2-12.2,6.2-20.8s-2.1-15.5-6.2-20.8c-4.1-5.3-9.5-7.9-16.2-7.9c-4,0-7.4,0.8-10.3,2.4
						C93.2,2.5,90.8,5,88.9,8.2z M119.5,27.3c0,6.6-1.4,11.8-4.1,15.5s-6.5,5.6-11.2,5.6c-4.8,0-8.5-1.9-11.2-5.6s-4.1-8.9-4.1-15.5
						s1.4-11.8,4.1-15.5s6.5-5.6,11.2-5.6c4.8,0,8.5,1.9,11.2,5.6S119.5,20.7,119.5,27.3z"/>
				</g>
				<g>
					<path id="DejaVuSans-3d" d="M144.9,45.4h62.6v-8.2h-62.6V45.4z M144.9,25.5h62.6v-8.3h-62.6V25.5z"/>
				</g>
				<g>
					<path id="DejaVuSans-31_00000039117344082304177350000008130261720536515003_" d="M230.5,8.3h16.1v55.6l-17.5-3.5v9l17.4,3.5
						h9.9V8.3h16.1V0h-42V8.3z"/>
				</g>
				<g>
					<path id="DejaVuSans-2e_00000022547355651880436130000010436864635568320158_" d="M292.4,12.4h10.3V0h-10.3V12.4z"/>
				</g>
				<g>
					<path id="DejaVuSans-36" d="M346.5,40.4c-4.4,0-7.9-1.5-10.5-4.5c-2.6-3-3.9-7.2-3.9-12.4c0-5.2,1.3-9.4,3.9-12.4
						c2.6-3,6.1-4.6,10.5-4.6c4.4,0,7.9,1.5,10.5,4.6c2.6,3.1,3.9,7.2,3.9,12.4c0,5.3-1.3,9.4-3.9,12.4
						C354.4,38.9,350.9,40.4,346.5,40.4z M366.1,71.3v-9c-2.5,1.2-5,2.1-7.5,2.7c-2.5,0.6-5,0.9-7.5,0.9c-6.5,0-11.5-2.2-14.9-6.6
						c-3.4-4.4-5.4-11-5.9-19.9c1.9,2.8,4.3,5,7.2,6.5c2.9,1.5,6.1,2.3,9.6,2.3c7.3,0,13.1-2.2,17.4-6.7c4.2-4.4,6.4-10.5,6.4-18.1
						c0-7.5-2.2-13.5-6.6-18c-4.4-4.5-10.3-6.8-17.7-6.8c-8.4,0-14.9,3.2-19.3,9.7c-4.5,6.5-6.7,15.8-6.7,28.1
						c0,11.5,2.7,20.7,8.2,27.6s12.8,10.3,22,10.3c2.5,0,5-0.2,7.5-0.7C360.7,73,363.3,72.3,366.1,71.3z"/>
				</g>
				<g>
					<path id="DejaVuSans-37" d="M385.3,72.9h46.9v-4.2L405.7,0h-10.3l24.9,64.6h-35V72.9z"/>
				</g>
				<g>
					<path id="DejaVuSans-38" d="M472.5,34.6c-4.7,0-8.4-1.3-11.1-3.8c-2.7-2.5-4-6-4-10.3c0-4.4,1.3-7.8,4-10.4
						c2.7-2.5,6.4-3.8,11.1-3.8s8.4,1.3,11.1,3.8c2.7,2.5,4.1,6,4.1,10.3c0,4.4-1.3,7.8-4,10.3C480.9,33.4,477.2,34.6,472.5,34.6z
						 M462.6,38.8c-4.2,1-7.5,3-9.9,5.9c-2.4,2.9-3.5,6.4-3.5,10.6c0,5.8,2.1,10.4,6.2,13.8c4.2,3.4,9.8,5.1,17.1,5.1
						c7.3,0,13-1.7,17.1-5.1c4.1-3.4,6.2-8,6.2-13.8c0-4.2-1.2-7.7-3.5-10.6c-2.4-2.9-5.6-4.9-9.8-5.9c4.8-1.1,8.4-3.3,11.1-6.5
						c2.7-3.2,4-7.2,4-11.8c0-7.1-2.2-12.5-6.5-16.3c-4.3-3.8-10.5-5.7-18.5-5.7c-8,0-14.2,1.9-18.5,5.7c-4.3,3.8-6.5,9.2-6.5,16.3
						c0,4.6,1.3,8.6,4,11.8C454.2,35.5,457.9,37.7,462.6,38.8z M459,54.4c0-3.8,1.2-6.7,3.5-8.8c2.4-2.1,5.7-3.2,9.9-3.2
						c4.2,0,7.6,1.1,9.9,3.2c2.4,2.1,3.6,5.1,3.6,8.8c0,3.8-1.2,6.7-3.6,8.8c-2.4,2.1-5.7,3.2-9.9,3.2c-4.3,0-7.6-1.1-9.9-3.2
						C460.2,61.1,459,58.2,459,54.4z"/>
				</g>
				<g>
					<path id="DejaVuSans-30_00000045620228299902610690000017199516277063421097_" d="M536.1,66.4c-5.1,0-8.9-2.5-11.5-7.5
						c-2.6-5-3.8-12.5-3.8-22.5c0-10,1.3-17.5,3.8-22.5c2.6-5,6.4-7.5,11.5-7.5c5.1,0,8.9,2.5,11.5,7.5c2.6,5,3.8,12.5,3.8,22.5
						c0,10-1.3,17.5-3.8,22.5C545.1,63.9,541.2,66.4,536.1,66.4z M536.1,74.2c8.2,0,14.4-3.2,18.7-9.7c4.3-6.5,6.5-15.8,6.5-28.1
						c0-12.3-2.2-21.6-6.5-28.1c-4.3-6.5-10.6-9.7-18.7-9.7c-8.2,0-14.4,3.2-18.7,9.7c-4.3,6.5-6.5,15.8-6.5,28.1
						c0,12.3,2.2,21.7,6.5,28.1C521.7,71,528,74.2,536.1,74.2z"/>
				</g>
				<g>
					<path id="DejaVuSans-30_00000098938553245051286300000000233534512324568253_" d="M599.8,66.4c-5.1,0-8.9-2.5-11.5-7.5
						c-2.6-5-3.8-12.5-3.8-22.5c0-10,1.3-17.5,3.8-22.5c2.6-5,6.4-7.5,11.5-7.5c5.1,0,8.9,2.5,11.5,7.5c2.6,5,3.8,12.5,3.8,22.5
						c0,10-1.3,17.5-3.8,22.5C608.7,63.9,604.9,66.4,599.8,66.4z M599.8,74.2c8.2,0,14.4-3.2,18.7-9.7c4.3-6.5,6.5-15.8,6.5-28.1
						c0-12.3-2.2-21.6-6.5-28.1c-4.3-6.5-10.6-9.7-18.7-9.7c-8.2,0-14.4,3.2-18.7,9.7c-4.3,6.5-6.5,15.8-6.5,28.1
						c0,12.3,2.2,21.7,6.5,28.1C585.3,71,591.6,74.2,599.8,74.2z"/>
				</g>
				<g>
					<path id="DejaVuSans-30_00000013913220767414865550000005920795531203075493_" d="M663.4,66.4c-5.1,0-8.9-2.5-11.5-7.5
						c-2.6-5-3.8-12.5-3.8-22.5c0-10,1.3-17.5,3.8-22.5c2.6-5,6.4-7.5,11.5-7.5c5.1,0,8.9,2.5,11.5,7.5c2.6,5,3.8,12.5,3.8,22.5
						c0,10-1.3,17.5-3.8,22.5C672.3,63.9,668.5,66.4,663.4,66.4z M663.4,74.2c8.2,0,14.4-3.2,18.7-9.7c4.3-6.5,6.5-15.8,6.5-28.1
						c0-12.3-2.2-21.6-6.5-28.1c-4.3-6.5-10.6-9.7-18.7-9.7c-8.2,0-14.4,3.2-18.7,9.7c-4.3,6.5-6.5,15.8-6.5,28.1
						c0,12.3,2.2,21.7,6.5,28.1C649,71,655.2,74.2,663.4,74.2z"/>
				</g>
				<g>
					<path id="DejaVuSans-30_00000054233718498414989490000003456720025507280555_" d="M727,66.4c-5.1,0-8.9-2.5-11.5-7.5
						c-2.6-5-3.8-12.5-3.8-22.5c0-10,1.3-17.5,3.8-22.5c2.6-5,6.4-7.5,11.5-7.5c5.1,0,8.9,2.5,11.5,7.5c2.6,5,3.8,12.5,3.8,22.5
						c0,10-1.3,17.5-3.8,22.5C735.9,63.9,732.1,66.4,727,66.4z M727,74.2c8.2,0,14.4-3.2,18.7-9.7c4.3-6.5,6.5-15.8,6.5-28.1
						c0-12.3-2.2-21.6-6.5-28.1c-4.3-6.5-10.6-9.7-18.7-9.7c-8.2,0-14.4,3.2-18.7,9.7c-4.3,6.5-6.5,15.8-6.5,28.1
						c0,12.3,2.2,21.7,6.5,28.1C712.6,71,718.8,74.2,727,74.2z"/>
				</g>
				<g>
					<path id="DejaVuSans-30_00000015319260115347125030000016639212481789256374_" d="M790.6,66.4c-5.1,0-8.9-2.5-11.5-7.5
						c-2.6-5-3.8-12.5-3.8-22.5c0-10,1.3-17.5,3.8-22.5c2.6-5,6.4-7.5,11.5-7.5c5.1,0,8.9,2.5,11.5,7.5c2.6,5,3.8,12.5,3.8,22.5
						c0,10-1.3,17.5-3.8,22.5C799.6,63.9,795.7,66.4,790.6,66.4z M790.6,74.2c8.2,0,14.4-3.2,18.7-9.7c4.3-6.5,6.5-15.8,6.5-28.1
						c0-12.3-2.2-21.6-6.5-28.1c-4.3-6.5-10.6-9.7-18.7-9.7c-8.2,0-14.4,3.2-18.7,9.7c-4.3,6.5-6.5,15.8-6.5,28.1
						c0,12.3,2.2,21.7,6.5,28.1C776.2,71,782.5,74.2,790.6,74.2z"/>
				</g>
				<g>
					<path id="DejaVuSans-30_00000112600237770868551760000006275014202256494248_" d="M854.2,66.4c-5.1,0-8.9-2.5-11.5-7.5
						c-2.6-5-3.8-12.5-3.8-22.5c0-10,1.3-17.5,3.8-22.5c2.6-5,6.4-7.5,11.5-7.5c5.1,0,8.9,2.5,11.5,7.5c2.6,5,3.8,12.5,3.8,22.5
						c0,10-1.3,17.5-3.8,22.5C863.2,63.9,859.4,66.4,854.2,66.4z M854.2,74.2c8.2,0,14.4-3.2,18.7-9.7c4.3-6.5,6.5-15.8,6.5-28.1
						c0-12.3-2.2-21.6-6.5-28.1c-4.3-6.5-10.6-9.7-18.7-9.7c-8.2,0-14.4,3.2-18.7,9.7c-4.3,6.5-6.5,15.8-6.5,28.1
						c0,12.3,2.2,21.7,6.5,28.1C839.8,71,846.1,74.2,854.2,74.2z"/>
				</g>
				<g>
					<path id="DejaVuSans-30_00000082328392271764631780000002339589750723614125_" d="M917.9,66.4c-5.1,0-8.9-2.5-11.5-7.5
						c-2.6-5-3.8-12.5-3.8-22.5c0-10,1.3-17.5,3.8-22.5c2.6-5,6.4-7.5,11.5-7.5c5.1,0,8.9,2.5,11.5,7.5c2.6,5,3.8,12.5,3.8,22.5
						c0,10-1.3,17.5-3.8,22.5C926.8,63.9,923,66.4,917.9,66.4z M917.9,74.2c8.2,0,14.4-3.2,18.7-9.7c4.3-6.5,6.5-15.8,6.5-28.1
						c0-12.3-2.2-21.6-6.5-28.1c-4.3-6.5-10.6-9.7-18.7-9.7c-8.2,0-14.4,3.2-18.7,9.7c-4.3,6.5-6.5,15.8-6.5,28.1
						c0,12.3,2.2,21.7,6.5,28.1C903.5,71,909.7,74.2,917.9,74.2z"/>
				</g>
				<g>
					<path id="DejaVuSans-30_00000144301208003438105170000014094299085713723801_" d="M981.5,66.4c-5.1,0-8.9-2.5-11.5-7.5
						c-2.6-5-3.8-12.5-3.8-22.5c0-10,1.3-17.5,3.8-22.5c2.6-5,6.4-7.5,11.5-7.5c5.1,0,8.9,2.5,11.5,7.5c2.6,5,3.8,12.5,3.8,22.5
						c0,10-1.3,17.5-3.8,22.5C990.4,63.9,986.6,66.4,981.5,66.4z M981.5,74.2c8.2,0,14.4-3.2,18.7-9.7c4.3-6.5,6.5-15.8,6.5-28.1
						c0-12.3-2.2-21.6-6.5-28.1c-4.3-6.5-10.6-9.7-18.7-9.7c-8.2,0-14.4,3.2-18.7,9.7c-4.3,6.5-6.5,15.8-6.5,28.1
						c0,12.3,2.2,21.7,6.5,28.1C967.1,71,973.3,74.2,981.5,74.2z"/>
				</g>
				<g>
					<path id="DejaVuSans-30_00000060708934589971271940000013459257484465079946_" d="M1045.1,66.4c-5.1,0-8.9-2.5-11.5-7.5
						c-2.6-5-3.8-12.5-3.8-22.5c0-10,1.3-17.5,3.8-22.5c2.6-5,6.4-7.5,11.5-7.5c5.1,0,8.9,2.5,11.5,7.5c2.6,5,3.8,12.5,3.8,22.5
						c0,10-1.3,17.5-3.8,22.5C1054.1,63.9,1050.2,66.4,1045.1,66.4z M1045.1,74.2c8.2,0,14.4-3.2,18.7-9.7
						c4.3-6.5,6.5-15.8,6.5-28.1c0-12.3-2.2-21.6-6.5-28.1c-4.3-6.5-10.6-9.7-18.7-9.7c-8.2,0-14.4,3.2-18.7,9.7
						c-4.3,6.5-6.5,15.8-6.5,28.1c0,12.3,2.2,21.7,6.5,28.1C1030.7,71,1036.9,74.2,1045.1,74.2z"/>
				</g>
				<g>
					<path id="DejaVuSans-30_00000078733018219320528010000003387544190482136965_" d="M1108.7,66.4c-5.1,0-8.9-2.5-11.5-7.5
						c-2.6-5-3.8-12.5-3.8-22.5c0-10,1.3-17.5,3.8-22.5c2.6-5,6.4-7.5,11.5-7.5c5.1,0,8.9,2.5,11.5,7.5c2.6,5,3.8,12.5,3.8,22.5
						c0,10-1.3,17.5-3.8,22.5C1117.7,63.9,1113.8,66.4,1108.7,66.4z M1108.7,74.2c8.2,0,14.4-3.2,18.7-9.7
						c4.3-6.5,6.5-15.8,6.5-28.1c0-12.3-2.2-21.6-6.5-28.1c-4.3-6.5-10.6-9.7-18.7-9.7c-8.2,0-14.4,3.2-18.7,9.7
						c-4.3,6.5-6.5,15.8-6.5,28.1c0,12.3,2.2,21.7,6.5,28.1C1094.3,71,1100.6,74.2,1108.7,74.2z"/>
				</g>
				<g>
					<path id="DejaVuSans-30_00000161618620031506639450000005280566885759595445_" d="M1172.4,66.4c-5.1,0-8.9-2.5-11.5-7.5
						c-2.6-5-3.8-12.5-3.8-22.5c0-10,1.3-17.5,3.8-22.5c2.6-5,6.4-7.5,11.5-7.5c5.1,0,8.9,2.5,11.5,7.5c2.6,5,3.8,12.5,3.8,22.5
						c0,10-1.3,17.5-3.8,22.5C1181.3,63.9,1177.5,66.4,1172.4,66.4z M1172.4,74.2c8.2,0,14.4-3.2,18.7-9.7
						c4.3-6.5,6.5-15.8,6.5-28.1c0-12.3-2.2-21.6-6.5-28.1c-4.3-6.5-10.6-9.7-18.7-9.7c-8.2,0-14.4,3.2-18.7,9.7
						c-4.3,6.5-6.5,15.8-6.5,28.1c0,12.3,2.2,21.7,6.5,28.1C1158,71,1164.2,74.2,1172.4,74.2z"/>
				</g>
				<g>
					<path id="DejaVuSans-30_00000098934154168874537790000000054384004896104123_" d="M1236,66.4c-5.1,0-8.9-2.5-11.5-7.5
						c-2.6-5-3.8-12.5-3.8-22.5c0-10,1.3-17.5,3.8-22.5c2.6-5,6.4-7.5,11.5-7.5c5.1,0,8.9,2.5,11.5,7.5c2.6,5,3.8,12.5,3.8,22.5
						c0,10-1.3,17.5-3.8,22.5C1244.9,63.9,1241.1,66.4,1236,66.4z M1236,74.2c8.2,0,14.4-3.2,18.7-9.7c4.3-6.5,6.5-15.8,6.5-28.1
						c0-12.3-2.2-21.6-6.5-28.1c-4.3-6.5-10.6-9.7-18.7-9.7c-8.2,0-14.4,3.2-18.7,9.7c-4.3,6.5-6.5,15.8-6.5,28.1
						c0,12.3,2.2,21.7,6.5,28.1C1221.6,71,1227.8,74.2,1236,74.2z"/>
				</g>
				<g>
					<path id="DejaVuSans-33_00000119118943244183730950000000292060761018646203_" d="M1308.4,39.3c4.7-1,8.4-3.1,11-6.3
						c2.7-3.2,4-7.1,4-11.8c0-7.2-2.5-12.8-7.4-16.7c-4.9-3.9-12-5.9-21.1-5.9c-3.1,0-6.2,0.3-9.4,0.9c-3.2,0.6-6.6,1.5-10,2.7v9.5
						c2.7-1.6,5.7-2.8,9-3.6c3.3-0.8,6.7-1.2,10.2-1.2c6.2,0,10.9,1.2,14.1,3.7c3.2,2.4,4.9,6,4.9,10.6c0,4.3-1.5,7.7-4.5,10.1
						c-3,2.4-7.2,3.6-12.6,3.6h-8.5V43h8.9c4.8,0,8.6,1,11.1,2.9c2.6,1.9,3.9,4.7,3.9,8.4c0,3.7-1.3,6.6-4,8.6c-2.6,2-6.4,3-11.4,3
						c-2.7,0-5.6-0.3-8.7-0.9c-3.1-0.6-6.5-1.5-10.2-2.7v8.8c3.8,1,7.3,1.8,10.5,2.3c3.3,0.5,6.4,0.8,9.2,0.8
						c7.5,0,13.4-1.7,17.8-5.1c4.4-3.4,6.5-8,6.5-13.8c0-4-1.2-7.5-3.5-10.2S1312.7,40.4,1308.4,39.3z"/>
				</g>
				<g>
					<path id="DejaVuSans-65_00000127722165738640039580000001859069956298625187_" d="M1387.6,29.6v-4.4h-41.3
						c0.4-6.2,2.3-10.9,5.6-14.1c3.3-3.2,8-4.9,13.9-4.9c3.4,0,6.8,0.4,10,1.3c3.2,0.8,6.5,2.1,9.7,3.8V2.8
						c-3.2-1.4-6.5-2.4-9.9-3.1c-3.4-0.7-6.8-1.1-10.3-1.1c-8.7,0-15.6,2.5-20.7,7.6c-5.1,5.1-7.6,12-7.6,20.6
						c0,8.9,2.4,16,7.2,21.3c4.8,5.3,11.4,7.9,19.6,7.9c7.4,0,13.2-2.4,17.5-7.1C1385.5,44.2,1387.6,37.7,1387.6,29.6z M1378.7,32.2
						c-0.1,4.9-1.4,8.8-4.1,11.8c-2.7,2.9-6.2,4.4-10.7,4.4c-5,0-9-1.4-12-4.2c-3-2.8-4.7-6.8-5.2-12L1378.7,32.2z"/>
				</g>
				<g>
					<path id="DejaVuSans-2d" d="M1397.9,31.4h26.3v-8h-26.3V31.4z"/>
				</g>
				<g>
					<path id="DejaVuSans-33_00000122700446587296753240000018236979529512020372_" d="M1469.6,39.3c4.7-1,8.4-3.1,11-6.3
						c2.7-3.2,4-7.1,4-11.8c0-7.2-2.5-12.8-7.4-16.7c-4.9-3.9-12-5.9-21.1-5.9c-3.1,0-6.2,0.3-9.4,0.9c-3.2,0.6-6.6,1.5-10,2.7v9.5
						c2.7-1.6,5.7-2.8,9-3.6c3.3-0.8,6.7-1.2,10.2-1.2c6.2,0,10.9,1.2,14.1,3.7c3.2,2.4,4.9,6,4.9,10.6c0,4.3-1.5,7.7-4.5,10.1
						c-3,2.4-7.2,3.6-12.6,3.6h-8.5V43h8.9c4.8,0,8.6,1,11.1,2.9c2.6,1.9,3.9,4.7,3.9,8.4c0,3.7-1.3,6.6-4,8.6c-2.6,2-6.4,3-11.4,3
						c-2.7,0-5.6-0.3-8.7-0.9c-3.1-0.6-6.5-1.5-10.2-2.7v8.8c3.8,1,7.3,1.8,10.5,2.3c3.3,0.5,6.4,0.8,9.2,0.8
						c7.5,0,13.4-1.7,17.8-5.1c4.4-3.4,6.5-8,6.5-13.8c0-4-1.2-7.5-3.5-10.2S1473.9,40.4,1469.6,39.3z"/>
				</g>
				<g>
					<path id="DejaVuSans-33_00000013893476967456638470000007617427816829129857_" d="M1533.3,39.3c4.7-1,8.4-3.1,11-6.3
						c2.7-3.2,4-7.1,4-11.8c0-7.2-2.5-12.8-7.4-16.7c-4.9-3.9-12-5.9-21.1-5.9c-3.1,0-6.2,0.3-9.4,0.9c-3.2,0.6-6.6,1.5-10,2.7v9.5
						c2.7-1.6,5.7-2.8,9-3.6c3.3-0.8,6.7-1.2,10.2-1.2c6.2,0,10.9,1.2,14.1,3.7c3.2,2.4,4.9,6,4.9,10.6c0,4.3-1.5,7.7-4.5,10.1
						c-3,2.4-7.2,3.6-12.6,3.6h-8.5V43h8.9c4.8,0,8.6,1,11.1,2.9c2.6,1.9,3.9,4.7,3.9,8.4c0,3.7-1.3,6.6-4,8.6c-2.6,2-6.4,3-11.4,3
						c-2.7,0-5.6-0.3-8.7-0.9c-3.1-0.6-6.5-1.5-10.2-2.7v8.8c3.8,1,7.3,1.8,10.5,2.3c3.3,0.5,6.4,0.8,9.2,0.8
						c7.5,0,13.4-1.7,17.8-5.1c4.4-3.4,6.5-8,6.5-13.8c0-4-1.2-7.5-3.5-10.2S1537.5,40.4,1533.3,39.3z"/>
				</g>
				<g>
					<path id="DejaVuSans-29" d="M1564.3,75.9h7.8c4.9-7.7,8.5-15.2,11-22.6c2.4-7.4,3.6-14.7,3.6-21.9c0-7.3-1.2-14.6-3.6-22
						c-2.4-7.4-6.1-14.9-11-22.6h-7.8c4.3,7.5,7.6,14.9,9.7,22.2c2.1,7.4,3.2,14.8,3.2,22.3c0,7.5-1.1,14.9-3.2,22.3
						C1571.9,61,1568.6,68.4,1564.3,75.9z"/>
				</g>
			</g>
		</g>
		<g id="legend_1">
			<g id="patch_32">
				<path class="st30" d="M230.2,80.8h96.3c1.6,0,2.4-0.8,2.4-2.4v-34c0-1.6-0.8-2.4-2.4-2.4h-96.3c-1.6,0-2.4,0.8-2.4,2.4v34
					C227.8,80,228.6,80.8,230.2,80.8z"/>
			</g>
			<g id="patch_33">
				<path class="st31" d="M232.6,55.9h24v-8.4h-24V55.9z"/>
			</g>
			<g id="text_12">
				<g transform="translate(266.20375 55.888125) scale(0.12 -0.12)">
					<g>
						<path id="DejaVuSans-4f" d="M39.4,66.2c-7.2,0-12.9-2.7-17.1-8C18.1,52.9,16,45.6,16,36.4c0-9.2,2.1-16.4,6.3-21.8
							c4.2-5.3,9.9-8,17.1-8c7.2,0,12.8,2.7,17,8c4.2,5.3,6.3,12.6,6.3,21.8c0,9.2-2.1,16.5-6.3,21.8C52.2,63.5,46.6,66.2,39.4,66.2
							z M39.4,74.2c10.2,0,18.4-3.4,24.5-10.3c6.1-6.9,9.2-16,9.2-27.6c0-11.5-3.1-20.7-9.2-27.5C57.8,2,49.6-1.4,39.4-1.4
							C29.2-1.4,21,2,14.8,8.8c-6.1,6.8-9.2,16-9.2,27.5s3.1,20.7,9.2,27.6C21,70.8,29.2,74.2,39.4,74.2z"/>
					</g>
					<g>
						<path id="DejaVuSans-62" d="M127.4,27.3c0,6.6-1.4,11.8-4.1,15.5s-6.5,5.6-11.2,5.6c-4.8,0-8.5-1.9-11.2-5.6
							s-4.1-8.9-4.1-15.5s1.4-11.8,4.1-15.5s6.5-5.6,11.2-5.6c4.8,0,8.5,1.9,11.2,5.6S127.4,20.7,127.4,27.3z M96.8,46.4
							c1.9,3.2,4.3,5.7,7.2,7.2c2.9,1.6,6.3,2.4,10.3,2.4c6.6,0,12-2.6,16.2-7.9c4.2-5.3,6.2-12.2,6.2-20.8s-2.1-15.5-6.2-20.8
							c-4.1-5.3-9.5-7.9-16.2-7.9c-4,0-7.4,0.8-10.3,2.4c-2.9,1.6-5.3,4-7.2,7.3V0h-9v76h9V46.4z"/>
					</g>
					<g>
						<path id="DejaVuSans-73_00000045617633242385642710000000466731665763621787_" d="M186.5,53.1v-8.5c-2.5,1.3-5.2,2.3-7.9,2.9
							c-2.7,0.7-5.6,1-8.5,1c-4.5,0-7.8-0.7-10-2s-3.3-3.4-3.3-6.2c0-2.1,0.8-3.7,2.4-4.9s4.8-2.3,9.6-3.4l3.1-0.7
							c6.4-1.4,10.9-3.3,13.6-5.8s4-6,4-10.4c0-5.1-2-9.1-6-12.1c-4-3-9.5-4.4-16.6-4.4c-2.9,0-6,0.3-9.2,0.9s-6.5,1.4-10,2.6v9.3
							c3.3-1.7,6.6-3,9.8-3.9c3.2-0.9,6.4-1.3,9.6-1.3c4.2,0,7.5,0.7,9.8,2.2c2.3,1.4,3.4,3.5,3.4,6.1c0,2.4-0.8,4.3-2.5,5.6
							c-1.6,1.3-5.2,2.6-10.8,3.8l-3.1,0.7c-5.6,1.2-9.6,3-12.1,5.4c-2.5,2.4-3.7,5.8-3.7,10c0,5.1,1.8,9.1,5.5,11.9
							c3.6,2.8,8.8,4.2,15.5,4.2c3.3,0,6.4-0.2,9.4-0.7C181.3,54.8,184,54.1,186.5,53.1z"/>
					</g>
					<g>
						<path id="DejaVuSans-65_00000181781142322440695950000001847231456475109802_" d="M250.5,29.6v-4.4h-41.3
							c0.4-6.2,2.3-10.9,5.6-14.1s8-4.9,13.9-4.9c3.4,0,6.8,0.4,10,1.3s6.5,2.1,9.7,3.8V2.8c-3.2-1.4-6.5-2.4-9.9-3.1
							s-6.8-1.1-10.3-1.1c-8.7,0-15.6,2.5-20.7,7.6c-5.1,5.1-7.6,12-7.6,20.6c0,8.9,2.4,16,7.2,21.3c4.8,5.3,11.4,7.9,19.6,7.9
							c7.4,0,13.2-2.4,17.5-7.1C248.3,44.2,250.5,37.7,250.5,29.6z M241.5,32.2c-0.1,4.9-1.4,8.8-4.1,11.8
							c-2.7,2.9-6.2,4.4-10.7,4.4c-5,0-9-1.4-12-4.2c-3-2.8-4.7-6.8-5.2-12L241.5,32.2z"/>
					</g>
					<g>
						<path id="DejaVuSans-72_00000006681259564873183980000015221665767331308694_" d="M296.9,46.3c-1,0.6-2.1,1-3.3,1.3
							c-1.2,0.3-2.5,0.4-3.9,0.4c-5.1,0-9-1.7-11.7-5s-4.1-8-4.1-14.2V0h-9v54.7h9v-8.5c1.9,3.3,4.4,5.8,7.4,7.4
							c3,1.6,6.7,2.4,11,2.4c0.6,0,1.3,0,2-0.1c0.8-0.1,1.6-0.2,2.5-0.4L296.9,46.3z"/>
					</g>
					<g>
						<path id="DejaVuSans-76" d="M299.9,54.7h9.5l17.1-45.9l17.1,45.9h9.5L332.6,0h-12.2L299.9,54.7z"/>
					</g>
					<g>
						<path id="DejaVuSans-65_00000119839220943437744170000013237249394633324464_" d="M412.3,29.6v-4.4H371
							c0.4-6.2,2.3-10.9,5.6-14.1s8-4.9,13.9-4.9c3.4,0,6.8,0.4,10,1.3c3.2,0.8,6.5,2.1,9.7,3.8V2.8c-3.2-1.4-6.5-2.4-9.9-3.1
							c-3.4-0.7-6.8-1.1-10.3-1.1c-8.7,0-15.6,2.5-20.7,7.6c-5.1,5.1-7.6,12-7.6,20.6c0,8.9,2.4,16,7.2,21.3
							c4.8,5.3,11.4,7.9,19.6,7.9c7.4,0,13.2-2.4,17.5-7.1C410.2,44.2,412.3,37.7,412.3,29.6z M403.3,32.2
							c-0.1,4.9-1.4,8.8-4.1,11.8c-2.7,2.9-6.2,4.4-10.7,4.4c-5,0-9-1.4-12-4.2s-4.7-6.8-5.2-12L403.3,32.2z"/>
					</g>
					<g>
						<path id="DejaVuSans-64_00000014613375853811888870000018323263292380695724_" d="M463,46.4V76h9V0h-9v8.2
							c-1.9-3.3-4.3-5.7-7.2-7.3c-2.9-1.6-6.3-2.4-10.4-2.4c-6.6,0-12,2.6-16.1,7.9c-4.1,5.3-6.2,12.2-6.2,20.8s2.1,15.5,6.2,20.8
							c4.2,5.3,9.5,7.9,16.1,7.9c4,0,7.5-0.8,10.4-2.4C458.8,52.1,461.1,49.6,463,46.4z M432.4,27.3c0-6.6,1.4-11.8,4.1-15.5
							s6.5-5.6,11.2-5.6s8.5,1.9,11.2,5.6c2.7,3.8,4.1,8.9,4.1,15.5s-1.4,11.8-4.1,15.5c-2.7,3.8-6.5,5.6-11.2,5.6
							s-8.5-1.9-11.2-5.6S432.4,33.9,432.4,27.3z"/>
					</g>
				</g>
			</g>
			<g id="patch_34">
				<path class="st32" d="M232.6,73.5h24v-8.4h-24V73.5z"/>
			</g>
			<g id="text_13">
				<g transform="translate(266.20375 73.501875) scale(0.12 -0.12)">
					<g>
						<path id="DejaVuSans-50" d="M19.7,64.8V37.4h12.4c4.6,0,8.1,1.2,10.6,3.6c2.5,2.4,3.8,5.8,3.8,10.2c0,4.4-1.3,7.7-3.8,10.1
							c-2.5,2.4-6,3.6-10.6,3.6H19.7z M9.8,72.9h22.3c8.2,0,14.4-1.8,18.5-5.5c4.2-3.7,6.3-9.1,6.3-16.2c0-7.2-2.1-12.6-6.3-16.3
							c-4.2-3.7-10.4-5.5-18.5-5.5H19.7V0H9.8V72.9z"/>
					</g>
					<g>
						<path id="DejaVuSans-65_00000053518281593417340870000003650953240884078257_" d="M112.9,29.6v-4.4H71.6
							c0.4-6.2,2.3-10.9,5.6-14.1s8-4.9,13.9-4.9c3.4,0,6.8,0.4,10,1.3c3.2,0.8,6.5,2.1,9.7,3.8V2.8c-3.2-1.4-6.5-2.4-9.9-3.1
							C97.5-1.1,94-1.4,90.6-1.4c-8.7,0-15.6,2.5-20.7,7.6c-5.1,5.1-7.6,12-7.6,20.6c0,8.9,2.4,16,7.2,21.3C74.3,53.4,80.8,56,89,56
							c7.4,0,13.2-2.4,17.5-7.1C110.7,44.2,112.9,37.7,112.9,29.6z M103.9,32.2c-0.1,4.9-1.4,8.8-4.1,11.8
							c-2.7,2.9-6.2,4.4-10.7,4.4c-5,0-9-1.4-12-4.2s-4.7-6.8-5.2-12L103.9,32.2z"/>
					</g>
					<g>
						<path id="DejaVuSans-72_00000132068795200642022770000017628787663957307520_" d="M159.3,46.3c-1,0.6-2.1,1-3.3,1.3
							c-1.2,0.3-2.5,0.4-3.9,0.4c-5.1,0-9-1.7-11.7-5s-4.1-8-4.1-14.2V0h-9v54.7h9v-8.5c1.9,3.3,4.4,5.8,7.4,7.4
							c3,1.6,6.7,2.4,11,2.4c0.6,0,1.3,0,2-0.1c0.8-0.1,1.6-0.2,2.5-0.4L159.3,46.3z"/>
					</g>
					<g>
						<path id="DejaVuSans-6d" d="M209.6,44.2c2.2,4,4.9,7,8.1,8.9s6.8,2.9,11,2.9c5.7,0,10.1-2,13.2-6c3.1-4,4.6-9.6,4.6-17V0h-9
							v32.7c0,5.2-0.9,9.1-2.8,11.7c-1.9,2.5-4.7,3.8-8.5,3.8c-4.7,0-8.3-1.5-11-4.6c-2.7-3.1-4-7.3-4-12.6V0h-9v32.7
							c0,5.3-0.9,9.2-2.8,11.7s-4.7,3.8-8.6,3.8c-4.6,0-8.2-1.6-11-4.7c-2.7-3.1-4-7.3-4-12.6V0h-9v54.7h9v-8.5
							c2.1,3.4,4.5,5.8,7.4,7.4s6.3,2.4,10.2,2.4c4,0,7.4-1,10.1-3C206.2,51,208.2,48,209.6,44.2z"/>
					</g>
					<g>
						<path id="DejaVuSans-75" d="M263.5,21.6v33.1h9V21.9c0-5.2,1-9.1,3-11.7c2-2.6,5.1-3.9,9.1-3.9c4.8,0,8.7,1.5,11.5,4.6
							c2.8,3.1,4.2,7.3,4.2,12.7v31h9V0h-9v8.4c-2.2-3.3-4.7-5.8-7.6-7.4c-2.9-1.6-6.2-2.4-10-2.4c-6.3,0-11.1,2-14.3,5.9
							C265.1,8.3,263.5,14.1,263.5,21.6z M286.1,56L286.1,56z"/>
					</g>
					<g>
						<path id="DejaVuSans-74_00000135661251029178740650000013734695347821377155_" d="M336.7,70.2V54.7h18.5v-7h-18.5V18
							c0-4.5,0.6-7.3,1.8-8.6s3.7-1.9,7.5-1.9h9.2V0h-9.2c-6.9,0-11.7,1.3-14.4,3.9c-2.6,2.6-4,7.3-4,14.1v29.7H321v7h6.6v15.5
							H336.7z"/>
					</g>
					<g>
						<path id="DejaVuSans-65_00000083769433805410921600000016532968286289097145_" d="M413.8,29.6v-4.4h-41.3
							c0.4-6.2,2.3-10.9,5.6-14.1s8-4.9,13.9-4.9c3.4,0,6.8,0.4,10,1.3c3.2,0.8,6.5,2.1,9.7,3.8V2.8c-3.2-1.4-6.5-2.4-9.9-3.1
							c-3.4-0.7-6.8-1.1-10.3-1.1c-8.7,0-15.6,2.5-20.7,7.6c-5.1,5.1-7.6,12-7.6,20.6c0,8.9,2.4,16,7.2,21.3
							c4.8,5.3,11.4,7.9,19.6,7.9c7.4,0,13.2-2.4,17.5-7.1C411.6,44.2,413.8,37.7,413.8,29.6z M404.8,32.2
							c-0.1,4.9-1.4,8.8-4.1,11.8c-2.7,2.9-6.2,4.4-10.7,4.4c-5,0-9-1.4-12-4.2s-4.7-6.8-5.2-12L404.8,32.2z"/>
					</g>
					<g>
						<path id="DejaVuSans-64_00000029752732415673986700000001341113153321520042_" d="M464.5,46.4V76h9V0h-9v8.2
							c-1.9-3.2-4.3-5.7-7.2-7.2c-2.9-1.6-6.3-2.4-10.4-2.4c-6.6,0-12,2.6-16.1,7.9c-4.1,5.3-6.2,12.2-6.2,20.8s2.1,15.5,6.2,20.8
							c4.2,5.3,9.5,7.9,16.1,7.9c4,0,7.5-0.8,10.4-2.4C460.2,52.1,462.6,49.6,464.5,46.4z M433.9,27.3c0-6.6,1.4-11.8,4.1-15.5
							s6.5-5.6,11.2-5.6s8.5,1.9,11.2,5.6c2.7,3.8,4.1,8.9,4.1,15.5s-1.4,11.8-4.1,15.5c-2.7,3.8-6.5,5.6-11.2,5.6
							s-8.5-1.9-11.2-5.6S433.9,33.9,433.9,27.3z"/>
					</g>
				</g>
			</g>
		</g>
		<g id="patch_35">
			<g>
				<defs>
					<rect id="SVGID_00000038370918534611095800000008273508171451863455_" x="60.4" y="25.4" width="279" height="221.8"/>
				</defs>
				<clipPath id="SVGID_00000068675280258529085910000007762417950103233671_">
					<use xlink:href="#SVGID_00000038370918534611095800000008273508171451863455_"  style="overflow:visible;"/>
				</clipPath>
				<path style="clip-path:url(#SVGID_00000068675280258529085910000007762417950103233671_);fill:#3636EB;stroke:#3636EB;" d="
					M318.5,247.1l-8.2-10.6l7,5.3V141.5h2.5v100.3l7-5.3L318.5,247.1z"/>
			</g>
		</g>
	</g>
</g>
</svg>
