<?xml version="1.0" encoding="utf-8"?>
<!-- Generator: Adobe Illustrator 27.6.1, SVG Export Plug-In . SVG Version: 6.00 Build 0)  -->
<svg version="1.1" id="Layer_1" xmlns="http://www.w3.org/2000/svg" xmlns:xlink="http://www.w3.org/1999/xlink" x="0px" y="0px"
	 viewBox="0 0 346.6 292.4" style="enable-background:new 0 0 346.6 292.4;" xml:space="preserve">
<style type="text/css">
	.st0{fill:#FFFFFF;}
	.st1{clip-path:url(#SVGID_00000183972039597340807370000014678773138323958173_);fill:#CCCCCC;fill-opacity:0.4;stroke:#FFFFFF;}
	.st2{clip-path:url(#SVGID_00000059282931361992460100000018069784744865281423_);fill:#CCCCCC;fill-opacity:0.4;stroke:#FFFFFF;}
	.st3{clip-path:url(#SVGID_00000135649946263165544490000012644436755054168972_);fill:#CCCCCC;fill-opacity:0.4;stroke:#FFFFFF;}
	.st4{clip-path:url(#SVGID_00000029034381580724261980000016947304775573083317_);fill:#CCCCCC;fill-opacity:0.4;stroke:#FFFFFF;}
	.st5{clip-path:url(#SVGID_00000083061730683597008340000005648521002215835573_);fill:#CCCCCC;fill-opacity:0.4;stroke:#FFFFFF;}
	.st6{clip-path:url(#SVGID_00000111165974539329530130000008120704710647538573_);fill:#CCCCCC;fill-opacity:0.4;stroke:#FFFFFF;}
	.st7{clip-path:url(#SVGID_00000066491639134984222390000002685969874004398011_);fill:#CCCCCC;fill-opacity:0.4;stroke:#FFFFFF;}
	.st8{clip-path:url(#SVGID_00000164493944644734419750000007207176451352366726_);fill:#CCCCCC;fill-opacity:0.4;stroke:#FFFFFF;}
	.st9{clip-path:url(#SVGID_00000135660784399231263140000014027067933808327869_);fill:#CCCCCC;fill-opacity:0.4;stroke:#FFFFFF;}
	.st10{clip-path:url(#SVGID_00000109031825330427346820000011675341865206340256_);fill:#CCCCCC;fill-opacity:0.4;stroke:#FFFFFF;}
	.st11{clip-path:url(#SVGID_00000111904959736138105550000010370339961968911803_);fill:#CCCCCC;fill-opacity:0.4;stroke:#FFFFFF;}
	.st12{clip-path:url(#SVGID_00000070115393573594567760000001109901308285732537_);fill:#CCCCCC;fill-opacity:0.4;stroke:#FFFFFF;}
	.st13{clip-path:url(#SVGID_00000150786679774868085520000004401503354104039296_);fill:#CCCCCC;fill-opacity:0.4;stroke:#FFFFFF;}
	.st14{clip-path:url(#SVGID_00000179638229277243517940000016354031192563783044_);fill:#CCCCCC;fill-opacity:0.4;stroke:#FFFFFF;}
	.st15{clip-path:url(#SVGID_00000148660365745515953610000009184310818210566533_);fill:#CCCCCC;fill-opacity:0.4;stroke:#FFFFFF;}
	.st16{clip-path:url(#SVGID_00000170958509313350572250000006669362479343935154_);fill:#CCCCCC;fill-opacity:0.4;stroke:#FFFFFF;}
	.st17{clip-path:url(#SVGID_00000131340375676220325500000015940952796823870349_);fill:#CCCCCC;fill-opacity:0.4;stroke:#FFFFFF;}
	.st18{clip-path:url(#SVGID_00000182504174128599840400000007598342604888654514_);fill:#CCCCCC;fill-opacity:0.4;stroke:#FFFFFF;}
	.st19{clip-path:url(#SVGID_00000183937886696730573820000014718124071472895667_);fill:#CCCCCC;fill-opacity:0.4;stroke:#FFFFFF;}
	.st20{clip-path:url(#SVGID_00000018224417412064897470000006453608216473244831_);fill:#CCCCCC;fill-opacity:0.4;stroke:#FFFFFF;}
	.st21{clip-path:url(#SVGID_00000073686315580657416840000015666227320367231127_);fill:#CCCCCC;fill-opacity:0.4;stroke:#FFFFFF;}
	.st22{clip-path:url(#SVGID_00000044152624712179677200000004647814370924154541_);fill:#CCCCCC;fill-opacity:0.4;stroke:#FFFFFF;}
	.st23{clip-path:url(#SVGID_00000137099922795316205400000011720626312726018474_);fill:#CCCCCC;fill-opacity:0.4;stroke:#FFFFFF;}
	.st24{clip-path:url(#SVGID_00000096041161832517326240000012159330081529127603_);fill:#CCCCCC;fill-opacity:0.4;stroke:#FFFFFF;}
	.st25{clip-path:url(#SVGID_00000178897602346440223390000000055301834700447131_);fill:#CCCCCC;fill-opacity:0.4;stroke:#FFFFFF;}
	.st26{stroke:#000000;stroke-width:0.8;stroke-linejoin:round;}
	
		.st27{clip-path:url(#SVGID_00000044160482848232589510000016643877482943343550_);fill:none;stroke:#CCCCCC;stroke-width:1.5;stroke-linecap:square;stroke-linejoin:round;}
	.st28{fill:none;stroke:#000000;stroke-width:0.8;stroke-linecap:square;}
	.st29{stroke:#000000;stroke-width:2.000000e-03;stroke-linecap:square;stroke-miterlimit:10;}
	.st30{opacity:0.8;fill:#FFFFFF;stroke:#CCCCCC;enable-background:new    ;}
	.st31{fill:#3636EB;stroke:#3636EB;}
	.st32{fill:#CCCCCC;fill-opacity:0.4;stroke:#FFFFFF;}
	.st33{clip-path:url(#SVGID_00000016033940713172372080000008002540461343788694_);fill:#3636EB;stroke:#3636EB;}
</style>
<g id="figure_1">
	<g id="patch_1">
		<path class="st0" d="M0,292.4h346.6V0H0V292.4z"/>
	</g>
	<g id="axes_1">
		<g id="patch_2">
			<path class="st0" d="M60.4,247.1h279V25.4h-279V247.1z"/>
		</g>
		<g id="patch_3">
			<g>
				<defs>
					<rect id="SVGID_1_" x="60.4" y="25.4" width="279" height="221.8"/>
				</defs>
				<clipPath id="SVGID_00000037675437181131093870000009578937714539398541_">
					<use xlink:href="#SVGID_1_"  style="overflow:visible;"/>
				</clipPath>
				
					<path style="clip-path:url(#SVGID_00000037675437181131093870000009578937714539398541_);fill:#CCCCCC;fill-opacity:0.4;stroke:#FFFFFF;" d="
					M73.1,247.1h8.3V247h-8.3V247.1z"/>
			</g>
		</g>
		<g id="patch_4">
			<g>
				<defs>
					<rect id="SVGID_00000028302862938304111820000013842820565889183677_" x="60.4" y="25.4" width="279" height="221.8"/>
				</defs>
				<clipPath id="SVGID_00000173858041309761904370000002149853321254905985_">
					<use xlink:href="#SVGID_00000028302862938304111820000013842820565889183677_"  style="overflow:visible;"/>
				</clipPath>
				
					<path style="clip-path:url(#SVGID_00000173858041309761904370000002149853321254905985_);fill:#CCCCCC;fill-opacity:0.4;stroke:#FFFFFF;" d="
					M81.4,247.1h8.3v-0.3h-8.3V247.1z"/>
			</g>
		</g>
		<g id="patch_5">
			<g>
				<defs>
					<rect id="SVGID_00000101797454447795100520000010114271770919313545_" x="60.4" y="25.4" width="279" height="221.8"/>
				</defs>
				<clipPath id="SVGID_00000096754639649830810370000000316783059765452934_">
					<use xlink:href="#SVGID_00000101797454447795100520000010114271770919313545_"  style="overflow:visible;"/>
				</clipPath>
				
					<path style="clip-path:url(#SVGID_00000096754639649830810370000000316783059765452934_);fill:#CCCCCC;fill-opacity:0.4;stroke:#FFFFFF;" d="
					M89.8,247.1h8.3v-0.6h-8.3V247.1z"/>
			</g>
		</g>
		<g id="patch_6">
			<g>
				<defs>
					<rect id="SVGID_00000124871570471133659440000017417597131094210194_" x="60.4" y="25.4" width="279" height="221.8"/>
				</defs>
				<clipPath id="SVGID_00000175324880886255549240000017345927471317752205_">
					<use xlink:href="#SVGID_00000124871570471133659440000017417597131094210194_"  style="overflow:visible;"/>
				</clipPath>
				
					<path style="clip-path:url(#SVGID_00000175324880886255549240000017345927471317752205_);fill:#CCCCCC;fill-opacity:0.4;stroke:#FFFFFF;" d="
					M98.1,247.1h8.3v-1.7h-8.3V247.1z"/>
			</g>
		</g>
		<g id="patch_7">
			<g>
				<defs>
					<rect id="SVGID_00000024698162374884060420000015761665768482900356_" x="60.4" y="25.4" width="279" height="221.8"/>
				</defs>
				<clipPath id="SVGID_00000128455710415214517940000003900462775346805907_">
					<use xlink:href="#SVGID_00000024698162374884060420000015761665768482900356_"  style="overflow:visible;"/>
				</clipPath>
				
					<path style="clip-path:url(#SVGID_00000128455710415214517940000003900462775346805907_);fill:#CCCCCC;fill-opacity:0.4;stroke:#FFFFFF;" d="
					M106.4,247.1h8.3v-4.4h-8.3V247.1z"/>
			</g>
		</g>
		<g id="patch_8">
			<g>
				<defs>
					<rect id="SVGID_00000029756835432651014090000001578684728467603109_" x="60.4" y="25.4" width="279" height="221.8"/>
				</defs>
				<clipPath id="SVGID_00000026868408000141732930000017119741995337913784_">
					<use xlink:href="#SVGID_00000029756835432651014090000001578684728467603109_"  style="overflow:visible;"/>
				</clipPath>
				
					<path style="clip-path:url(#SVGID_00000026868408000141732930000017119741995337913784_);fill:#CCCCCC;fill-opacity:0.4;stroke:#FFFFFF;" d="
					M114.8,247.1h8.3v-16.3h-8.3V247.1z"/>
			</g>
		</g>
		<g id="patch_9">
			<g>
				<defs>
					<rect id="SVGID_00000133507546961862168460000012763177279855529140_" x="60.4" y="25.4" width="279" height="221.8"/>
				</defs>
				<clipPath id="SVGID_00000160160594648432456950000011483584631392418220_">
					<use xlink:href="#SVGID_00000133507546961862168460000012763177279855529140_"  style="overflow:visible;"/>
				</clipPath>
				
					<path style="clip-path:url(#SVGID_00000160160594648432456950000011483584631392418220_);fill:#CCCCCC;fill-opacity:0.4;stroke:#FFFFFF;" d="
					M123.1,247.1h8.3v-32.6h-8.3V247.1z"/>
			</g>
		</g>
		<g id="patch_10">
			<g>
				<defs>
					<rect id="SVGID_00000176022627325822777930000001175106564927823792_" x="60.4" y="25.4" width="279" height="221.8"/>
				</defs>
				<clipPath id="SVGID_00000123423212450341164990000016276218773119426720_">
					<use xlink:href="#SVGID_00000176022627325822777930000001175106564927823792_"  style="overflow:visible;"/>
				</clipPath>
				
					<path style="clip-path:url(#SVGID_00000123423212450341164990000016276218773119426720_);fill:#CCCCCC;fill-opacity:0.4;stroke:#FFFFFF;" d="
					M131.4,247.1h8.3V201h-8.3V247.1z"/>
			</g>
		</g>
		<g id="patch_11">
			<g>
				<defs>
					<rect id="SVGID_00000149356706401638737160000015864287551245486260_" x="60.4" y="25.4" width="279" height="221.8"/>
				</defs>
				<clipPath id="SVGID_00000178193793854719836530000002868520681781733008_">
					<use xlink:href="#SVGID_00000149356706401638737160000015864287551245486260_"  style="overflow:visible;"/>
				</clipPath>
				
					<path style="clip-path:url(#SVGID_00000178193793854719836530000002868520681781733008_);fill:#CCCCCC;fill-opacity:0.4;stroke:#FFFFFF;" d="
					M139.8,247.1h8.3v-99.8h-8.3V247.1z"/>
			</g>
		</g>
		<g id="patch_12">
			<g>
				<defs>
					<rect id="SVGID_00000098209984158052802980000000446945461041410470_" x="60.4" y="25.4" width="279" height="221.8"/>
				</defs>
				<clipPath id="SVGID_00000117671827679740128460000011647776054954781070_">
					<use xlink:href="#SVGID_00000098209984158052802980000000446945461041410470_"  style="overflow:visible;"/>
				</clipPath>
				
					<path style="clip-path:url(#SVGID_00000117671827679740128460000011647776054954781070_);fill:#CCCCCC;fill-opacity:0.4;stroke:#FFFFFF;" d="
					M148.1,247.1h8.3V137.4h-8.3V247.1z"/>
			</g>
		</g>
		<g id="patch_13">
			<g>
				<defs>
					<rect id="SVGID_00000096747069110044275290000001567933680688794543_" x="60.4" y="25.4" width="279" height="221.8"/>
				</defs>
				<clipPath id="SVGID_00000108286053879376050050000005385985208901660553_">
					<use xlink:href="#SVGID_00000096747069110044275290000001567933680688794543_"  style="overflow:visible;"/>
				</clipPath>
				
					<path style="clip-path:url(#SVGID_00000108286053879376050050000005385985208901660553_);fill:#CCCCCC;fill-opacity:0.4;stroke:#FFFFFF;" d="
					M156.4,247.1h8.3V66.7h-8.3V247.1z"/>
			</g>
		</g>
		<g id="patch_14">
			<g>
				<defs>
					<rect id="SVGID_00000056394146486690181840000013513451028190273213_" x="60.4" y="25.4" width="279" height="221.8"/>
				</defs>
				<clipPath id="SVGID_00000002357425260308961390000001030364844309548416_">
					<use xlink:href="#SVGID_00000056394146486690181840000013513451028190273213_"  style="overflow:visible;"/>
				</clipPath>
				
					<path style="clip-path:url(#SVGID_00000002357425260308961390000001030364844309548416_);fill:#CCCCCC;fill-opacity:0.4;stroke:#FFFFFF;" d="
					M164.8,247.1h8.3V35.9h-8.3V247.1z"/>
			</g>
		</g>
		<g id="patch_15">
			<g>
				<defs>
					<rect id="SVGID_00000085968042573325124000000012193270112429024951_" x="60.4" y="25.4" width="279" height="221.8"/>
				</defs>
				<clipPath id="SVGID_00000168797874117279273740000003103566159910521020_">
					<use xlink:href="#SVGID_00000085968042573325124000000012193270112429024951_"  style="overflow:visible;"/>
				</clipPath>
				
					<path style="clip-path:url(#SVGID_00000168797874117279273740000003103566159910521020_);fill:#CCCCCC;fill-opacity:0.4;stroke:#FFFFFF;" d="
					M173.1,247.1h8.3v-160h-8.3V247.1z"/>
			</g>
		</g>
		<g id="patch_16">
			<g>
				<defs>
					<rect id="SVGID_00000022549952788875255830000015905115085836031885_" x="60.4" y="25.4" width="279" height="221.8"/>
				</defs>
				<clipPath id="SVGID_00000155139547029470152730000010370644719618919587_">
					<use xlink:href="#SVGID_00000022549952788875255830000015905115085836031885_"  style="overflow:visible;"/>
				</clipPath>
				
					<path style="clip-path:url(#SVGID_00000155139547029470152730000010370644719618919587_);fill:#CCCCCC;fill-opacity:0.4;stroke:#FFFFFF;" d="
					M181.5,247.1h8.3V38.7h-8.3V247.1z"/>
			</g>
		</g>
		<g id="patch_17">
			<g>
				<defs>
					<rect id="SVGID_00000057829968042954036630000014329344243628505488_" x="60.4" y="25.4" width="279" height="221.8"/>
				</defs>
				<clipPath id="SVGID_00000075121042169603559600000010062531191932969913_">
					<use xlink:href="#SVGID_00000057829968042954036630000014329344243628505488_"  style="overflow:visible;"/>
				</clipPath>
				
					<path style="clip-path:url(#SVGID_00000075121042169603559600000010062531191932969913_);fill:#CCCCCC;fill-opacity:0.4;stroke:#FFFFFF;" d="
					M189.8,247.1h8.3V113h-8.3V247.1z"/>
			</g>
		</g>
		<g id="patch_18">
			<g>
				<defs>
					<rect id="SVGID_00000038370913763581609660000014856561338034119061_" x="60.4" y="25.4" width="279" height="221.8"/>
				</defs>
				<clipPath id="SVGID_00000057844253702602013030000008113022282428614577_">
					<use xlink:href="#SVGID_00000038370913763581609660000014856561338034119061_"  style="overflow:visible;"/>
				</clipPath>
				
					<path style="clip-path:url(#SVGID_00000057844253702602013030000008113022282428614577_);fill:#CCCCCC;fill-opacity:0.4;stroke:#FFFFFF;" d="
					M198.1,247.1h8.3V104.8h-8.3V247.1z"/>
			</g>
		</g>
		<g id="patch_19">
			<g>
				<defs>
					<rect id="SVGID_00000085944255698556101520000010666239885205681057_" x="60.4" y="25.4" width="279" height="221.8"/>
				</defs>
				<clipPath id="SVGID_00000175281112126374832830000004803057360740826010_">
					<use xlink:href="#SVGID_00000085944255698556101520000010666239885205681057_"  style="overflow:visible;"/>
				</clipPath>
				
					<path style="clip-path:url(#SVGID_00000175281112126374832830000004803057360740826010_);fill:#CCCCCC;fill-opacity:0.4;stroke:#FFFFFF;" d="
					M206.5,247.1h8.3V142.6h-8.3V247.1z"/>
			</g>
		</g>
		<g id="patch_20">
			<g>
				<defs>
					<rect id="SVGID_00000108304827658770900580000004401394440866306450_" x="60.4" y="25.4" width="279" height="221.8"/>
				</defs>
				<clipPath id="SVGID_00000177444920007946227710000009154678909158901930_">
					<use xlink:href="#SVGID_00000108304827658770900580000004401394440866306450_"  style="overflow:visible;"/>
				</clipPath>
				
					<path style="clip-path:url(#SVGID_00000177444920007946227710000009154678909158901930_);fill:#CCCCCC;fill-opacity:0.4;stroke:#FFFFFF;" d="
					M214.8,247.1h8.3v-45.5h-8.3V247.1z"/>
			</g>
		</g>
		<g id="patch_21">
			<g>
				<defs>
					<rect id="SVGID_00000150797919828477358960000018251375452974167430_" x="60.4" y="25.4" width="279" height="221.8"/>
				</defs>
				<clipPath id="SVGID_00000102525397987262774180000012263623800859440280_">
					<use xlink:href="#SVGID_00000150797919828477358960000018251375452974167430_"  style="overflow:visible;"/>
				</clipPath>
				
					<path style="clip-path:url(#SVGID_00000102525397987262774180000012263623800859440280_);fill:#CCCCCC;fill-opacity:0.4;stroke:#FFFFFF;" d="
					M223.1,247.1h8.3v-36.6h-8.3V247.1z"/>
			</g>
		</g>
		<g id="patch_22">
			<g>
				<defs>
					<rect id="SVGID_00000005249202761272910030000014887529352642970777_" x="60.4" y="25.4" width="279" height="221.8"/>
				</defs>
				<clipPath id="SVGID_00000062184525417011061520000018071418340382838694_">
					<use xlink:href="#SVGID_00000005249202761272910030000014887529352642970777_"  style="overflow:visible;"/>
				</clipPath>
				
					<path style="clip-path:url(#SVGID_00000062184525417011061520000018071418340382838694_);fill:#CCCCCC;fill-opacity:0.4;stroke:#FFFFFF;" d="
					M231.5,247.1h8.3v-16.6h-8.3V247.1z"/>
			</g>
		</g>
		<g id="patch_23">
			<g>
				<defs>
					<rect id="SVGID_00000072279779550430354140000004191402502579169442_" x="60.4" y="25.4" width="279" height="221.8"/>
				</defs>
				<clipPath id="SVGID_00000127751425191159611720000005871924008380702849_">
					<use xlink:href="#SVGID_00000072279779550430354140000004191402502579169442_"  style="overflow:visible;"/>
				</clipPath>
				
					<path style="clip-path:url(#SVGID_00000127751425191159611720000005871924008380702849_);fill:#CCCCCC;fill-opacity:0.4;stroke:#FFFFFF;" d="
					M239.8,247.1h8.3v-12.4h-8.3V247.1z"/>
			</g>
		</g>
		<g id="patch_24">
			<g>
				<defs>
					<rect id="SVGID_00000129884671366384836780000017996230398419041154_" x="60.4" y="25.4" width="279" height="221.8"/>
				</defs>
				<clipPath id="SVGID_00000060742971911234878480000003920674257902992266_">
					<use xlink:href="#SVGID_00000129884671366384836780000017996230398419041154_"  style="overflow:visible;"/>
				</clipPath>
				
					<path style="clip-path:url(#SVGID_00000060742971911234878480000003920674257902992266_);fill:#CCCCCC;fill-opacity:0.4;stroke:#FFFFFF;" d="
					M248.1,247.1h8.3V243h-8.3V247.1z"/>
			</g>
		</g>
		<g id="patch_25">
			<g>
				<defs>
					<rect id="SVGID_00000039102622632481391750000010053271669304642238_" x="60.4" y="25.4" width="279" height="221.8"/>
				</defs>
				<clipPath id="SVGID_00000031172116997082981760000006042586681759160508_">
					<use xlink:href="#SVGID_00000039102622632481391750000010053271669304642238_"  style="overflow:visible;"/>
				</clipPath>
				
					<path style="clip-path:url(#SVGID_00000031172116997082981760000006042586681759160508_);fill:#CCCCCC;fill-opacity:0.4;stroke:#FFFFFF;" d="
					M256.5,247.1h8.3v-0.3h-8.3V247.1z"/>
			</g>
		</g>
		<g id="patch_26">
			<g>
				<defs>
					<rect id="SVGID_00000149381568613189618330000006434526200312588695_" x="60.4" y="25.4" width="279" height="221.8"/>
				</defs>
				<clipPath id="SVGID_00000152962423768769452870000010914885543008582584_">
					<use xlink:href="#SVGID_00000149381568613189618330000006434526200312588695_"  style="overflow:visible;"/>
				</clipPath>
				
					<path style="clip-path:url(#SVGID_00000152962423768769452870000010914885543008582584_);fill:#CCCCCC;fill-opacity:0.4;stroke:#FFFFFF;" d="
					M264.8,247.1h8.3v-0.5h-8.3V247.1z"/>
			</g>
		</g>
		<g id="patch_27">
			<g>
				<defs>
					<rect id="SVGID_00000021083740033189565090000004131534620011502521_" x="60.4" y="25.4" width="279" height="221.8"/>
				</defs>
				<clipPath id="SVGID_00000068646742298688722190000000084054718487904701_">
					<use xlink:href="#SVGID_00000021083740033189565090000004131534620011502521_"  style="overflow:visible;"/>
				</clipPath>
				
					<path style="clip-path:url(#SVGID_00000068646742298688722190000000084054718487904701_);fill:#CCCCCC;fill-opacity:0.4;stroke:#FFFFFF;" d="
					M273.2,247.1h8.3v-0.3h-8.3V247.1z"/>
			</g>
		</g>
		<g id="matplotlib.axis_1">
			<g id="xtick_1">
				<g id="line2d_1">
					<g>
						<g>
							<path id="mb4ca5c3b18" class="st26" d="M68.5,247.1v3.5"/>
						</g>
					</g>
				</g>
				<g id="text_1">
					<g transform="translate(57.00185 263.235625) scale(0.12 -0.12)">
						<g>
							<path id="DejaVuSans-31" d="M12.4,8.3h16.1v55.6L11,60.4v9l17.4,3.5h9.9V8.3h16.1V0h-42V8.3z"/>
						</g>
						<g>
							<path id="DejaVuSans-30" d="M95.4,66.4c-5.1,0-8.9-2.5-11.5-7.5c-2.6-5-3.8-12.5-3.8-22.5c0-10,1.3-17.5,3.8-22.5
								c2.6-5,6.4-7.5,11.5-7.5c5.1,0,8.9,2.5,11.5,7.5c2.6,5,3.8,12.5,3.8,22.5c0,10-1.3,17.5-3.8,22.5
								C104.4,63.9,100.5,66.4,95.4,66.4z M95.4,74.2c8.2,0,14.4-3.2,18.7-9.7c4.3-6.5,6.5-15.8,6.5-28.1c0-12.3-2.2-21.6-6.5-28.1
								c-4.3-6.5-10.6-9.7-18.7-9.7c-8.2,0-14.4,3.2-18.7,9.7c-4.3,6.5-6.5,15.8-6.5,28.1c0,12.3,2.2,21.7,6.5,28.1
								C81,71,87.2,74.2,95.4,74.2z"/>
						</g>
						<g>
							<path id="DejaVuSans-30_00000052793593213048845380000010028616692409568927_" d="M159,66.4c-5.1,0-8.9-2.5-11.5-7.5
								c-2.6-5-3.8-12.5-3.8-22.5c0-10,1.3-17.5,3.8-22.5c2.6-5,6.4-7.5,11.5-7.5c5.1,0,8.9,2.5,11.5,7.5c2.6,5,3.8,12.5,3.8,22.5
								c0,10-1.3,17.5-3.8,22.5C168,63.9,164.1,66.4,159,66.4z M159,74.2c8.2,0,14.4-3.2,18.7-9.7c4.3-6.5,6.5-15.8,6.5-28.1
								c0-12.3-2.2-21.6-6.5-28.1c-4.3-6.5-10.6-9.7-18.7-9.7c-8.2,0-14.4,3.2-18.7,9.7c-4.3,6.5-6.5,15.8-6.5,28.1
								c0,12.3,2.2,21.7,6.5,28.1C144.6,71,150.9,74.2,159,74.2z"/>
						</g>
					</g>
				</g>
			</g>
			<g id="xtick_2">
				<g id="line2d_2">
					<g>
						<g>
							<path id="mb4ca5c3b18_00000044153868990929682650000005892620681950811523_" class="st26" d="M114.8,247.1v3.5"/>
						</g>
					</g>
				</g>
				<g id="text_2">
					<g transform="translate(103.314029 263.235625) scale(0.12 -0.12)">
						<g>
							<path id="DejaVuSans-31_00000075129717385375575950000016033151260247723435_" d="M12.4,8.3h16.1v55.6L11,60.4v9l17.4,3.5
								h9.9V8.3h16.1V0h-42V8.3z"/>
						</g>
						<g>
							<path id="DejaVuSans-32" d="M82.8,8.3h34.4V0H71v8.3c3.7,3.9,8.8,9.1,15.3,15.6c6.5,6.5,10.5,10.7,12.2,12.6
								c3.2,3.5,5.4,6.5,6.6,9c1.3,2.5,1.9,4.9,1.9,7.2c0,3.9-1.4,7-4.1,9.5c-2.7,2.4-6.3,3.7-10.6,3.7c-3.1,0-6.4-0.5-9.8-1.6
								c-3.4-1.1-7.1-2.7-11-4.9v10c4,1.6,7.7,2.8,11.1,3.6c3.5,0.8,6.6,1.2,9.5,1.2c7.6,0,13.6-1.9,18.1-5.7
								c4.5-3.8,6.7-8.8,6.7-15.1c0-3-0.6-5.8-1.7-8.5c-1.1-2.7-3.2-5.8-6.1-9.5c-0.8-0.9-3.4-3.7-7.8-8.2
								C96.9,22.7,90.8,16.4,82.8,8.3z"/>
						</g>
						<g>
							<path id="DejaVuSans-30_00000016790111362242745450000003667559780070842292_" d="M159,66.4c-5.1,0-8.9-2.5-11.5-7.5
								c-2.6-5-3.8-12.5-3.8-22.5c0-10,1.3-17.5,3.8-22.5c2.6-5,6.4-7.5,11.5-7.5c5.1,0,8.9,2.5,11.5,7.5c2.6,5,3.8,12.5,3.8,22.5
								c0,10-1.3,17.5-3.8,22.5C168,63.9,164.1,66.4,159,66.4z M159,74.2c8.2,0,14.4-3.2,18.7-9.7c4.3-6.5,6.5-15.8,6.5-28.1
								c0-12.3-2.2-21.6-6.5-28.1c-4.3-6.5-10.6-9.7-18.7-9.7c-8.2,0-14.4,3.2-18.7,9.7c-4.3,6.5-6.5,15.8-6.5,28.1
								c0,12.3,2.2,21.7,6.5,28.1C144.6,71,150.9,74.2,159,74.2z"/>
						</g>
					</g>
				</g>
			</g>
			<g id="xtick_3">
				<g id="line2d_3">
					<g>
						<g>
							<path id="mb4ca5c3b18_00000069363264962353480480000000190997896308580029_" class="st26" d="M161.1,247.1v3.5"/>
						</g>
					</g>
				</g>
				<g id="text_3">
					<g transform="translate(149.626207 263.235625) scale(0.12 -0.12)">
						<g>
							<path id="DejaVuSans-31_00000106853646049211960440000016467701205904921514_" d="M12.4,8.3h16.1v55.6L11,60.4v9l17.4,3.5
								h9.9V8.3h16.1V0h-42V8.3z"/>
						</g>
						<g>
							<path id="DejaVuSans-34" d="M101.4,64.3L76.5,25.4h24.9V64.3z M98.8,72.9h12.4V25.4h10.4v-8.2h-10.4V0h-9.8v17.2H68.5v9.5
								L98.8,72.9z"/>
						</g>
						<g>
							<path id="DejaVuSans-30_00000067943160705095174340000007419603893438143675_" d="M159,66.4c-5.1,0-8.9-2.5-11.5-7.5
								c-2.6-5-3.8-12.5-3.8-22.5c0-10,1.3-17.5,3.8-22.5c2.6-5,6.4-7.5,11.5-7.5c5.1,0,8.9,2.5,11.5,7.5c2.6,5,3.8,12.5,3.8,22.5
								c0,10-1.3,17.5-3.8,22.5C168,63.9,164.1,66.4,159,66.4z M159,74.2c8.2,0,14.4-3.2,18.7-9.7c4.3-6.5,6.5-15.8,6.5-28.1
								c0-12.3-2.2-21.6-6.5-28.1c-4.3-6.5-10.6-9.7-18.7-9.7c-8.2,0-14.4,3.2-18.7,9.7c-4.3,6.5-6.5,15.8-6.5,28.1
								c0,12.3,2.2,21.7,6.5,28.1C144.6,71,150.9,74.2,159,74.2z"/>
						</g>
					</g>
				</g>
			</g>
			<g id="xtick_4">
				<g id="line2d_4">
					<g>
						<g>
							<path id="mb4ca5c3b18_00000049930217221683876080000004758130983167947691_" class="st26" d="M207.4,247.1v3.5"/>
						</g>
					</g>
				</g>
				<g id="text_4">
					<g transform="translate(195.938386 263.235625) scale(0.12 -0.12)">
						<g>
							<path id="DejaVuSans-31_00000082360275967489821150000007345213158257437061_" d="M12.4,8.3h16.1v55.6L11,60.4v9l17.4,3.5
								h9.9V8.3h16.1V0h-42V8.3z"/>
						</g>
						<g>
							<path id="DejaVuSans-36" d="M96.6,40.4c-4.4,0-7.9-1.5-10.5-4.5c-2.6-3-3.9-7.2-3.9-12.4c0-5.2,1.3-9.4,3.9-12.4
								c2.6-3,6.1-4.6,10.5-4.6c4.4,0,7.9,1.5,10.5,4.6c2.6,3.1,3.9,7.2,3.9,12.4c0,5.3-1.3,9.4-3.9,12.4
								C104.6,38.9,101.1,40.4,96.6,40.4z M116.2,71.3v-9c-2.5,1.2-5,2.1-7.5,2.7c-2.5,0.6-5,0.9-7.5,0.9c-6.5,0-11.5-2.2-14.9-6.6
								c-3.4-4.4-5.4-11-5.9-19.9c1.9,2.8,4.3,5,7.2,6.5c2.9,1.5,6.1,2.3,9.6,2.3c7.3,0,13.1-2.2,17.4-6.7
								c4.2-4.4,6.4-10.5,6.4-18.1c0-7.5-2.2-13.5-6.6-18c-4.4-4.5-10.3-6.8-17.7-6.8c-8.4,0-14.9,3.2-19.3,9.7
								c-4.5,6.5-6.7,15.8-6.7,28.1c0,11.5,2.7,20.7,8.2,27.6s12.8,10.3,22,10.3c2.5,0,5-0.2,7.5-0.7
								C110.8,73,113.5,72.3,116.2,71.3z"/>
						</g>
						<g>
							<path id="DejaVuSans-30_00000142895621569992891630000007803820937589895554_" d="M159,66.4c-5.1,0-8.9-2.5-11.5-7.5
								c-2.6-5-3.8-12.5-3.8-22.5c0-10,1.3-17.5,3.8-22.5c2.6-5,6.4-7.5,11.5-7.5c5.1,0,8.9,2.5,11.5,7.5c2.6,5,3.8,12.5,3.8,22.5
								c0,10-1.3,17.5-3.8,22.5C168,63.9,164.1,66.4,159,66.4z M159,74.2c8.2,0,14.4-3.2,18.7-9.7c4.3-6.5,6.5-15.8,6.5-28.1
								c0-12.3-2.2-21.6-6.5-28.1c-4.3-6.5-10.6-9.7-18.7-9.7c-8.2,0-14.4,3.2-18.7,9.7c-4.3,6.5-6.5,15.8-6.5,28.1
								c0,12.3,2.2,21.7,6.5,28.1C144.6,71,150.9,74.2,159,74.2z"/>
						</g>
					</g>
				</g>
			</g>
			<g id="xtick_5">
				<g id="line2d_5">
					<g>
						<g>
							<path id="mb4ca5c3b18_00000085216431468769004610000003563267006267244716_" class="st26" d="M253.7,247.1v3.5"/>
						</g>
					</g>
				</g>
				<g id="text_5">
					<g transform="translate(242.250564 263.235625) scale(0.12 -0.12)">
						<g>
							<path id="DejaVuSans-31_00000041269917900645424270000015476605249224450437_" d="M12.4,8.3h16.1v55.6L11,60.4v9l17.4,3.5
								h9.9V8.3h16.1V0h-42V8.3z"/>
						</g>
						<g>
							<path id="DejaVuSans-38" d="M95.4,34.6c-4.7,0-8.4-1.3-11.1-3.8c-2.7-2.5-4-6-4-10.3c0-4.4,1.3-7.8,4-10.4
								c2.7-2.5,6.4-3.8,11.1-3.8s8.4,1.3,11.1,3.8c2.7,2.5,4.1,6,4.1,10.3c0,4.4-1.3,7.8-4,10.3C103.8,33.4,100.1,34.6,95.4,34.6z
								 M85.5,38.8c-4.2,1-7.5,3-9.9,5.9c-2.4,2.9-3.5,6.4-3.5,10.6c0,5.8,2.1,10.4,6.2,13.8c4.2,3.4,9.8,5.1,17.1,5.1
								c7.3,0,13-1.7,17.1-5.1c4.1-3.4,6.2-8,6.2-13.8c0-4.2-1.2-7.7-3.5-10.6c-2.4-2.9-5.6-4.9-9.8-5.9c4.8-1.1,8.4-3.3,11.1-6.5
								c2.7-3.2,4-7.2,4-11.8c0-7.1-2.2-12.5-6.5-16.3c-4.3-3.8-10.5-5.7-18.5-5.7c-8,0-14.2,1.9-18.5,5.7
								c-4.3,3.8-6.5,9.2-6.5,16.3c0,4.6,1.3,8.6,4,11.8C77.1,35.5,80.8,37.7,85.5,38.8z M81.9,54.4c0-3.8,1.2-6.7,3.5-8.8
								c2.4-2.1,5.7-3.2,9.9-3.2c4.2,0,7.6,1.1,9.9,3.2c2.4,2.1,3.6,5.1,3.6,8.8c0,3.8-1.2,6.7-3.6,8.8c-2.4,2.1-5.7,3.2-9.9,3.2
								c-4.3,0-7.6-1.1-9.9-3.2C83.1,61.1,81.9,58.2,81.9,54.4z"/>
						</g>
						<g>
							<path id="DejaVuSans-30_00000155123077541631873750000002944156150737830077_" d="M159,66.4c-5.1,0-8.9-2.5-11.5-7.5
								c-2.6-5-3.8-12.5-3.8-22.5c0-10,1.3-17.5,3.8-22.5c2.6-5,6.4-7.5,11.5-7.5c5.1,0,8.9,2.5,11.5,7.5c2.6,5,3.8,12.5,3.8,22.5
								c0,10-1.3,17.5-3.8,22.5C168,63.9,164.1,66.4,159,66.4z M159,74.2c8.2,0,14.4-3.2,18.7-9.7c4.3-6.5,6.5-15.8,6.5-28.1
								c0-12.3-2.2-21.6-6.5-28.1c-4.3-6.5-10.6-9.7-18.7-9.7c-8.2,0-14.4,3.2-18.7,9.7c-4.3,6.5-6.5,15.8-6.5,28.1
								c0,12.3,2.2,21.7,6.5,28.1C144.6,71,150.9,74.2,159,74.2z"/>
						</g>
					</g>
				</g>
			</g>
			<g id="xtick_6">
				<g id="line2d_6">
					<g>
						<g>
							<path id="mb4ca5c3b18_00000049900697360856054630000013086373877691809683_" class="st26" d="M300,247.1v3.5"/>
						</g>
					</g>
				</g>
				<g id="text_6">
					<g transform="translate(288.562742 263.235625) scale(0.12 -0.12)">
						<g>
							<path id="DejaVuSans-32_00000133524442712774902620000016532802501977232770_" d="M19.2,8.3h34.4V0H7.3v8.3
								c3.7,3.9,8.8,9.1,15.3,15.6c6.5,6.5,10.5,10.7,12.2,12.6c3.2,3.5,5.4,6.5,6.6,9c1.3,2.5,1.9,4.9,1.9,7.2c0,3.9-1.4,7-4.1,9.5
								c-2.7,2.4-6.3,3.7-10.6,3.7c-3.1,0-6.4-0.5-9.8-1.6c-3.4-1.1-7.1-2.7-11-4.9v10c4,1.6,7.7,2.8,11.1,3.6
								c3.5,0.8,6.6,1.2,9.5,1.2c7.6,0,13.6-1.9,18.1-5.7c4.5-3.8,6.7-8.8,6.7-15.1c0-3-0.6-5.8-1.7-8.5c-1.1-2.7-3.2-5.8-6.1-9.5
								c-0.8-0.9-3.4-3.7-7.8-8.2C33.3,22.7,27.1,16.4,19.2,8.3z"/>
						</g>
						<g>
							<path id="DejaVuSans-30_00000034779032852100889940000016574745052322994074_" d="M95.4,66.4c-5.1,0-8.9-2.5-11.5-7.5
								c-2.6-5-3.8-12.5-3.8-22.5c0-10,1.3-17.5,3.8-22.5c2.6-5,6.4-7.5,11.5-7.5c5.1,0,8.9,2.5,11.5,7.5c2.6,5,3.8,12.5,3.8,22.5
								c0,10-1.3,17.5-3.8,22.5C104.4,63.9,100.5,66.4,95.4,66.4z M95.4,74.2c8.2,0,14.4-3.2,18.7-9.7c4.3-6.5,6.5-15.8,6.5-28.1
								c0-12.3-2.2-21.6-6.5-28.1c-4.3-6.5-10.6-9.7-18.7-9.7c-8.2,0-14.4,3.2-18.7,9.7c-4.3,6.5-6.5,15.8-6.5,28.1
								c0,12.3,2.2,21.7,6.5,28.1C81,71,87.2,74.2,95.4,74.2z"/>
						</g>
						<g>
							<path id="DejaVuSans-30_00000052799690702871935290000016200853218838143106_" d="M159,66.4c-5.1,0-8.9-2.5-11.5-7.5
								c-2.6-5-3.8-12.5-3.8-22.5c0-10,1.3-17.5,3.8-22.5c2.6-5,6.4-7.5,11.5-7.5c5.1,0,8.9,2.5,11.5,7.5c2.6,5,3.8,12.5,3.8,22.5
								c0,10-1.3,17.5-3.8,22.5C168,63.9,164.1,66.4,159,66.4z M159,74.2c8.2,0,14.4-3.2,18.7-9.7c4.3-6.5,6.5-15.8,6.5-28.1
								c0-12.3-2.2-21.6-6.5-28.1c-4.3-6.5-10.6-9.7-18.7-9.7c-8.2,0-14.4,3.2-18.7,9.7c-4.3,6.5-6.5,15.8-6.5,28.1
								c0,12.3,2.2,21.7,6.5,28.1C144.6,71,150.9,74.2,159,74.2z"/>
						</g>
					</g>
				</g>
			</g>
			<g id="text_7">
				<g transform="translate(91.2975 281.88875) scale(0.16 -0.16)">
					<g>
						<path id="DejaVuSans-53" d="M53.5,70.5v-9.6c-3.7,1.8-7.3,3.1-10.6,4c-3.3,0.9-6.5,1.3-9.6,1.3c-5.4,0-9.5-1-12.4-3.1
							s-4.4-5-4.4-8.9c0-3.2,1-5.7,2.9-7.3c1.9-1.6,5.6-3,11-4l6-1.2c7.4-1.4,12.8-3.9,16.3-7.4s5.2-8.3,5.2-14.2
							c0-7.1-2.4-12.4-7.1-16.1C46.1,0.4,39.1-1.4,30-1.4c-3.4,0-7.1,0.4-11,1.2c-3.9,0.8-7.9,1.9-12.1,3.5v10.2
							c4-2.2,7.9-3.9,11.8-5.1c3.8-1.1,7.6-1.7,11.3-1.7c5.6,0,10,1.1,13,3.3c3.1,2.2,4.6,5.4,4.6,9.5c0,3.6-1.1,6.4-3.3,8.4
							s-5.8,3.5-10.8,4.5l-6,1.2c-7.4,1.5-12.7,3.8-16,6.9c-3.3,3.1-4.9,7.5-4.9,13c0,6.4,2.3,11.5,6.8,15.2s10.8,5.6,18.8,5.6
							c3.4,0,6.9-0.3,10.5-0.9C46.2,72.7,49.8,71.7,53.5,70.5z"/>
					</g>
					<g>
						<path id="DejaVuSans-69" d="M72.9,54.7h9V0h-9V54.7z M72.9,76h9V64.6h-9V76z"/>
					</g>
					<g>
						<path id="DejaVuSans-7a" d="M96.8,54.7h42.7v-8.2L105.7,7.2h33.8V0H95.6v8.2l33.8,39.3H96.8V54.7z"/>
					</g>
					<g>
						<path id="DejaVuSans-65" d="M200,29.6v-4.4h-41.3c0.4-6.2,2.3-10.9,5.6-14.1c3.3-3.2,8-4.9,13.9-4.9c3.4,0,6.8,0.4,10,1.3
							c3.2,0.8,6.5,2.1,9.7,3.8V2.8c-3.2-1.4-6.5-2.4-9.9-3.1c-3.4-0.7-6.8-1.1-10.3-1.1c-8.7,0-15.6,2.5-20.7,7.6
							c-5.1,5.1-7.6,12-7.6,20.6c0,8.9,2.4,16,7.2,21.3c4.8,5.3,11.4,7.9,19.6,7.9c7.4,0,13.2-2.4,17.5-7.1
							C197.8,44.2,200,37.7,200,29.6z M191,32.2c-0.1,4.9-1.4,8.8-4.1,11.8c-2.7,2.9-6.2,4.4-10.7,4.4c-5,0-9-1.4-12-4.2
							c-3-2.8-4.7-6.8-5.2-12L191,32.2z"/>
					</g>
					<g>
						<path id="DejaVuSans-20" d="M205.3,0"/>
					</g>
					<g>
						<path id="DejaVuSans-6f" d="M267.7,48.4c-4.8,0-8.6-1.9-11.4-5.6c-2.8-3.8-4.2-8.9-4.2-15.5s1.4-11.7,4.2-15.5
							c2.8-3.8,6.6-5.6,11.5-5.6c4.8,0,8.6,1.9,11.4,5.7c2.8,3.8,4.2,8.9,4.2,15.4c0,6.5-1.4,11.6-4.2,15.4
							C276.3,46.5,272.5,48.4,267.7,48.4z M267.7,56c7.8,0,13.9-2.5,18.4-7.6c4.5-5.1,6.7-12.1,6.7-21.1c0-8.9-2.2-16-6.7-21.1
							c-4.5-5.1-10.6-7.6-18.4-7.6c-7.8,0-14,2.5-18.4,7.6c-4.4,5.1-6.7,12.1-6.7,21.1c0,9,2.2,16,6.7,21.1
							C253.7,53.5,259.8,56,267.7,56z"/>
					</g>
					<g>
						<path id="DejaVuSans-66" d="M335.4,76v-7.5h-8.6c-3.2,0-5.5-0.7-6.7-2c-1.2-1.3-1.9-3.6-1.9-7v-4.8H333v-7h-14.8V0h-9v47.7
							h-8.6v7h8.6v3.8c0,6.1,1.4,10.5,4.2,13.3c2.8,2.8,7.3,4.2,13.5,4.2H335.4z"/>
					</g>
					<g>
						<path id="DejaVuSans-20_00000132067363440543312600000013901145127125162174_" d="M333.4,0"/>
					</g>
					<g>
						<path id="DejaVuSans-63" d="M414,52.6v-8.4c-2.5,1.4-5.1,2.5-7.6,3.2c-2.6,0.7-5.1,1-7.7,1c-5.8,0-10.4-1.8-13.6-5.5
							c-3.2-3.7-4.8-8.9-4.8-15.5s1.6-11.9,4.8-15.6c3.2-3.7,7.8-5.5,13.6-5.5c2.6,0,5.2,0.3,7.7,1c2.6,0.7,5.1,1.8,7.6,3.2V2.1
							c-2.5-1.2-5.1-2-7.8-2.6c-2.7-0.6-5.5-0.9-8.6-0.9c-8.2,0-14.8,2.6-19.6,7.8c-4.8,5.2-7.3,12.2-7.3,21c0,8.9,2.4,15.9,7.3,21
							c4.9,5.1,11.6,7.7,20.2,7.7c2.8,0,5.5-0.3,8.1-0.9C409,54.6,411.5,53.7,414,52.6z"/>
					</g>
					<g>
						<path id="DejaVuSans-6f_00000034768075555577098950000004501946164557486727_" d="M450.8,48.4c-4.8,0-8.6-1.9-11.4-5.6
							c-2.8-3.8-4.2-8.9-4.2-15.5s1.4-11.7,4.2-15.5c2.8-3.8,6.6-5.6,11.5-5.6c4.8,0,8.6,1.9,11.4,5.7c2.8,3.8,4.2,8.9,4.2,15.4
							c0,6.5-1.4,11.6-4.2,15.4C459.4,46.5,455.6,48.4,450.8,48.4z M450.8,56c7.8,0,13.9-2.5,18.4-7.6c4.5-5.1,6.7-12.1,6.7-21.1
							c0-8.9-2.2-16-6.7-21.1c-4.5-5.1-10.6-7.6-18.4-7.6c-7.8,0-14,2.5-18.4,7.6c-4.4,5.1-6.7,12.1-6.7,21.1c0,9,2.2,16,6.7,21.1
							C436.8,53.5,443,56,450.8,56z"/>
					</g>
					<g>
						<path id="DejaVuSans-6c" d="M490.8,76h9V0h-9V76z"/>
					</g>
					<g>
						<path id="DejaVuSans-6f_00000176039520269130426610000009273826796078535342_" d="M539.8,48.4c-4.8,0-8.6-1.9-11.4-5.6
							c-2.8-3.8-4.2-8.9-4.2-15.5s1.4-11.7,4.2-15.5c2.8-3.8,6.6-5.6,11.5-5.6c4.8,0,8.6,1.9,11.4,5.7c2.8,3.8,4.2,8.9,4.2,15.4
							c0,6.5-1.4,11.6-4.2,15.4C548.4,46.5,544.6,48.4,539.8,48.4z M539.8,56c7.8,0,13.9-2.5,18.4-7.6c4.5-5.1,6.7-12.1,6.7-21.1
							c0-8.9-2.2-16-6.7-21.1c-4.5-5.1-10.6-7.6-18.4-7.6c-7.8,0-14,2.5-18.4,7.6c-4.4,5.1-6.7,12.1-6.7,21.1c0,9,2.2,16,6.7,21.1
							C525.8,53.5,531.9,56,539.8,56z"/>
					</g>
					<g>
						<path id="DejaVuSans-63_00000003791304631503403290000010821318981491658639_" d="M619.1,52.6v-8.4c-2.5,1.4-5.1,2.5-7.6,3.2
							c-2.6,0.7-5.1,1-7.7,1c-5.8,0-10.4-1.8-13.6-5.5c-3.2-3.7-4.8-8.9-4.8-15.5s1.6-11.9,4.8-15.6c3.2-3.7,7.8-5.5,13.6-5.5
							c2.6,0,5.2,0.3,7.7,1c2.6,0.7,5.1,1.8,7.6,3.2V2.1c-2.5-1.2-5.1-2-7.8-2.6c-2.7-0.6-5.5-0.9-8.6-0.9c-8.2,0-14.8,2.6-19.6,7.8
							c-4.8,5.2-7.3,12.2-7.3,21c0,8.9,2.4,15.9,7.3,21c4.9,5.1,11.6,7.7,20.2,7.7c2.8,0,5.5-0.3,8.1-0.9
							C614.1,54.6,616.7,53.7,619.1,52.6z"/>
					</g>
					<g>
						<path id="DejaVuSans-61" d="M659.6,27.5c-7.3,0-12.3-0.8-15.1-2.5c-2.8-1.7-4.2-4.5-4.2-8.5c0-3.2,1.1-5.7,3.2-7.6
							c2.1-1.9,5-2.8,8.6-2.8c5,0,9,1.8,12,5.3c3,3.5,4.5,8.2,4.5,14.1v2H659.6z M677.5,31.2V0h-9v8.3C666.5,5,664,2.5,660.9,1
							s-6.8-2.4-11.2-2.4c-5.6,0-10,1.6-13.4,4.7c-3.3,3.1-5,7.4-5,12.6c0,6.1,2.1,10.8,6.2,13.9c4.1,3.1,10.3,4.7,18.4,4.7h12.6
							v0.9c0,4.1-1.4,7.3-4.1,9.6s-6.5,3.4-11.5,3.4c-3.1,0-6.2-0.4-9.1-1.1c-3-0.8-5.8-1.9-8.5-3.4v8.3c3.3,1.3,6.5,2.2,9.6,2.8
							c3.1,0.6,6.1,1,9,1c7.9,0,13.8-2.1,17.7-6.2C675.6,45.7,677.5,39.5,677.5,31.2z"/>
					</g>
					<g>
						<path id="DejaVuSans-6c_00000116938455126570218050000010333968365940135308_" d="M696,76h9V0h-9V76z"/>
					</g>
					<g>
						<path id="DejaVuSans-69_00000001628517477766909030000003900902243511221896_" d="M723.8,54.7h9V0h-9V54.7z M723.8,76h9V64.6
							h-9V76z"/>
					</g>
					<g>
						<path id="DejaVuSans-7a_00000007409579554920810000000008653249368497091007_" d="M747.7,54.7h42.7v-8.2L756.6,7.2h33.8V0
							h-43.9v8.2l33.8,39.3h-32.6V54.7z"/>
					</g>
					<g>
						<path id="DejaVuSans-65_00000026850956410263022250000015828409900846018448_" d="M850.9,29.6v-4.4h-41.3
							c0.4-6.2,2.3-10.9,5.6-14.1c3.3-3.2,8-4.9,13.9-4.9c3.4,0,6.8,0.4,10,1.3c3.2,0.8,6.5,2.1,9.7,3.8V2.8
							c-3.2-1.4-6.5-2.4-9.9-3.1c-3.4-0.7-6.8-1.1-10.3-1.1c-8.7,0-15.6,2.5-20.7,7.6c-5.1,5.1-7.6,12-7.6,20.6
							c0,8.9,2.4,16,7.2,21.3c4.8,5.3,11.4,7.9,19.6,7.9c7.4,0,13.2-2.4,17.5-7.1C848.7,44.2,850.9,37.7,850.9,29.6z M841.9,32.2
							c-0.1,4.9-1.4,8.8-4.1,11.8c-2.7,2.9-6.2,4.4-10.7,4.4c-5,0-9-1.4-12-4.2c-3-2.8-4.7-6.8-5.2-12L841.9,32.2z"/>
					</g>
					<g>
						<path id="DejaVuSans-64" d="M901.6,46.4V76h9V0h-9v8.2c-1.9-3.2-4.3-5.7-7.2-7.2c-2.9-1.6-6.3-2.4-10.4-2.4
							c-6.6,0-12,2.6-16.1,7.9c-4.1,5.3-6.2,12.2-6.2,20.8s2.1,15.5,6.2,20.8c4.2,5.3,9.5,7.9,16.1,7.9c4,0,7.5-0.8,10.4-2.4
							C897.3,52.1,899.7,49.6,901.6,46.4z M871,27.3c0-6.6,1.4-11.8,4.1-15.5s6.5-5.6,11.2-5.6s8.5,1.9,11.2,5.6
							c2.7,3.8,4.1,8.9,4.1,15.5s-1.4,11.8-4.1,15.5c-2.7,3.8-6.5,5.6-11.2,5.6s-8.5-1.9-11.2-5.6S871,33.9,871,27.3z"/>
					</g>
					<g>
						<path id="DejaVuSans-20_00000150789727183453618530000004270778806769256895_" d="M919.7,0"/>
					</g>
					<g>
						<path id="DejaVuSans-6e" d="M1006.4,33V0h-9v32.7c0,5.2-1,9-3,11.6c-2,2.6-5,3.9-9.1,3.9c-4.9,0-8.7-1.5-11.5-4.6
							c-2.8-3.1-4.2-7.3-4.2-12.6V0h-9v54.7h9v-8.5c2.2,3.3,4.7,5.8,7.6,7.4c2.9,1.6,6.3,2.4,10.1,2.4c6.3,0,11-1.9,14.2-5.8
							C1004.7,46.3,1006.4,40.6,1006.4,33z"/>
					</g>
					<g>
						<path id="DejaVuSans-65_00000125567722744049080180000011314770853515220885_" d="M1071,29.6v-4.4h-41.3
							c0.4-6.2,2.3-10.9,5.6-14.1c3.3-3.2,8-4.9,13.9-4.9c3.4,0,6.8,0.4,10,1.3c3.2,0.8,6.5,2.1,9.7,3.8V2.8
							c-3.2-1.4-6.5-2.4-9.9-3.1c-3.4-0.7-6.8-1.1-10.3-1.1c-8.7,0-15.6,2.5-20.7,7.6c-5.1,5.1-7.6,12-7.6,20.6
							c0,8.9,2.4,16,7.2,21.3c4.8,5.3,11.4,7.9,19.6,7.9c7.4,0,13.2-2.4,17.5-7.1C1068.9,44.2,1071,37.7,1071,29.6z M1062.1,32.2
							c-0.1,4.9-1.4,8.8-4.1,11.8c-2.7,2.9-6.2,4.4-10.7,4.4c-5,0-9-1.4-12-4.2c-3-2.8-4.7-6.8-5.2-12L1062.1,32.2z"/>
					</g>
					<g>
						<path id="DejaVuSans-74" d="M1094.7,70.2V54.7h18.5v-7h-18.5V18c0-4.5,0.6-7.3,1.8-8.6s3.7-1.9,7.5-1.9h9.2V0h-9.2
							c-6.9,0-11.7,1.3-14.4,3.9c-2.6,2.6-4,7.3-4,14.1v29.7h-6.6v7h6.6v15.5H1094.7z"/>
					</g>
					<g>
						<path id="DejaVuSans-77" d="M1119.8,54.7h9L1140,12l11.2,42.7h10.6L1173,12l11.2,42.7h9L1178.9,0h-10.6l-11.8,44.8L1144.7,0
							h-10.6L1119.8,54.7z"/>
					</g>
					<g>
						<path id="DejaVuSans-6f_00000147931497529649340620000004377014164268299959_" d="M1228,48.4c-4.8,0-8.6-1.9-11.4-5.6
							c-2.8-3.8-4.2-8.9-4.2-15.5s1.4-11.7,4.2-15.5c2.8-3.8,6.6-5.6,11.5-5.6c4.8,0,8.6,1.9,11.4,5.7c2.8,3.8,4.2,8.9,4.2,15.4
							c0,6.5-1.4,11.6-4.2,15.4C1236.6,46.5,1232.8,48.4,1228,48.4z M1228,56c7.8,0,13.9-2.5,18.4-7.6c4.5-5.1,6.7-12.1,6.7-21.1
							c0-8.9-2.2-16-6.7-21.1c-4.5-5.1-10.6-7.6-18.4-7.6c-7.8,0-14,2.5-18.4,7.6c-4.4,5.1-6.7,12.1-6.7,21.1c0,9,2.2,16,6.7,21.1
							C1214,53.5,1220.1,56,1228,56z"/>
					</g>
					<g>
						<path id="DejaVuSans-72" d="M1299.7,46.3c-1,0.6-2.1,1-3.3,1.3c-1.2,0.3-2.5,0.4-3.9,0.4c-5.1,0-9-1.7-11.7-5s-4.1-8-4.1-14.2
							V0h-9v54.7h9v-8.5c1.9,3.3,4.4,5.8,7.4,7.4c3,1.6,6.7,2.4,11,2.4c0.6,0,1.3,0,2-0.1c0.8-0.1,1.6-0.2,2.5-0.4L1299.7,46.3z"/>
					</g>
					<g>
						<path id="DejaVuSans-6b" d="M1308.7,76h9V31.1l26.8,23.6h11.5l-29-25.6L1357.3,0h-11.7l-27.8,26.7V0h-9V76z"/>
					</g>
				</g>
			</g>
		</g>
		<g id="matplotlib.axis_2">
			<g id="ytick_1">
				<g id="line2d_7">
					<g>
						<g>
							<path id="m7ef2819019" class="st26" d="M60.4,247.1h-3.5"/>
						</g>
					</g>
				</g>
				<g id="text_8">
					<g transform="translate(26.685 251.676563) scale(0.12 -0.12)">
						<g>
							<path id="DejaVuSans-30_00000171681066817271122790000014776175813254856367_" d="M31.8,66.4c-5.1,0-8.9-2.5-11.5-7.5
								c-2.6-5-3.8-12.5-3.8-22.5c0-10,1.3-17.5,3.8-22.5c2.6-5,6.4-7.5,11.5-7.5c5.1,0,8.9,2.5,11.5,7.5c2.6,5,3.8,12.5,3.8,22.5
								c0,10-1.3,17.5-3.8,22.5C40.7,63.9,36.9,66.4,31.8,66.4z M31.8,74.2c8.2,0,14.4-3.2,18.7-9.7c4.3-6.5,6.5-15.8,6.5-28.1
								c0-12.3-2.2-21.6-6.5-28.1C46.2,1.8,40-1.4,31.8-1.4c-8.2,0-14.4,3.2-18.7,9.7c-4.3,6.5-6.5,15.8-6.5,28.1
								c0,12.3,2.2,21.7,6.5,28.1C17.4,71,23.6,74.2,31.8,74.2z"/>
						</g>
						<g>
							<path id="DejaVuSans-2e" d="M74.3,12.4h10.3V0H74.3V12.4z"/>
						</g>
						<g>
							<path id="DejaVuSans-30_00000101093558130042419650000016747910797899489202_" d="M127.2,66.4c-5.1,0-8.9-2.5-11.5-7.5
								c-2.6-5-3.8-12.5-3.8-22.5c0-10,1.3-17.5,3.8-22.5c2.6-5,6.4-7.5,11.5-7.5c5.1,0,8.9,2.5,11.5,7.5c2.6,5,3.8,12.5,3.8,22.5
								c0,10-1.3,17.5-3.8,22.5C136.1,63.9,132.3,66.4,127.2,66.4z M127.2,74.2c8.2,0,14.4-3.2,18.7-9.7c4.3-6.5,6.5-15.8,6.5-28.1
								c0-12.3-2.2-21.6-6.5-28.1c-4.3-6.5-10.6-9.7-18.7-9.7c-8.2,0-14.4,3.2-18.7,9.7c-4.3,6.5-6.5,15.8-6.5,28.1
								c0,12.3,2.2,21.7,6.5,28.1C112.8,71,119,74.2,127.2,74.2z"/>
						</g>
						<g>
							<path id="DejaVuSans-30_00000163753713381426789860000000765323726804857474_" d="M190.8,66.4c-5.1,0-8.9-2.5-11.5-7.5
								c-2.6-5-3.8-12.5-3.8-22.5c0-10,1.3-17.5,3.8-22.5c2.6-5,6.4-7.5,11.5-7.5c5.1,0,8.9,2.5,11.5,7.5c2.6,5,3.8,12.5,3.8,22.5
								c0,10-1.3,17.5-3.8,22.5C199.8,63.9,195.9,66.4,190.8,66.4z M190.8,74.2c8.2,0,14.4-3.2,18.7-9.7c4.3-6.5,6.5-15.8,6.5-28.1
								c0-12.3-2.2-21.6-6.5-28.1c-4.3-6.5-10.6-9.7-18.7-9.7c-8.2,0-14.4,3.2-18.7,9.7c-4.3,6.5-6.5,15.8-6.5,28.1
								c0,12.3,2.2,21.7,6.5,28.1C176.4,71,182.6,74.2,190.8,74.2z"/>
						</g>
					</g>
				</g>
			</g>
			<g id="ytick_2">
				<g id="line2d_8">
					<g>
						<g>
							<path id="m7ef2819019_00000030465082283086143480000003984856125386517166_" class="st26" d="M60.4,190.6h-3.5"/>
						</g>
					</g>
				</g>
				<g id="text_9">
					<g transform="translate(26.685 195.189193) scale(0.12 -0.12)">
						<g>
							<path id="DejaVuSans-30_00000183936493416633792700000010070135099613625768_" d="M31.8,66.4c-5.1,0-8.9-2.5-11.5-7.5
								c-2.6-5-3.8-12.5-3.8-22.5c0-10,1.3-17.5,3.8-22.5c2.6-5,6.4-7.5,11.5-7.5c5.1,0,8.9,2.5,11.5,7.5c2.6,5,3.8,12.5,3.8,22.5
								c0,10-1.3,17.5-3.8,22.5C40.7,63.9,36.9,66.4,31.8,66.4z M31.8,74.2c8.2,0,14.4-3.2,18.7-9.7c4.3-6.5,6.5-15.8,6.5-28.1
								c0-12.3-2.2-21.6-6.5-28.1C46.2,1.8,40-1.4,31.8-1.4c-8.2,0-14.4,3.2-18.7,9.7c-4.3,6.5-6.5,15.8-6.5,28.1
								c0,12.3,2.2,21.7,6.5,28.1C17.4,71,23.6,74.2,31.8,74.2z"/>
						</g>
						<g>
							<path id="DejaVuSans-2e_00000001632530330057254580000017506191071334574992_" d="M74.3,12.4h10.3V0H74.3V12.4z"/>
						</g>
						<g>
							<path id="DejaVuSans-30_00000150823055329604560650000007908233331138277012_" d="M127.2,66.4c-5.1,0-8.9-2.5-11.5-7.5
								c-2.6-5-3.8-12.5-3.8-22.5c0-10,1.3-17.5,3.8-22.5c2.6-5,6.4-7.5,11.5-7.5c5.1,0,8.9,2.5,11.5,7.5c2.6,5,3.8,12.5,3.8,22.5
								c0,10-1.3,17.5-3.8,22.5C136.1,63.9,132.3,66.4,127.2,66.4z M127.2,74.2c8.2,0,14.4-3.2,18.7-9.7c4.3-6.5,6.5-15.8,6.5-28.1
								c0-12.3-2.2-21.6-6.5-28.1c-4.3-6.5-10.6-9.7-18.7-9.7c-8.2,0-14.4,3.2-18.7,9.7c-4.3,6.5-6.5,15.8-6.5,28.1
								c0,12.3,2.2,21.7,6.5,28.1C112.8,71,119,74.2,127.2,74.2z"/>
						</g>
						<g>
							<path id="DejaVuSans-31_00000052063940556866853450000007465367308941217162_" d="M171.4,8.3h16.1v55.6L170,60.4v9l17.4,3.5
								h9.9V8.3h16.1V0h-42V8.3z"/>
						</g>
					</g>
				</g>
			</g>
			<g id="ytick_3">
				<g id="line2d_9">
					<g>
						<g>
							<path id="m7ef2819019_00000017481082746486046790000015016346796723321012_" class="st26" d="M60.4,134.1h-3.5"/>
						</g>
					</g>
				</g>
				<g id="text_10">
					<g transform="translate(26.685 138.701823) scale(0.12 -0.12)">
						<g>
							<path id="DejaVuSans-30_00000088832512495494564630000012522789725956709047_" d="M31.8,66.4c-5.1,0-8.9-2.5-11.5-7.5
								c-2.6-5-3.8-12.5-3.8-22.5c0-10,1.3-17.5,3.8-22.5c2.6-5,6.4-7.5,11.5-7.5c5.1,0,8.9,2.5,11.5,7.5c2.6,5,3.8,12.5,3.8,22.5
								c0,10-1.3,17.5-3.8,22.5C40.7,63.9,36.9,66.4,31.8,66.4z M31.8,74.2c8.2,0,14.4-3.2,18.7-9.7c4.3-6.5,6.5-15.8,6.5-28.1
								c0-12.3-2.2-21.6-6.5-28.1C46.2,1.8,40-1.4,31.8-1.4c-8.2,0-14.4,3.2-18.7,9.7c-4.3,6.5-6.5,15.8-6.5,28.1
								c0,12.3,2.2,21.7,6.5,28.1C17.4,71,23.6,74.2,31.8,74.2z"/>
						</g>
						<g>
							<path id="DejaVuSans-2e_00000052088539814916274550000013916151149946566060_" d="M74.3,12.4h10.3V0H74.3V12.4z"/>
						</g>
						<g>
							<path id="DejaVuSans-30_00000163773624906713872580000014594965865047990695_" d="M127.2,66.4c-5.1,0-8.9-2.5-11.5-7.5
								c-2.6-5-3.8-12.5-3.8-22.5c0-10,1.3-17.5,3.8-22.5c2.6-5,6.4-7.5,11.5-7.5c5.1,0,8.9,2.5,11.5,7.5c2.6,5,3.8,12.5,3.8,22.5
								c0,10-1.3,17.5-3.8,22.5C136.1,63.9,132.3,66.4,127.2,66.4z M127.2,74.2c8.2,0,14.4-3.2,18.7-9.7c4.3-6.5,6.5-15.8,6.5-28.1
								c0-12.3-2.2-21.6-6.5-28.1c-4.3-6.5-10.6-9.7-18.7-9.7c-8.2,0-14.4,3.2-18.7,9.7c-4.3,6.5-6.5,15.8-6.5,28.1
								c0,12.3,2.2,21.7,6.5,28.1C112.8,71,119,74.2,127.2,74.2z"/>
						</g>
						<g>
							<path id="DejaVuSans-32_00000082360624843066127940000009712571547981473672_" d="M178.2,8.3h34.4V0h-46.3v8.3
								c3.7,3.9,8.8,9.1,15.3,15.6c6.5,6.5,10.5,10.7,12.2,12.6c3.2,3.5,5.4,6.5,6.6,9c1.3,2.5,1.9,4.9,1.9,7.2c0,3.9-1.4,7-4.1,9.5
								c-2.7,2.4-6.3,3.7-10.6,3.7c-3.1,0-6.4-0.5-9.8-1.6c-3.4-1.1-7.1-2.7-11-4.9v10c4,1.6,7.7,2.8,11.1,3.6
								c3.5,0.8,6.6,1.2,9.5,1.2c7.6,0,13.6-1.9,18.1-5.7c4.5-3.8,6.7-8.8,6.7-15.1c0-3-0.6-5.8-1.7-8.5c-1.1-2.7-3.2-5.8-6.1-9.5
								c-0.8-0.9-3.4-3.7-7.8-8.2C192.3,22.7,186.2,16.4,178.2,8.3z"/>
						</g>
					</g>
				</g>
			</g>
			<g id="ytick_4">
				<g id="line2d_10">
					<g>
						<g>
							<path id="m7ef2819019_00000155107749392632596970000004578148958004696763_" class="st26" d="M60.4,77.7h-3.5"/>
						</g>
					</g>
				</g>
				<g id="text_11">
					<g transform="translate(26.685 82.214453) scale(0.12 -0.12)">
						<g>
							<path id="DejaVuSans-30_00000075137815025028071960000004633528532651469974_" d="M31.8,66.4c-5.1,0-8.9-2.5-11.5-7.5
								c-2.6-5-3.8-12.5-3.8-22.5c0-10,1.3-17.5,3.8-22.5c2.6-5,6.4-7.5,11.5-7.5c5.1,0,8.9,2.5,11.5,7.5c2.6,5,3.8,12.5,3.8,22.5
								c0,10-1.3,17.5-3.8,22.5C40.7,63.9,36.9,66.4,31.8,66.4z M31.8,74.2c8.2,0,14.4-3.2,18.7-9.7c4.3-6.5,6.5-15.8,6.5-28.1
								c0-12.3-2.2-21.6-6.5-28.1C46.2,1.8,40-1.4,31.8-1.4c-8.2,0-14.4,3.2-18.7,9.7c-4.3,6.5-6.5,15.8-6.5,28.1
								c0,12.3,2.2,21.7,6.5,28.1C17.4,71,23.6,74.2,31.8,74.2z"/>
						</g>
						<g>
							<path id="DejaVuSans-2e_00000157279973648892233030000003300752800365102985_" d="M74.3,12.4h10.3V0H74.3V12.4z"/>
						</g>
						<g>
							<path id="DejaVuSans-30_00000080195331116922443580000012272120192156012444_" d="M127.2,66.4c-5.1,0-8.9-2.5-11.5-7.5
								c-2.6-5-3.8-12.5-3.8-22.5c0-10,1.3-17.5,3.8-22.5c2.6-5,6.4-7.5,11.5-7.5c5.1,0,8.9,2.5,11.5,7.5c2.6,5,3.8,12.5,3.8,22.5
								c0,10-1.3,17.5-3.8,22.5C136.1,63.9,132.3,66.4,127.2,66.4z M127.2,74.2c8.2,0,14.4-3.2,18.7-9.7c4.3-6.5,6.5-15.8,6.5-28.1
								c0-12.3-2.2-21.6-6.5-28.1c-4.3-6.5-10.6-9.7-18.7-9.7c-8.2,0-14.4,3.2-18.7,9.7c-4.3,6.5-6.5,15.8-6.5,28.1
								c0,12.3,2.2,21.7,6.5,28.1C112.8,71,119,74.2,127.2,74.2z"/>
						</g>
						<g>
							<path id="DejaVuSans-33" d="M199.6,39.3c4.7-1,8.4-3.1,11-6.3c2.7-3.2,4-7.1,4-11.8c0-7.2-2.5-12.8-7.4-16.7
								c-4.9-3.9-12-5.9-21.1-5.9c-3.1,0-6.2,0.3-9.4,0.9s-6.6,1.5-10,2.7v9.5c2.7-1.6,5.7-2.8,9-3.6c3.3-0.8,6.7-1.2,10.2-1.2
								c6.2,0,10.9,1.2,14.1,3.7s4.9,6,4.9,10.6c0,4.3-1.5,7.7-4.5,10.1c-3,2.4-7.2,3.6-12.6,3.6h-8.5V43h8.9c4.8,0,8.6,1,11.1,2.9
								c2.6,1.9,3.9,4.7,3.9,8.4c0,3.7-1.3,6.6-4,8.6c-2.6,2-6.4,3-11.4,3c-2.7,0-5.6-0.3-8.7-0.9c-3.1-0.6-6.5-1.5-10.2-2.7v8.8
								c3.8,1,7.3,1.8,10.5,2.3s6.4,0.8,9.2,0.8c7.5,0,13.4-1.7,17.8-5.1c4.4-3.4,6.5-8,6.5-13.8c0-4-1.2-7.5-3.5-10.2
								C207.2,42.3,203.9,40.4,199.6,39.3z"/>
						</g>
					</g>
				</g>
			</g>
			<g id="text_12">
				<g transform="translate(19.3575 166.65125) rotate(-90) scale(0.16 -0.16)">
					<g>
						<path id="DejaVuSans-44" d="M19.7,64.8V8.1h11.9c10.1,0,17.4,2.3,22.1,6.8c4.7,4.6,7,11.8,7,21.6c0,9.8-2.3,16.9-7,21.5
							s-12,6.8-22.1,6.8H19.7z M9.8,72.9h20.3c14.1,0,24.5-2.9,31.1-8.8c6.6-5.9,9.9-15.1,9.9-27.6c0-12.6-3.3-21.8-10-27.7
							c-6.6-5.9-17-8.8-31-8.8H9.8V72.9z"/>
					</g>
					<g>
						<path id="DejaVuSans-65_00000082326112580537411910000004725174894011614850_" d="M133.2,29.6v-4.4H91.9
							c0.4-6.2,2.3-10.9,5.6-14.1c3.3-3.2,8-4.9,13.9-4.9c3.4,0,6.8,0.4,10,1.3c3.2,0.8,6.5,2.1,9.7,3.8V2.8
							c-3.2-1.4-6.5-2.4-9.9-3.1c-3.4-0.7-6.8-1.1-10.3-1.1c-8.7,0-15.6,2.5-20.7,7.6c-5.1,5.1-7.6,12-7.6,20.6
							c0,8.9,2.4,16,7.2,21.3c4.8,5.3,11.4,7.9,19.6,7.9c7.4,0,13.2-2.4,17.5-7.1C131.1,44.2,133.2,37.7,133.2,29.6z M124.2,32.2
							c-0.1,4.9-1.4,8.8-4.1,11.8c-2.7,2.9-6.2,4.4-10.7,4.4c-5,0-9-1.4-12-4.2c-3-2.8-4.7-6.8-5.2-12L124.2,32.2z"/>
					</g>
					<g>
						<path id="DejaVuSans-6e_00000132793901695343549710000017273518526110058405_" d="M193.4,33V0h-9v32.7c0,5.2-1,9-3,11.6
							c-2,2.6-5,3.9-9.1,3.9c-4.9,0-8.7-1.5-11.5-4.6c-2.8-3.1-4.2-7.3-4.2-12.6V0h-9v54.7h9v-8.5c2.2,3.3,4.7,5.8,7.6,7.4
							c2.9,1.6,6.3,2.4,10.1,2.4c6.3,0,11-1.9,14.2-5.8C191.8,46.3,193.4,40.6,193.4,33z"/>
					</g>
					<g>
						<path id="DejaVuSans-73" d="M246.2,53.1v-8.5c-2.5,1.3-5.2,2.3-7.9,2.9c-2.7,0.7-5.6,1-8.5,1c-4.5,0-7.8-0.7-10-2
							c-2.2-1.4-3.3-3.4-3.3-6.2c0-2.1,0.8-3.7,2.4-4.9s4.8-2.3,9.6-3.4l3.1-0.7c6.4-1.4,10.9-3.3,13.6-5.8s4-6,4-10.4
							c0-5.1-2-9.1-6-12.1c-4-3-9.5-4.4-16.6-4.4c-2.9,0-6,0.3-9.2,0.9c-3.2,0.6-6.5,1.4-10,2.6v9.3c3.3-1.7,6.6-3,9.8-3.9
							c3.2-0.9,6.4-1.3,9.6-1.3c4.2,0,7.5,0.7,9.8,2.2c2.3,1.4,3.4,3.5,3.4,6.1c0,2.4-0.8,4.3-2.5,5.6c-1.6,1.3-5.2,2.6-10.8,3.8
							l-3.1,0.7c-5.6,1.2-9.6,3-12.1,5.4c-2.5,2.4-3.7,5.8-3.7,10c0,5.1,1.8,9.1,5.5,11.9c3.6,2.8,8.8,4.2,15.5,4.2
							c3.3,0,6.4-0.2,9.4-0.7C241,54.8,243.7,54.1,246.2,53.1z"/>
					</g>
					<g>
						<path id="DejaVuSans-69_00000167397173220252422290000011068339888214694322_" d="M263.4,54.7h9V0h-9V54.7z M263.4,76h9V64.6
							h-9V76z"/>
					</g>
					<g>
						<path id="DejaVuSans-74_00000022535085821659389380000011921267858340715452_" d="M300.1,70.2V54.7h18.5v-7h-18.5V18
							c0-4.5,0.6-7.3,1.8-8.6s3.7-1.9,7.5-1.9h9.2V0h-9.2c-6.9,0-11.7,1.3-14.4,3.9c-2.6,2.6-4,7.3-4,14.1v29.7h-6.6v7h6.6v15.5
							H300.1z"/>
					</g>
					<g>
						<path id="DejaVuSans-79" d="M353.2-5.1c-2.5-6.5-5-10.8-7.4-12.7c-2.4-2-5.6-3-9.7-3h-7.2v7.5h5.3c2.5,0,4.4,0.6,5.8,1.8
							c1.4,1.2,2.9,3.9,4.5,8.3l1.6,4.1L324,54.7h9.5l17.1-42.8l17.1,42.8h9.5L353.2-5.1z"/>
					</g>
				</g>
			</g>
		</g>
		<g id="line2d_11">
			<g>
				<defs>
					<rect id="SVGID_00000057128173293155542890000001052686580818711992_" x="60.4" y="25.4" width="279" height="221.8"/>
				</defs>
				<clipPath id="SVGID_00000116218151512261384870000018201347298336546210_">
					<use xlink:href="#SVGID_00000057128173293155542890000001052686580818711992_"  style="overflow:visible;"/>
				</clipPath>
				
					<path style="clip-path:url(#SVGID_00000116218151512261384870000018201347298336546210_);fill:none;stroke:#CCCCCC;stroke-width:1.5;stroke-linecap:square;stroke-linejoin:round;" d="
					M73.1,247l9.4-0.1l16.8-0.7l2.1-0.5l2.1-0.8l2.1-1l2.1-1.2l2.1-1.5l2.1-1.8l2.1-2.1l3.1-3.5l3.1-4l2.1-3l2.1-3.4l2.1-4l2.1-4.8
					l2.1-5.8l2.1-6.8l2.1-7.6l2.1-8.3l2.1-9l2.1-9.7l8.4-40.4l3.1-13.2l4.2-16.7l3.1-11.5l2.1-7l3.1-9.6l3.1-8.7l1-2.6l1-2.3l1-1.8
					l1-1.2l1-0.5l1,0.2l1,0.8l1,1.2l3.1,4.1l2.1,2.1l2.1,1.8l1,1l1,1.3l1,1.7l1,2.1l1,2.5l1,3l2.1,7l2.1,8l3.1,13.3l3.1,13.6
					l2.1,8.1l5.2,19.2l2.1,8.8l7.3,32.7l2.1,7.8l2.1,6.7l2.1,6l3.1,8.2l2.1,4.8l2.1,4l2.1,3.2l2.1,2.7l2.1,2.4l3.1,3.1l6.3,5.7
					l2.1,1.7l2.1,1.5l2.1,1.2l2.1,1l2.1,0.8l2.1,0.6l2.1,0.4l2.1,0.2l3.1,0.1l14.7,0.1l0,0"/>
			</g>
		</g>
		<g id="patch_28">
			<path class="st28" d="M60.4,247.1V25.4"/>
		</g>
		<g id="patch_29">
			<path class="st28" d="M339.4,247.1V25.4"/>
		</g>
		<g id="patch_30">
			<path class="st28" d="M60.4,247.1h279"/>
		</g>
		<g id="patch_31">
			<path class="st28" d="M60.4,25.4h279"/>
		</g>
		<g id="text_13">
			<g transform="translate(143.535 19.3575) scale(0.16 -0.16)">
				<g>
					<path id="DejaVuSans-20_00000170239682153692087520000016011588884416534704_" class="st29" d="M0,0"/>
				</g>
				<g>
					<path id="DejaVuSans-28" d="M62.8,75.9c-4.4-7.5-7.6-14.9-9.7-22.2c-2.1-7.3-3.2-14.7-3.2-22.3c0-7.5,1.1-15,3.2-22.3
						c2.1-7.4,5.4-14.8,9.7-22.2H55C50.1-5.5,46.4,2,44,9.4s-3.6,14.7-3.6,22c0,7.3,1.2,14.6,3.6,21.9c2.4,7.4,6.1,14.9,11,22.6
						H62.8z"/>
				</g>
				<g>
					<path id="DejaVuSans-70" d="M88.9,8.2v-29h-9v75.5h9v-8.3c1.9,3.2,4.3,5.7,7.2,7.2c2.9,1.6,6.3,2.4,10.3,2.4
						c6.6,0,12-2.6,16.2-7.9c4.2-5.3,6.2-12.2,6.2-20.8s-2.1-15.5-6.2-20.8c-4.1-5.3-9.5-7.9-16.2-7.9c-4,0-7.4,0.8-10.3,2.4
						C93.2,2.5,90.8,5,88.9,8.2z M119.5,27.3c0,6.6-1.4,11.8-4.1,15.5s-6.5,5.6-11.2,5.6c-4.8,0-8.5-1.9-11.2-5.6s-4.1-8.9-4.1-15.5
						s1.4-11.8,4.1-15.5s6.5-5.6,11.2-5.6c4.8,0,8.5,1.9,11.2,5.6S119.5,20.7,119.5,27.3z"/>
				</g>
				<g>
					<path id="DejaVuSans-3d" d="M144.9,45.4h62.6v-8.2h-62.6V45.4z M144.9,25.5h62.6v-8.3h-62.6V25.5z"/>
				</g>
				<g>
					<path id="DejaVuSans-33_00000114047197865207758250000010660874627628272257_" d="M258.6,39.3c4.7-1,8.4-3.1,11-6.3
						c2.7-3.2,4-7.1,4-11.8c0-7.2-2.5-12.8-7.4-16.7c-4.9-3.9-12-5.9-21.1-5.9c-3.1,0-6.2,0.3-9.4,0.9c-3.2,0.6-6.6,1.5-10,2.7v9.5
						c2.7-1.6,5.7-2.8,9-3.6c3.3-0.8,6.7-1.2,10.2-1.2c6.2,0,10.9,1.2,14.1,3.7c3.2,2.4,4.9,6,4.9,10.6c0,4.3-1.5,7.7-4.5,10.1
						c-3,2.4-7.2,3.6-12.6,3.6h-8.5V43h8.9c4.8,0,8.6,1,11.1,2.9c2.6,1.9,3.9,4.7,3.9,8.4c0,3.7-1.3,6.6-4,8.6c-2.6,2-6.4,3-11.4,3
						c-2.7,0-5.6-0.3-8.7-0.9c-3.1-0.6-6.5-1.5-10.2-2.7v8.8c3.8,1,7.3,1.8,10.5,2.3c3.3,0.5,6.4,0.8,9.2,0.8
						c7.5,0,13.4-1.7,17.8-5.1c4.4-3.4,6.5-8,6.5-13.8c0-4-1.2-7.5-3.5-10.2S262.9,40.4,258.6,39.3z"/>
				</g>
				<g>
					<path id="DejaVuSans-2e_00000132773968265163281360000016746671353824851112_" d="M292.4,12.4h10.3V0h-10.3V12.4z"/>
				</g>
				<g>
					<path id="DejaVuSans-30_00000061448950585571297720000006247737336306162325_" d="M345.3,66.4c-5.1,0-8.9-2.5-11.5-7.5
						c-2.6-5-3.8-12.5-3.8-22.5c0-10,1.3-17.5,3.8-22.5c2.6-5,6.4-7.5,11.5-7.5c5.1,0,8.9,2.5,11.5,7.5c2.6,5,3.8,12.5,3.8,22.5
						c0,10-1.3,17.5-3.8,22.5C354.2,63.9,350.4,66.4,345.3,66.4z M345.3,74.2c8.2,0,14.4-3.2,18.7-9.7c4.3-6.5,6.5-15.8,6.5-28.1
						c0-12.3-2.2-21.6-6.5-28.1c-4.3-6.5-10.6-9.7-18.7-9.7c-8.2,0-14.4,3.2-18.7,9.7c-4.3,6.5-6.5,15.8-6.5,28.1
						c0,12.3,2.2,21.7,6.5,28.1C330.9,71,337.1,74.2,345.3,74.2z"/>
				</g>
				<g>
					<path id="DejaVuSans-39" d="M388.1,1.5v9c2.5-1.2,5-2.1,7.5-2.7c2.5-0.6,5-0.9,7.5-0.9c6.5,0,11.5,2.2,14.9,6.6
						c3.4,4.4,5.4,11,5.9,20c-1.9-2.8-4.3-5-7.2-6.5c-2.9-1.5-6.1-2.2-9.6-2.2c-7.3,0-13.1,2.2-17.3,6.6c-4.2,4.4-6.4,10.5-6.4,18.1
						c0,7.5,2.2,13.5,6.6,18c4.4,4.5,10.3,6.8,17.7,6.8c8.4,0,14.9-3.2,19.3-9.7c4.4-6.5,6.7-15.8,6.7-28.1
						c0-11.5-2.7-20.7-8.2-27.5c-5.4-6.9-12.8-10.3-22-10.3c-2.5,0-5,0.2-7.5,0.7C393.5-0.2,390.8,0.5,388.1,1.5z M407.7,32.4
						c4.4,0,7.9,1.5,10.5,4.5c2.6,3,3.9,7.2,3.9,12.5c0,5.2-1.3,9.4-3.9,12.4c-2.6,3-6.1,4.6-10.5,4.6c-4.4,0-7.9-1.5-10.5-4.6
						c-2.6-3-3.9-7.2-3.9-12.4c0-5.3,1.3-9.4,3.9-12.5C399.8,33.9,403.3,32.4,407.7,32.4z"/>
				</g>
				<g>
					<path id="DejaVuSans-65_00000159448354880238966810000007158658974725977776_" d="M496.9,29.6v-4.4h-41.3
						c0.4-6.2,2.3-10.9,5.6-14.1c3.3-3.2,8-4.9,13.9-4.9c3.4,0,6.8,0.4,10,1.3c3.2,0.8,6.5,2.1,9.7,3.8V2.8
						c-3.2-1.4-6.5-2.4-9.9-3.1c-3.4-0.7-6.8-1.1-10.3-1.1c-8.7,0-15.6,2.5-20.7,7.6c-5.1,5.1-7.6,12-7.6,20.6
						c0,8.9,2.4,16,7.2,21.3c4.8,5.3,11.4,7.9,19.6,7.9c7.4,0,13.2-2.4,17.5-7.1C494.8,44.2,496.9,37.7,496.9,29.6z M487.9,32.2
						c-0.1,4.9-1.4,8.8-4.1,11.8c-2.7,2.9-6.2,4.4-10.7,4.4c-5,0-9-1.4-12-4.2c-3-2.8-4.7-6.8-5.2-12L487.9,32.2z"/>
				</g>
				<g>
					<path id="DejaVuSans-2d" d="M507.1,31.4h26.3v-8h-26.3V31.4z"/>
				</g>
				<g>
					<path id="DejaVuSans-30_00000175295406777548025960000007177223912752131488_" d="M570.1,66.4c-5.1,0-8.9-2.5-11.5-7.5
						c-2.6-5-3.8-12.5-3.8-22.5c0-10,1.3-17.5,3.8-22.5c2.6-5,6.4-7.5,11.5-7.5c5.1,0,8.9,2.5,11.5,7.5c2.6,5,3.8,12.5,3.8,22.5
						c0,10-1.3,17.5-3.8,22.5C579.1,63.9,575.2,66.4,570.1,66.4z M570.1,74.2c8.2,0,14.4-3.2,18.7-9.7c4.3-6.5,6.5-15.8,6.5-28.1
						c0-12.3-2.2-21.6-6.5-28.1c-4.3-6.5-10.6-9.7-18.7-9.7c-8.2,0-14.4,3.2-18.7,9.7c-4.3,6.5-6.5,15.8-6.5,28.1
						c0,12.3,2.2,21.7,6.5,28.1C555.7,71,561.9,74.2,570.1,74.2z"/>
				</g>
				<g>
					<path id="DejaVuSans-38_00000183949349034618001290000004358760234630877353_" d="M633.7,34.6c-4.7,0-8.4-1.3-11.1-3.8
						c-2.7-2.5-4-6-4-10.3c0-4.4,1.3-7.8,4-10.4c2.7-2.5,6.4-3.8,11.1-3.8s8.4,1.3,11.1,3.8c2.7,2.5,4.1,6,4.1,10.3
						c0,4.4-1.3,7.8-4,10.3C642.2,33.4,638.5,34.6,633.7,34.6z M623.9,38.8c-4.2,1-7.5,3-9.9,5.9c-2.4,2.9-3.5,6.4-3.5,10.6
						c0,5.8,2.1,10.4,6.2,13.8c4.2,3.4,9.8,5.1,17.1,5.1c7.3,0,13-1.7,17.1-5.1c4.1-3.4,6.2-8,6.2-13.8c0-4.2-1.2-7.7-3.5-10.6
						c-2.4-2.9-5.6-4.9-9.8-5.9c4.8-1.1,8.4-3.3,11.1-6.5c2.7-3.2,4-7.2,4-11.8c0-7.1-2.2-12.5-6.5-16.3c-4.3-3.8-10.5-5.7-18.5-5.7
						c-8,0-14.2,1.9-18.5,5.7c-4.3,3.8-6.5,9.2-6.5,16.3c0,4.6,1.3,8.6,4,11.8C615.4,35.5,619.1,37.7,623.9,38.8z M620.3,54.4
						c0-3.8,1.2-6.7,3.5-8.8c2.4-2.1,5.7-3.2,9.9-3.2c4.2,0,7.6,1.1,9.9,3.2c2.4,2.1,3.6,5.1,3.6,8.8c0,3.8-1.2,6.7-3.6,8.8
						c-2.4,2.1-5.7,3.2-9.9,3.2c-4.3,0-7.6-1.1-9.9-3.2C621.4,61.1,620.3,58.2,620.3,54.4z"/>
				</g>
				<g>
					<path id="DejaVuSans-29" d="M673.6,75.9h7.8c4.9-7.7,8.5-15.2,11-22.6c2.4-7.4,3.6-14.7,3.6-21.9c0-7.3-1.2-14.6-3.6-22
						c-2.4-7.4-6.1-14.9-11-22.6h-7.8c4.3,7.5,7.6,14.9,9.7,22.2c2.1,7.4,3.2,14.8,3.2,22.3c0,7.5-1.1,14.9-3.2,22.3
						C681.1,61,677.9,68.4,673.6,75.9z"/>
				</g>
			</g>
		</g>
		<g id="legend_1">
			<g id="patch_32">
				<path class="st30" d="M230.2,80.8h96.3c1.6,0,2.4-0.8,2.4-2.4v-34c0-1.6-0.8-2.4-2.4-2.4h-96.3c-1.6,0-2.4,0.8-2.4,2.4v34
					C227.8,80,228.6,80.8,230.2,80.8z"/>
			</g>
			<g id="patch_33">
				<path class="st31" d="M232.6,55.9h24v-8.4h-24V55.9z"/>
			</g>
			<g id="text_14">
				<g transform="translate(266.20375 55.888125) scale(0.12 -0.12)">
					<g>
						<path id="DejaVuSans-4f" d="M39.4,66.2c-7.2,0-12.9-2.7-17.1-8C18.1,52.9,16,45.6,16,36.4c0-9.2,2.1-16.4,6.3-21.8
							c4.2-5.3,9.9-8,17.1-8c7.2,0,12.8,2.7,17,8c4.2,5.3,6.3,12.6,6.3,21.8c0,9.2-2.1,16.5-6.3,21.8C52.2,63.5,46.6,66.2,39.4,66.2
							z M39.4,74.2c10.2,0,18.4-3.4,24.5-10.3c6.1-6.9,9.2-16,9.2-27.6c0-11.5-3.1-20.7-9.2-27.5C57.8,2,49.6-1.4,39.4-1.4
							C29.2-1.4,21,2,14.8,8.8c-6.1,6.8-9.2,16-9.2,27.5s3.1,20.7,9.2,27.6C21,70.8,29.2,74.2,39.4,74.2z"/>
					</g>
					<g>
						<path id="DejaVuSans-62" d="M127.4,27.3c0,6.6-1.4,11.8-4.1,15.5s-6.5,5.6-11.2,5.6c-4.8,0-8.5-1.9-11.2-5.6
							s-4.1-8.9-4.1-15.5s1.4-11.8,4.1-15.5s6.5-5.6,11.2-5.6c4.8,0,8.5,1.9,11.2,5.6S127.4,20.7,127.4,27.3z M96.8,46.4
							c1.9,3.2,4.3,5.7,7.2,7.2c2.9,1.6,6.3,2.4,10.3,2.4c6.6,0,12-2.6,16.2-7.9c4.2-5.3,6.2-12.2,6.2-20.8s-2.1-15.5-6.2-20.8
							c-4.1-5.3-9.5-7.9-16.2-7.9c-4,0-7.4,0.8-10.3,2.4c-2.9,1.6-5.3,4-7.2,7.3V0h-9v76h9V46.4z"/>
					</g>
					<g>
						<path id="DejaVuSans-73_00000042714473430095577190000014566493010008150699_" d="M186.5,53.1v-8.5c-2.5,1.3-5.2,2.3-7.9,2.9
							c-2.7,0.7-5.6,1-8.5,1c-4.5,0-7.8-0.7-10-2s-3.3-3.4-3.3-6.2c0-2.1,0.8-3.7,2.4-4.9s4.8-2.3,9.6-3.4l3.1-0.7
							c6.4-1.4,10.9-3.3,13.6-5.8s4-6,4-10.4c0-5.1-2-9.1-6-12.1c-4-3-9.5-4.4-16.6-4.4c-2.9,0-6,0.3-9.2,0.9s-6.5,1.4-10,2.6v9.3
							c3.3-1.7,6.6-3,9.8-3.9c3.2-0.9,6.4-1.3,9.6-1.3c4.2,0,7.5,0.7,9.8,2.2c2.3,1.4,3.4,3.5,3.4,6.1c0,2.4-0.8,4.3-2.5,5.6
							c-1.6,1.3-5.2,2.6-10.8,3.8l-3.1,0.7c-5.6,1.2-9.6,3-12.1,5.4c-2.5,2.4-3.7,5.8-3.7,10c0,5.1,1.8,9.1,5.5,11.9
							c3.6,2.8,8.8,4.2,15.5,4.2c3.3,0,6.4-0.2,9.4-0.7C181.3,54.8,184,54.1,186.5,53.1z"/>
					</g>
					<g>
						<path id="DejaVuSans-65_00000173872059849852359180000008631256311844650427_" d="M250.5,29.6v-4.4h-41.3
							c0.4-6.2,2.3-10.9,5.6-14.1s8-4.9,13.9-4.9c3.4,0,6.8,0.4,10,1.3s6.5,2.1,9.7,3.8V2.8c-3.2-1.4-6.5-2.4-9.9-3.1
							s-6.8-1.1-10.3-1.1c-8.7,0-15.6,2.5-20.7,7.6c-5.1,5.1-7.6,12-7.6,20.6c0,8.9,2.4,16,7.2,21.3c4.8,5.3,11.4,7.9,19.6,7.9
							c7.4,0,13.2-2.4,17.5-7.1C248.3,44.2,250.5,37.7,250.5,29.6z M241.5,32.2c-0.1,4.9-1.4,8.8-4.1,11.8
							c-2.7,2.9-6.2,4.4-10.7,4.4c-5,0-9-1.4-12-4.2c-3-2.8-4.7-6.8-5.2-12L241.5,32.2z"/>
					</g>
					<g>
						<path id="DejaVuSans-72_00000070830274926637690260000003948841139469412021_" d="M296.9,46.3c-1,0.6-2.1,1-3.3,1.3
							c-1.2,0.3-2.5,0.4-3.9,0.4c-5.1,0-9-1.7-11.7-5s-4.1-8-4.1-14.2V0h-9v54.7h9v-8.5c1.9,3.3,4.4,5.8,7.4,7.4
							c3,1.6,6.7,2.4,11,2.4c0.6,0,1.3,0,2-0.1c0.8-0.1,1.6-0.2,2.5-0.4L296.9,46.3z"/>
					</g>
					<g>
						<path id="DejaVuSans-76" d="M299.9,54.7h9.5l17.1-45.9l17.1,45.9h9.5L332.6,0h-12.2L299.9,54.7z"/>
					</g>
					<g>
						<path id="DejaVuSans-65_00000041285069222319578390000013847100027886283687_" d="M412.3,29.6v-4.4H371
							c0.4-6.2,2.3-10.9,5.6-14.1s8-4.9,13.9-4.9c3.4,0,6.8,0.4,10,1.3c3.2,0.8,6.5,2.1,9.7,3.8V2.8c-3.2-1.4-6.5-2.4-9.9-3.1
							c-3.4-0.7-6.8-1.1-10.3-1.1c-8.7,0-15.6,2.5-20.7,7.6c-5.1,5.1-7.6,12-7.6,20.6c0,8.9,2.4,16,7.2,21.3
							c4.8,5.3,11.4,7.9,19.6,7.9c7.4,0,13.2-2.4,17.5-7.1C410.2,44.2,412.3,37.7,412.3,29.6z M403.3,32.2
							c-0.1,4.9-1.4,8.8-4.1,11.8c-2.7,2.9-6.2,4.4-10.7,4.4c-5,0-9-1.4-12-4.2s-4.7-6.8-5.2-12L403.3,32.2z"/>
					</g>
					<g>
						<path id="DejaVuSans-64_00000110432939843950850800000016659587615074635951_" d="M463,46.4V76h9V0h-9v8.2
							c-1.9-3.3-4.3-5.7-7.2-7.3c-2.9-1.6-6.3-2.4-10.4-2.4c-6.6,0-12,2.6-16.1,7.9c-4.1,5.3-6.2,12.2-6.2,20.8s2.1,15.5,6.2,20.8
							c4.2,5.3,9.5,7.9,16.1,7.9c4,0,7.5-0.8,10.4-2.4C458.8,52.1,461.1,49.6,463,46.4z M432.4,27.3c0-6.6,1.4-11.8,4.1-15.5
							s6.5-5.6,11.2-5.6s8.5,1.9,11.2,5.6c2.7,3.8,4.1,8.9,4.1,15.5s-1.4,11.8-4.1,15.5c-2.7,3.8-6.5,5.6-11.2,5.6
							s-8.5-1.9-11.2-5.6S432.4,33.9,432.4,27.3z"/>
					</g>
				</g>
			</g>
			<g id="patch_34">
				<path class="st32" d="M232.6,73.5h24v-8.4h-24V73.5z"/>
			</g>
			<g id="text_15">
				<g transform="translate(266.20375 73.501875) scale(0.12 -0.12)">
					<g>
						<path id="DejaVuSans-50" d="M19.7,64.8V37.4h12.4c4.6,0,8.1,1.2,10.6,3.6c2.5,2.4,3.8,5.8,3.8,10.2c0,4.4-1.3,7.7-3.8,10.1
							c-2.5,2.4-6,3.6-10.6,3.6H19.7z M9.8,72.9h22.3c8.2,0,14.4-1.8,18.5-5.5c4.2-3.7,6.3-9.1,6.3-16.2c0-7.2-2.1-12.6-6.3-16.3
							c-4.2-3.7-10.4-5.5-18.5-5.5H19.7V0H9.8V72.9z"/>
					</g>
					<g>
						<path id="DejaVuSans-65_00000029020191825417730940000018105424995417965227_" d="M112.9,29.6v-4.4H71.6
							c0.4-6.2,2.3-10.9,5.6-14.1s8-4.9,13.9-4.9c3.4,0,6.8,0.4,10,1.3c3.2,0.8,6.5,2.1,9.7,3.8V2.8c-3.2-1.4-6.5-2.4-9.9-3.1
							C97.5-1.1,94-1.4,90.6-1.4c-8.7,0-15.6,2.5-20.7,7.6c-5.1,5.1-7.6,12-7.6,20.6c0,8.9,2.4,16,7.2,21.3C74.3,53.4,80.8,56,89,56
							c7.4,0,13.2-2.4,17.5-7.1C110.7,44.2,112.9,37.7,112.9,29.6z M103.9,32.2c-0.1,4.9-1.4,8.8-4.1,11.8
							c-2.7,2.9-6.2,4.4-10.7,4.4c-5,0-9-1.4-12-4.2s-4.7-6.8-5.2-12L103.9,32.2z"/>
					</g>
					<g>
						<path id="DejaVuSans-72_00000013150553899037000070000004759313346744335526_" d="M159.3,46.3c-1,0.6-2.1,1-3.3,1.3
							c-1.2,0.3-2.5,0.4-3.9,0.4c-5.1,0-9-1.7-11.7-5s-4.1-8-4.1-14.2V0h-9v54.7h9v-8.5c1.9,3.3,4.4,5.8,7.4,7.4
							c3,1.6,6.7,2.4,11,2.4c0.6,0,1.3,0,2-0.1c0.8-0.1,1.6-0.2,2.5-0.4L159.3,46.3z"/>
					</g>
					<g>
						<path id="DejaVuSans-6d" d="M209.6,44.2c2.2,4,4.9,7,8.1,8.9s6.8,2.9,11,2.9c5.7,0,10.1-2,13.2-6c3.1-4,4.6-9.6,4.6-17V0h-9
							v32.7c0,5.2-0.9,9.1-2.8,11.7c-1.9,2.5-4.7,3.8-8.5,3.8c-4.7,0-8.3-1.5-11-4.6c-2.7-3.1-4-7.3-4-12.6V0h-9v32.7
							c0,5.3-0.9,9.2-2.8,11.7s-4.7,3.8-8.6,3.8c-4.6,0-8.2-1.6-11-4.7c-2.7-3.1-4-7.3-4-12.6V0h-9v54.7h9v-8.5
							c2.1,3.4,4.5,5.8,7.4,7.4s6.3,2.4,10.2,2.4c4,0,7.4-1,10.1-3C206.2,51,208.2,48,209.6,44.2z"/>
					</g>
					<g>
						<path id="DejaVuSans-75" d="M263.5,21.6v33.1h9V21.9c0-5.2,1-9.1,3-11.7c2-2.6,5.1-3.9,9.1-3.9c4.8,0,8.7,1.5,11.5,4.6
							c2.8,3.1,4.2,7.3,4.2,12.7v31h9V0h-9v8.4c-2.2-3.3-4.7-5.8-7.6-7.4c-2.9-1.6-6.2-2.4-10-2.4c-6.3,0-11.1,2-14.3,5.9
							C265.1,8.3,263.5,14.1,263.5,21.6z M286.1,56L286.1,56z"/>
					</g>
					<g>
						<path id="DejaVuSans-74_00000035497018552455731120000001148859641120507837_" d="M336.7,70.2V54.7h18.5v-7h-18.5V18
							c0-4.5,0.6-7.3,1.8-8.6s3.7-1.9,7.5-1.9h9.2V0h-9.2c-6.9,0-11.7,1.3-14.4,3.9c-2.6,2.6-4,7.3-4,14.1v29.7H321v7h6.6v15.5
							H336.7z"/>
					</g>
					<g>
						<path id="DejaVuSans-65_00000111158753605446672570000015000226175773143437_" d="M413.8,29.6v-4.4h-41.3
							c0.4-6.2,2.3-10.9,5.6-14.1s8-4.9,13.9-4.9c3.4,0,6.8,0.4,10,1.3c3.2,0.8,6.5,2.1,9.7,3.8V2.8c-3.2-1.4-6.5-2.4-9.9-3.1
							c-3.4-0.7-6.8-1.1-10.3-1.1c-8.7,0-15.6,2.5-20.7,7.6c-5.1,5.1-7.6,12-7.6,20.6c0,8.9,2.4,16,7.2,21.3
							c4.8,5.3,11.4,7.9,19.6,7.9c7.4,0,13.2-2.4,17.5-7.1C411.6,44.2,413.8,37.7,413.8,29.6z M404.8,32.2
							c-0.1,4.9-1.4,8.8-4.1,11.8c-2.7,2.9-6.2,4.4-10.7,4.4c-5,0-9-1.4-12-4.2s-4.7-6.8-5.2-12L404.8,32.2z"/>
					</g>
					<g>
						<path id="DejaVuSans-64_00000090271473889543534480000007377722550416411804_" d="M464.5,46.4V76h9V0h-9v8.2
							c-1.9-3.2-4.3-5.7-7.2-7.2c-2.9-1.6-6.3-2.4-10.4-2.4c-6.6,0-12,2.6-16.1,7.9c-4.1,5.3-6.2,12.2-6.2,20.8s2.1,15.5,6.2,20.8
							c4.2,5.3,9.5,7.9,16.1,7.9c4,0,7.5-0.8,10.4-2.4C460.2,52.1,462.6,49.6,464.5,46.4z M433.9,27.3c0-6.6,1.4-11.8,4.1-15.5
							s6.5-5.6,11.2-5.6s8.5,1.9,11.2,5.6c2.7,3.8,4.1,8.9,4.1,15.5s-1.4,11.8-4.1,15.5c-2.7,3.8-6.5,5.6-11.2,5.6
							s-8.5-1.9-11.2-5.6S433.9,33.9,433.9,27.3z"/>
					</g>
				</g>
			</g>
		</g>
		<g id="patch_35">
			<g>
				<defs>
					<rect id="SVGID_00000180356708176635829910000004607127418027134087_" x="60.4" y="25.4" width="279" height="221.8"/>
				</defs>
				<clipPath id="SVGID_00000036220490848800779310000007197497336712744636_">
					<use xlink:href="#SVGID_00000180356708176635829910000004607127418027134087_"  style="overflow:visible;"/>
				</clipPath>
				<path style="clip-path:url(#SVGID_00000036220490848800779310000007197497336712744636_);fill:#3636EB;stroke:#3636EB;" d="
					M318.5,247.1l-8.2-10.6l7,5.3V141.5h2.5v100.3l7-5.3L318.5,247.1z"/>
			</g>
		</g>
	</g>
</g>
</svg>
